M48
; DRILL file {KiCad 9.0.6-9.0.6~ubuntu24.04.1} date 2026-05-12T03:12:21-0400
; FORMAT={-:-/ absolute / metric / decimal}
; #@! TF.CreationDate,2026-05-12T03:12:21-04:00
; #@! TF.GenerationSoftware,Kicad,Pcbnew,9.0.6-9.0.6~ubuntu24.04.1
; #@! TF.FileFunction,Plated,1,2,PTH
FMAT,2
METRIC
; #@! TA.AperFunction,Plated,PTH,ViaDrill
T1C0.300
; #@! TA.AperFunction,Plated,PTH,ComponentDrill
T2C0.400
; #@! TA.AperFunction,Plated,PTH,ComponentDrill
T3C0.600
; #@! TA.AperFunction,Plated,PTH,ComponentDrill
T4C1.000
%
G90
G05
T1
X55.2Y-114.2
X55.6Y-112.8
X59.4Y-109.0
X59.4Y-127.2
X62.4Y-113.05
X62.6Y-107.4
X63.2Y-125.0
X63.4Y-101.6
X63.8Y-112.4
X65.0Y-107.8
X65.84Y-110.24
X66.2Y-107.2
X66.6Y-112.8
X67.6Y-111.8
X67.65Y-101.6
X68.0Y-109.6
X68.2Y-102.4
X68.4Y-112.425
X71.0Y-118.9
X71.6Y-120.2
X72.0Y-111.8
X72.2Y-102.6
X72.6Y-112.6
X72.6Y-114.65
X72.6Y-116.4
X72.8Y-101.6
X74.4Y-99.0
X74.6Y-114.6
X75.97Y-102.37
X76.6Y-117.0
X76.8Y-99.4
X77.8Y-123.0
X78.8Y-107.8
X80.8Y-99.4
X81.4Y-123.0
X83.4Y-113.6
X84.6Y-114.4
X89.4Y-114.3
T2
X87.04Y-112.625
X87.04Y-113.475
X87.04Y-114.325
X87.04Y-115.175
X87.04Y-116.025
X87.04Y-116.875
X87.04Y-117.725
X87.04Y-118.575
X88.39Y-112.625
X88.39Y-113.475
X88.39Y-114.325
X88.39Y-115.175
X88.39Y-116.025
X88.39Y-116.875
X88.39Y-117.725
X88.39Y-118.575
T4
X53.0Y-112.88
X53.0Y-115.42
X53.0Y-117.96
X53.0Y-120.5
X61.5Y-96.5
X63.46Y-128.0
X64.04Y-96.5
X66.0Y-128.0
X66.58Y-96.5
X68.54Y-128.0
X69.12Y-96.5
X71.08Y-128.0
X75.0Y-96.8
X77.54Y-96.8
X80.08Y-96.8
X82.62Y-96.8
T3
G00X87.27Y-111.275
M15
G01X88.77Y-111.275
M16
G05
G00X87.27Y-119.925
M15
G01X88.77Y-119.925
M16
G05
G00X91.0Y-111.275
M15
G01X91.8Y-111.275
M16
G05
G00X91.0Y-119.925
M15
G01X91.8Y-119.925
M16
G05
M30
