%TF.GenerationSoftware,KiCad,Pcbnew,9.0.6-9.0.6~ubuntu24.04.1*%
%TF.CreationDate,2026-05-12T03:12:16-04:00*%
%TF.ProjectId,Stm32-pcb,53746d33-322d-4706-9362-2e6b69636164,rev?*%
%TF.SameCoordinates,Original*%
%TF.FileFunction,Paste,Top*%
%TF.FilePolarity,Positive*%
%FSLAX46Y46*%
G04 Gerber Fmt 4.6, Leading zero omitted, Abs format (unit mm)*
G04 Created by KiCad (PCBNEW 9.0.6-9.0.6~ubuntu24.04.1) date 2026-05-12 03:12:16*
%MOMM*%
%LPD*%
G01*
G04 APERTURE LIST*
G04 Aperture macros list*
%AMRoundRect*
0 Rectangle with rounded corners*
0 $1 Rounding radius*
0 $2 $3 $4 $5 $6 $7 $8 $9 X,Y pos of 4 corners*
0 Add a 4 corners polygon primitive as box body*
4,1,4,$2,$3,$4,$5,$6,$7,$8,$9,$2,$3,0*
0 Add four circle primitives for the rounded corners*
1,1,$1+$1,$2,$3*
1,1,$1+$1,$4,$5*
1,1,$1+$1,$6,$7*
1,1,$1+$1,$8,$9*
0 Add four rect primitives between the rounded corners*
20,1,$1+$1,$2,$3,$4,$5,0*
20,1,$1+$1,$4,$5,$6,$7,0*
20,1,$1+$1,$6,$7,$8,$9,0*
20,1,$1+$1,$8,$9,$2,$3,0*%
G04 Aperture macros list end*
%ADD10R,0.800000X1.000000*%
%ADD11R,1.500000X0.700000*%
%ADD12RoundRect,0.075000X-0.350000X-0.075000X0.350000X-0.075000X0.350000X0.075000X-0.350000X0.075000X0*%
%ADD13RoundRect,0.075000X0.075000X-0.350000X0.075000X0.350000X-0.075000X0.350000X-0.075000X-0.350000X0*%
%ADD14RoundRect,0.250000X-0.350000X0.450000X-0.350000X-0.450000X0.350000X-0.450000X0.350000X0.450000X0*%
%ADD15RoundRect,0.135000X-0.135000X-0.185000X0.135000X-0.185000X0.135000X0.185000X-0.135000X0.185000X0*%
%ADD16RoundRect,0.135000X-0.185000X0.135000X-0.185000X-0.135000X0.185000X-0.135000X0.185000X0.135000X0*%
%ADD17RoundRect,0.140000X-0.140000X-0.170000X0.140000X-0.170000X0.140000X0.170000X-0.140000X0.170000X0*%
%ADD18RoundRect,0.140000X0.140000X0.170000X-0.140000X0.170000X-0.140000X-0.170000X0.140000X-0.170000X0*%
%ADD19RoundRect,0.250000X-0.270000X-0.270000X0.270000X-0.270000X0.270000X0.270000X-0.270000X0.270000X0*%
%ADD20RoundRect,0.062500X-0.375000X-0.062500X0.375000X-0.062500X0.375000X0.062500X-0.375000X0.062500X0*%
%ADD21RoundRect,0.062500X-0.062500X-0.375000X0.062500X-0.375000X0.062500X0.375000X-0.062500X0.375000X0*%
%ADD22RoundRect,0.135000X0.185000X-0.135000X0.185000X0.135000X-0.185000X0.135000X-0.185000X-0.135000X0*%
%ADD23RoundRect,0.135000X0.135000X0.185000X-0.135000X0.185000X-0.135000X-0.185000X0.135000X-0.185000X0*%
%ADD24RoundRect,0.140000X0.170000X-0.140000X0.170000X0.140000X-0.170000X0.140000X-0.170000X-0.140000X0*%
%ADD25RoundRect,0.140000X-0.170000X0.140000X-0.170000X-0.140000X0.170000X-0.140000X0.170000X0.140000X0*%
%ADD26RoundRect,0.243750X0.243750X0.456250X-0.243750X0.456250X-0.243750X-0.456250X0.243750X-0.456250X0*%
%ADD27RoundRect,0.375000X-0.375000X0.625000X-0.375000X-0.625000X0.375000X-0.625000X0.375000X0.625000X0*%
%ADD28RoundRect,0.500000X-1.400000X0.500000X-1.400000X-0.500000X1.400000X-0.500000X1.400000X0.500000X0*%
%ADD29RoundRect,0.218750X-0.256250X0.218750X-0.256250X-0.218750X0.256250X-0.218750X0.256250X0.218750X0*%
G04 APERTURE END LIST*
D10*
%TO.C,SW1*%
X53610000Y-101850000D03*
X51400000Y-101850000D03*
X53610000Y-109150000D03*
X51400000Y-109150000D03*
D11*
X54260000Y-103250000D03*
X54260000Y-106250000D03*
X54260000Y-107750000D03*
%TD*%
D12*
%TO.C,U2*%
X67800000Y-104700000D03*
X67800000Y-105200000D03*
X67800000Y-105700000D03*
X67800000Y-106200000D03*
X67800000Y-106700000D03*
X67800000Y-107200000D03*
D13*
X68500000Y-107900000D03*
X69000000Y-107900000D03*
X69500000Y-107900000D03*
X70000000Y-107900000D03*
X70500000Y-107900000D03*
X71000000Y-107900000D03*
D12*
X71700000Y-107200000D03*
X71700000Y-106700000D03*
X71700000Y-106200000D03*
X71700000Y-105700000D03*
X71700000Y-105200000D03*
X71700000Y-104700000D03*
D13*
X71000000Y-104000000D03*
X70500000Y-104000000D03*
X70000000Y-104000000D03*
X69500000Y-104000000D03*
X69000000Y-104000000D03*
X68500000Y-104000000D03*
%TD*%
D14*
%TO.C,Y1*%
X56300000Y-116000000D03*
X56300000Y-118200000D03*
X58000000Y-118200000D03*
X58000000Y-116000000D03*
%TD*%
D15*
%TO.C,R2*%
X84090000Y-118800000D03*
X85110000Y-118800000D03*
%TD*%
D16*
%TO.C,R1*%
X59200000Y-106400000D03*
X59200000Y-107420000D03*
%TD*%
D17*
%TO.C,C12*%
X71320000Y-110000000D03*
X72280000Y-110000000D03*
%TD*%
D18*
%TO.C,C2*%
X60360000Y-126400000D03*
X59400000Y-126400000D03*
%TD*%
D19*
%TO.C,U1*%
X64627500Y-115315000D03*
X64627500Y-116605000D03*
X64627500Y-117895000D03*
X64627500Y-119185000D03*
X65917500Y-115315000D03*
X65917500Y-116605000D03*
X65917500Y-117895000D03*
X65917500Y-119185000D03*
X67207500Y-115315000D03*
X67207500Y-116605000D03*
X67207500Y-117895000D03*
X67207500Y-119185000D03*
X68497500Y-115315000D03*
X68497500Y-116605000D03*
X68497500Y-117895000D03*
X68497500Y-119185000D03*
D20*
X63125000Y-114750000D03*
X63125000Y-115250000D03*
X63125000Y-115750000D03*
X63125000Y-116250000D03*
X63125000Y-116750000D03*
X63125000Y-117250000D03*
X63125000Y-117750000D03*
X63125000Y-118250000D03*
X63125000Y-118750000D03*
X63125000Y-119250000D03*
X63125000Y-119750000D03*
D21*
X64062500Y-120687500D03*
X64562500Y-120687500D03*
X65062500Y-120687500D03*
X65562500Y-120687500D03*
X66062500Y-120687500D03*
X66562500Y-120687500D03*
X67062500Y-120687500D03*
X67562500Y-120687500D03*
X68062500Y-120687500D03*
X68562500Y-120687500D03*
X69062500Y-120687500D03*
D20*
X70000000Y-119750000D03*
X70000000Y-119250000D03*
X70000000Y-118750000D03*
X70000000Y-118250000D03*
X70000000Y-117750000D03*
X70000000Y-117250000D03*
X70000000Y-116750000D03*
X70000000Y-116250000D03*
X70000000Y-115750000D03*
X70000000Y-115250000D03*
X70000000Y-114750000D03*
D21*
X69062500Y-113812500D03*
X68562500Y-113812500D03*
X68062500Y-113812500D03*
X67562500Y-113812500D03*
X67062500Y-113812500D03*
X66562500Y-113812500D03*
X66062500Y-113812500D03*
X65562500Y-113812500D03*
X65062500Y-113812500D03*
X64562500Y-113812500D03*
X64062500Y-113812500D03*
%TD*%
D22*
%TO.C,R3*%
X78800000Y-116800000D03*
X78800000Y-115780000D03*
%TD*%
D17*
%TO.C,C3*%
X72600000Y-113800000D03*
X73560000Y-113800000D03*
%TD*%
D23*
%TO.C,R5*%
X85110000Y-120600000D03*
X84090000Y-120600000D03*
%TD*%
D22*
%TO.C,R8*%
X77400000Y-107620000D03*
X77400000Y-106600000D03*
%TD*%
D24*
%TO.C,C10*%
X59800000Y-115760000D03*
X59800000Y-114800000D03*
%TD*%
%TO.C,C19*%
X83800000Y-127000000D03*
X83800000Y-126040000D03*
%TD*%
D23*
%TO.C,R7*%
X66110000Y-109000000D03*
X65090000Y-109000000D03*
%TD*%
D25*
%TO.C,C14*%
X73200000Y-105240000D03*
X73200000Y-106200000D03*
%TD*%
D18*
%TO.C,C7*%
X60200000Y-123400000D03*
X59240000Y-123400000D03*
%TD*%
D26*
%TO.C,D2*%
X74275000Y-118250000D03*
X72400000Y-118250000D03*
%TD*%
D25*
%TO.C,C8*%
X73200000Y-107240000D03*
X73200000Y-108200000D03*
%TD*%
D24*
%TO.C,C6*%
X61400000Y-121200000D03*
X61400000Y-120240000D03*
%TD*%
D17*
%TO.C,C18*%
X76500000Y-118250000D03*
X77460000Y-118250000D03*
%TD*%
D23*
%TO.C,R4*%
X73820000Y-121800000D03*
X72800000Y-121800000D03*
%TD*%
D27*
%TO.C,U3*%
X81300000Y-120450000D03*
X79000000Y-120450000D03*
D28*
X79000000Y-126750000D03*
D27*
X76700000Y-120450000D03*
%TD*%
D25*
%TO.C,C9*%
X59600000Y-119640000D03*
X59600000Y-120600000D03*
%TD*%
D16*
%TO.C,R6*%
X84600000Y-112490000D03*
X84600000Y-113510000D03*
%TD*%
D25*
%TO.C,C4*%
X56800000Y-110240000D03*
X56800000Y-111200000D03*
%TD*%
D17*
%TO.C,C13*%
X70240000Y-102600000D03*
X71200000Y-102600000D03*
%TD*%
%TO.C,C5*%
X62800000Y-109400000D03*
X63760000Y-109400000D03*
%TD*%
D18*
%TO.C,C11*%
X57560000Y-120270000D03*
X56600000Y-120270000D03*
%TD*%
D29*
%TO.C,D3*%
X86400000Y-125425000D03*
X86400000Y-127000000D03*
%TD*%
D17*
%TO.C,C1*%
X62720000Y-111400000D03*
X63680000Y-111400000D03*
%TD*%
M02*
