%TF.GenerationSoftware,KiCad,Pcbnew,9.0.6-9.0.6~ubuntu24.04.1*%
%TF.CreationDate,2026-05-12T03:12:16-04:00*%
%TF.ProjectId,Stm32-pcb,53746d33-322d-4706-9362-2e6b69636164,rev?*%
%TF.SameCoordinates,Original*%
%TF.FileFunction,Copper,L1,Top*%
%TF.FilePolarity,Positive*%
%FSLAX46Y46*%
G04 Gerber Fmt 4.6, Leading zero omitted, Abs format (unit mm)*
G04 Created by KiCad (PCBNEW 9.0.6-9.0.6~ubuntu24.04.1) date 2026-05-12 03:12:16*
%MOMM*%
%LPD*%
G01*
G04 APERTURE LIST*
G04 Aperture macros list*
%AMRoundRect*
0 Rectangle with rounded corners*
0 $1 Rounding radius*
0 $2 $3 $4 $5 $6 $7 $8 $9 X,Y pos of 4 corners*
0 Add a 4 corners polygon primitive as box body*
4,1,4,$2,$3,$4,$5,$6,$7,$8,$9,$2,$3,0*
0 Add four circle primitives for the rounded corners*
1,1,$1+$1,$2,$3*
1,1,$1+$1,$4,$5*
1,1,$1+$1,$6,$7*
1,1,$1+$1,$8,$9*
0 Add four rect primitives between the rounded corners*
20,1,$1+$1,$2,$3,$4,$5,0*
20,1,$1+$1,$4,$5,$6,$7,0*
20,1,$1+$1,$6,$7,$8,$9,0*
20,1,$1+$1,$8,$9,$2,$3,0*%
G04 Aperture macros list end*
%TA.AperFunction,SMDPad,CuDef*%
%ADD10R,0.800000X1.000000*%
%TD*%
%TA.AperFunction,SMDPad,CuDef*%
%ADD11R,1.500000X0.700000*%
%TD*%
%TA.AperFunction,SMDPad,CuDef*%
%ADD12RoundRect,0.075000X-0.350000X-0.075000X0.350000X-0.075000X0.350000X0.075000X-0.350000X0.075000X0*%
%TD*%
%TA.AperFunction,SMDPad,CuDef*%
%ADD13RoundRect,0.075000X0.075000X-0.350000X0.075000X0.350000X-0.075000X0.350000X-0.075000X-0.350000X0*%
%TD*%
%TA.AperFunction,SMDPad,CuDef*%
%ADD14RoundRect,0.250000X-0.350000X0.450000X-0.350000X-0.450000X0.350000X-0.450000X0.350000X0.450000X0*%
%TD*%
%TA.AperFunction,SMDPad,CuDef*%
%ADD15RoundRect,0.135000X-0.135000X-0.185000X0.135000X-0.185000X0.135000X0.185000X-0.135000X0.185000X0*%
%TD*%
%TA.AperFunction,SMDPad,CuDef*%
%ADD16RoundRect,0.135000X-0.185000X0.135000X-0.185000X-0.135000X0.185000X-0.135000X0.185000X0.135000X0*%
%TD*%
%TA.AperFunction,SMDPad,CuDef*%
%ADD17RoundRect,0.140000X-0.140000X-0.170000X0.140000X-0.170000X0.140000X0.170000X-0.140000X0.170000X0*%
%TD*%
%TA.AperFunction,SMDPad,CuDef*%
%ADD18RoundRect,0.140000X0.140000X0.170000X-0.140000X0.170000X-0.140000X-0.170000X0.140000X-0.170000X0*%
%TD*%
%TA.AperFunction,SMDPad,CuDef*%
%ADD19RoundRect,0.062500X-0.375000X-0.062500X0.375000X-0.062500X0.375000X0.062500X-0.375000X0.062500X0*%
%TD*%
%TA.AperFunction,SMDPad,CuDef*%
%ADD20RoundRect,0.062500X-0.062500X-0.375000X0.062500X-0.375000X0.062500X0.375000X-0.062500X0.375000X0*%
%TD*%
%TA.AperFunction,HeatsinkPad*%
%ADD21R,5.150000X5.150000*%
%TD*%
%TA.AperFunction,SMDPad,CuDef*%
%ADD22RoundRect,0.135000X0.185000X-0.135000X0.185000X0.135000X-0.185000X0.135000X-0.185000X-0.135000X0*%
%TD*%
%TA.AperFunction,SMDPad,CuDef*%
%ADD23RoundRect,0.135000X0.135000X0.185000X-0.135000X0.185000X-0.135000X-0.185000X0.135000X-0.185000X0*%
%TD*%
%TA.AperFunction,ComponentPad*%
%ADD24C,0.700000*%
%TD*%
%TA.AperFunction,ComponentPad*%
%ADD25O,2.400000X0.900000*%
%TD*%
%TA.AperFunction,ComponentPad*%
%ADD26O,1.700000X0.900000*%
%TD*%
%TA.AperFunction,ComponentPad*%
%ADD27R,1.700000X1.700000*%
%TD*%
%TA.AperFunction,ComponentPad*%
%ADD28C,1.700000*%
%TD*%
%TA.AperFunction,SMDPad,CuDef*%
%ADD29RoundRect,0.140000X0.170000X-0.140000X0.170000X0.140000X-0.170000X0.140000X-0.170000X-0.140000X0*%
%TD*%
%TA.AperFunction,SMDPad,CuDef*%
%ADD30RoundRect,0.140000X-0.170000X0.140000X-0.170000X-0.140000X0.170000X-0.140000X0.170000X0.140000X0*%
%TD*%
%TA.AperFunction,SMDPad,CuDef*%
%ADD31RoundRect,0.243750X0.243750X0.456250X-0.243750X0.456250X-0.243750X-0.456250X0.243750X-0.456250X0*%
%TD*%
%TA.AperFunction,SMDPad,CuDef*%
%ADD32RoundRect,0.375000X-0.375000X0.625000X-0.375000X-0.625000X0.375000X-0.625000X0.375000X0.625000X0*%
%TD*%
%TA.AperFunction,SMDPad,CuDef*%
%ADD33RoundRect,0.500000X-1.400000X0.500000X-1.400000X-0.500000X1.400000X-0.500000X1.400000X0.500000X0*%
%TD*%
%TA.AperFunction,SMDPad,CuDef*%
%ADD34RoundRect,0.218750X-0.256250X0.218750X-0.256250X-0.218750X0.256250X-0.218750X0.256250X0.218750X0*%
%TD*%
%TA.AperFunction,ViaPad*%
%ADD35C,0.600000*%
%TD*%
%TA.AperFunction,Conductor*%
%ADD36C,0.300000*%
%TD*%
%TA.AperFunction,Conductor*%
%ADD37C,0.200000*%
%TD*%
%TA.AperFunction,Conductor*%
%ADD38C,0.500000*%
%TD*%
G04 APERTURE END LIST*
D10*
%TO.P,SW1,*%
%TO.N,*%
X53610000Y-101850000D03*
X51400000Y-101850000D03*
X53610000Y-109150000D03*
X51400000Y-109150000D03*
D11*
%TO.P,SW1,1,A*%
%TO.N,GND*%
X54260000Y-103250000D03*
%TO.P,SW1,2,B*%
%TO.N,/sw_booto*%
X54260000Y-106250000D03*
%TO.P,SW1,3,C*%
%TO.N,+3.3V*%
X54260000Y-107750000D03*
%TD*%
D12*
%TO.P,U2,1,CLKIN*%
%TO.N,GND*%
X67800000Y-104700000D03*
%TO.P,U2,2,NC*%
%TO.N,unconnected-(U2-NC-Pad2)*%
X67800000Y-105200000D03*
%TO.P,U2,3,NC*%
%TO.N,unconnected-(U2-NC-Pad3)*%
X67800000Y-105700000D03*
%TO.P,U2,4,NC*%
%TO.N,unconnected-(U2-NC-Pad4)*%
X67800000Y-106200000D03*
%TO.P,U2,5,NC*%
%TO.N,unconnected-(U2-NC-Pad5)*%
X67800000Y-106700000D03*
%TO.P,U2,6,AUX_DA*%
%TO.N,unconnected-(U2-AUX_DA-Pad6)*%
X67800000Y-107200000D03*
D13*
%TO.P,U2,7,AUX_CL*%
%TO.N,unconnected-(U2-AUX_CL-Pad7)*%
X68500000Y-107900000D03*
%TO.P,U2,8,VLOGIC*%
%TO.N,+3.3V*%
X69000000Y-107900000D03*
%TO.P,U2,9,AD0*%
%TO.N,/AD0*%
X69500000Y-107900000D03*
%TO.P,U2,10,REGOUT*%
%TO.N,Net-(U2-REGOUT)*%
X70000000Y-107900000D03*
%TO.P,U2,11,FSYNC*%
%TO.N,GND*%
X70500000Y-107900000D03*
%TO.P,U2,12,INT*%
%TO.N,/INT*%
X71000000Y-107900000D03*
D12*
%TO.P,U2,13,VDD*%
%TO.N,+3.3V*%
X71700000Y-107200000D03*
%TO.P,U2,14,NC*%
%TO.N,unconnected-(U2-NC-Pad14)*%
X71700000Y-106700000D03*
%TO.P,U2,15,NC*%
%TO.N,unconnected-(U2-NC-Pad15)*%
X71700000Y-106200000D03*
%TO.P,U2,16,NC*%
%TO.N,unconnected-(U2-NC-Pad16)*%
X71700000Y-105700000D03*
%TO.P,U2,17,NC*%
%TO.N,unconnected-(U2-NC-Pad17)*%
X71700000Y-105200000D03*
%TO.P,U2,18,GND*%
%TO.N,GND*%
X71700000Y-104700000D03*
D13*
%TO.P,U2,19,RESV*%
%TO.N,unconnected-(U2-RESV-Pad19)*%
X71000000Y-104000000D03*
%TO.P,U2,20,CPOUT*%
%TO.N,Net-(U2-CPOUT)*%
X70500000Y-104000000D03*
%TO.P,U2,21,RESV*%
%TO.N,unconnected-(U2-RESV-Pad21)*%
X70000000Y-104000000D03*
%TO.P,U2,22,RESV*%
%TO.N,unconnected-(U2-RESV-Pad22)*%
X69500000Y-104000000D03*
%TO.P,U2,23,SCL*%
%TO.N,/I2C_SCL*%
X69000000Y-104000000D03*
%TO.P,U2,24,SDA*%
%TO.N,/I2C_SDA*%
X68500000Y-104000000D03*
%TD*%
D14*
%TO.P,Y1,1,1*%
%TO.N,/HSE_IN*%
X56300000Y-116000000D03*
%TO.P,Y1,2,2*%
%TO.N,GND*%
X56300000Y-118200000D03*
%TO.P,Y1,3,3*%
%TO.N,/HSE_OUT*%
X58000000Y-118200000D03*
%TO.P,Y1,4,4*%
%TO.N,GND*%
X58000000Y-116000000D03*
%TD*%
D15*
%TO.P,R2,1*%
%TO.N,GND*%
X84090000Y-118800000D03*
%TO.P,R2,2*%
%TO.N,Net-(J5-CC1)*%
X85110000Y-118800000D03*
%TD*%
D16*
%TO.P,R1,1*%
%TO.N,/sw_booto*%
X59200000Y-106400000D03*
%TO.P,R1,2*%
%TO.N,/BOOTO*%
X59200000Y-107420000D03*
%TD*%
D17*
%TO.P,C12,1*%
%TO.N,Net-(U2-REGOUT)*%
X71320000Y-110000000D03*
%TO.P,C12,2*%
%TO.N,GND*%
X72280000Y-110000000D03*
%TD*%
D18*
%TO.P,C2,1*%
%TO.N,+3.3V*%
X60360000Y-126400000D03*
%TO.P,C2,2*%
%TO.N,GND*%
X59400000Y-126400000D03*
%TD*%
D19*
%TO.P,U1,1,VBAT*%
%TO.N,+3.3V*%
X63125000Y-114750000D03*
%TO.P,U1,2,PC13*%
%TO.N,unconnected-(U1-PC13-Pad2)*%
X63125000Y-115250000D03*
%TO.P,U1,3,PC14*%
%TO.N,unconnected-(U1-PC14-Pad3)*%
X63125000Y-115750000D03*
%TO.P,U1,4,PC15*%
%TO.N,unconnected-(U1-PC15-Pad4)*%
X63125000Y-116250000D03*
%TO.P,U1,5,PH0*%
%TO.N,/HSE_IN*%
X63125000Y-116750000D03*
%TO.P,U1,6,PH1*%
%TO.N,/HSE_OUT*%
X63125000Y-117250000D03*
%TO.P,U1,7,NRST*%
%TO.N,/NRST*%
X63125000Y-117750000D03*
%TO.P,U1,8,VSSA*%
%TO.N,GND*%
X63125000Y-118250000D03*
%TO.P,U1,9,VDDA*%
%TO.N,+3.3VA*%
X63125000Y-118750000D03*
%TO.P,U1,10,PA0*%
%TO.N,unconnected-(U1-PA0-Pad10)*%
X63125000Y-119250000D03*
%TO.P,U1,11,PA1*%
%TO.N,unconnected-(U1-PA1-Pad11)*%
X63125000Y-119750000D03*
D20*
%TO.P,U1,12,PA2*%
%TO.N,/UART_TX*%
X64062500Y-120687500D03*
%TO.P,U1,13,PA3*%
%TO.N,/UART_RX*%
X64562500Y-120687500D03*
%TO.P,U1,14,PA4*%
%TO.N,unconnected-(U1-PA4-Pad14)*%
X65062500Y-120687500D03*
%TO.P,U1,15,PA5*%
%TO.N,unconnected-(U1-PA5-Pad15)*%
X65562500Y-120687500D03*
%TO.P,U1,16,PA6*%
%TO.N,unconnected-(U1-PA6-Pad16)*%
X66062500Y-120687500D03*
%TO.P,U1,17,PA7*%
%TO.N,unconnected-(U1-PA7-Pad17)*%
X66562500Y-120687500D03*
%TO.P,U1,18,PB0*%
%TO.N,unconnected-(U1-PB0-Pad18)*%
X67062500Y-120687500D03*
%TO.P,U1,19,PB1*%
%TO.N,unconnected-(U1-PB1-Pad19)*%
X67562500Y-120687500D03*
%TO.P,U1,20,PB2*%
%TO.N,unconnected-(U1-PB2-Pad20)*%
X68062500Y-120687500D03*
%TO.P,U1,21,PB10*%
%TO.N,unconnected-(U1-PB10-Pad21)*%
X68562500Y-120687500D03*
%TO.P,U1,22,VCAP1*%
%TO.N,unconnected-(U1-VCAP1-Pad22)*%
X69062500Y-120687500D03*
D19*
%TO.P,U1,23,VSS*%
%TO.N,GND*%
X70000000Y-119750000D03*
%TO.P,U1,24,VDD*%
%TO.N,+3.3V*%
X70000000Y-119250000D03*
%TO.P,U1,25,PB12*%
%TO.N,unconnected-(U1-PB12-Pad25)*%
X70000000Y-118750000D03*
%TO.P,U1,26,PB13*%
%TO.N,Net-(D2-A)*%
X70000000Y-118250000D03*
%TO.P,U1,27,PB14*%
%TO.N,unconnected-(U1-PB14-Pad27)*%
X70000000Y-117750000D03*
%TO.P,U1,28,PB15*%
%TO.N,unconnected-(U1-PB15-Pad28)*%
X70000000Y-117250000D03*
%TO.P,U1,29,PA8*%
%TO.N,unconnected-(U1-PA8-Pad29)*%
X70000000Y-116750000D03*
%TO.P,U1,30,PA9*%
%TO.N,unconnected-(U1-PA9-Pad30)*%
X70000000Y-116250000D03*
%TO.P,U1,31,PA10*%
%TO.N,/USB_D +*%
X70000000Y-115750000D03*
%TO.P,U1,32,PA11*%
%TO.N,/USB_D -*%
X70000000Y-115250000D03*
%TO.P,U1,33,PA12*%
%TO.N,unconnected-(U1-PA12-Pad33)*%
X70000000Y-114750000D03*
D20*
%TO.P,U1,34,PA13*%
%TO.N,/SWDIO*%
X69062500Y-113812500D03*
%TO.P,U1,35,VSS*%
%TO.N,GND*%
X68562500Y-113812500D03*
%TO.P,U1,36,VDD*%
%TO.N,+3.3V*%
X68062500Y-113812500D03*
%TO.P,U1,37,PA14*%
%TO.N,/SWCLK*%
X67562500Y-113812500D03*
%TO.P,U1,38,PA15*%
%TO.N,unconnected-(U1-PA15-Pad38)*%
X67062500Y-113812500D03*
%TO.P,U1,39,PB3*%
%TO.N,unconnected-(U1-PB3-Pad39)*%
X66562500Y-113812500D03*
%TO.P,U1,40,PB4*%
%TO.N,unconnected-(U1-PB4-Pad40)*%
X66062500Y-113812500D03*
%TO.P,U1,41,PB5*%
%TO.N,unconnected-(U1-PB5-Pad41)*%
X65562500Y-113812500D03*
%TO.P,U1,42,PB6*%
%TO.N,/I2C_SCL*%
X65062500Y-113812500D03*
%TO.P,U1,43,PB7*%
%TO.N,/I2C_SDA*%
X64562500Y-113812500D03*
%TO.P,U1,44,BOOT0*%
%TO.N,/BOOTO*%
X64062500Y-113812500D03*
D21*
%TO.P,U1,45,PB8*%
%TO.N,unconnected-(U1-PB8-Pad45)*%
X66562500Y-117250000D03*
%TD*%
D22*
%TO.P,R3,1*%
%TO.N,+3.3V*%
X78800000Y-116800000D03*
%TO.P,R3,2*%
%TO.N,/USB_D +*%
X78800000Y-115780000D03*
%TD*%
D17*
%TO.P,C3,1*%
%TO.N,+3.3V*%
X72600000Y-113800000D03*
%TO.P,C3,2*%
%TO.N,GND*%
X73560000Y-113800000D03*
%TD*%
D23*
%TO.P,R5,1*%
%TO.N,Net-(D3-K)*%
X85110000Y-120600000D03*
%TO.P,R5,2*%
%TO.N,GND*%
X84090000Y-120600000D03*
%TD*%
D22*
%TO.P,R8,1*%
%TO.N,+3.3V*%
X77400000Y-107620000D03*
%TO.P,R8,2*%
%TO.N,/I2C_SCL*%
X77400000Y-106600000D03*
%TD*%
D24*
%TO.P,J5,A1,GND*%
%TO.N,GND*%
X87040000Y-118575000D03*
%TO.P,J5,A4,VBUS*%
%TO.N,VBUS*%
X87040000Y-117725000D03*
%TO.P,J5,A5,CC1*%
%TO.N,Net-(J5-CC1)*%
X87040000Y-116875000D03*
%TO.P,J5,A6,D+*%
%TO.N,/USB_D +*%
X87040000Y-116025000D03*
%TO.P,J5,A7,D-*%
%TO.N,/USB_D -*%
X87040000Y-115175000D03*
%TO.P,J5,A8*%
%TO.N,N/C*%
X87040000Y-114325000D03*
%TO.P,J5,A9,VBUS*%
%TO.N,VBUS*%
X87040000Y-113475000D03*
%TO.P,J5,A12,GND*%
%TO.N,GND*%
X87040000Y-112625000D03*
%TO.P,J5,B1,GND*%
X88390000Y-112625000D03*
%TO.P,J5,B4,VBUS*%
%TO.N,VBUS*%
X88390000Y-113475000D03*
%TO.P,J5,B5,CC2*%
%TO.N,Net-(J5-CC2)*%
X88390000Y-114325000D03*
%TO.P,J5,B6,D+*%
%TO.N,/USB_D +*%
X88390000Y-115175000D03*
%TO.P,J5,B7,D-*%
%TO.N,/USB_D -*%
X88390000Y-116025000D03*
%TO.P,J5,B8*%
%TO.N,N/C*%
X88390000Y-116875000D03*
%TO.P,J5,B9,VBUS*%
%TO.N,VBUS*%
X88390000Y-117725000D03*
%TO.P,J5,B12,GND*%
%TO.N,GND*%
X88390000Y-118575000D03*
D25*
%TO.P,J5,S1,SHIELD*%
%TO.N,unconnected-(J5-SHIELD-PadS1)*%
X88020000Y-119925000D03*
D26*
%TO.N,unconnected-(J5-SHIELD-PadS1)_3*%
X91400000Y-119925000D03*
D25*
%TO.N,unconnected-(J5-SHIELD-PadS1)_2*%
X88020000Y-111275000D03*
D26*
%TO.N,unconnected-(J5-SHIELD-PadS1)_1*%
X91400000Y-111275000D03*
%TD*%
D27*
%TO.P,J1,1,Pin_1*%
%TO.N,+3.3V*%
X82620000Y-96800000D03*
D28*
%TO.P,J1,2,Pin_2*%
%TO.N,/SWDIO*%
X80080000Y-96800000D03*
%TO.P,J1,3,Pin_3*%
%TO.N,/SWCLK*%
X77540000Y-96800000D03*
%TO.P,J1,4,Pin_4*%
%TO.N,GND*%
X75000000Y-96800000D03*
%TD*%
D29*
%TO.P,C10,1*%
%TO.N,/HSE_IN*%
X59800000Y-115760000D03*
%TO.P,C10,2*%
%TO.N,GND*%
X59800000Y-114800000D03*
%TD*%
%TO.P,C19,1*%
%TO.N,+3.3V*%
X83800000Y-127000000D03*
%TO.P,C19,2*%
%TO.N,GND*%
X83800000Y-126040000D03*
%TD*%
D23*
%TO.P,R7,1*%
%TO.N,+3.3V*%
X66110000Y-109000000D03*
%TO.P,R7,2*%
%TO.N,/I2C_SDA*%
X65090000Y-109000000D03*
%TD*%
D30*
%TO.P,C14,1*%
%TO.N,GND*%
X73200000Y-105240000D03*
%TO.P,C14,2*%
%TO.N,+3.3V*%
X73200000Y-106200000D03*
%TD*%
D18*
%TO.P,C7,1*%
%TO.N,+3.3VA*%
X60200000Y-123400000D03*
%TO.P,C7,2*%
%TO.N,GND*%
X59240000Y-123400000D03*
%TD*%
D31*
%TO.P,D2,1,K*%
%TO.N,Net-(D2-K)*%
X74275000Y-118250000D03*
%TO.P,D2,2,A*%
%TO.N,Net-(D2-A)*%
X72400000Y-118250000D03*
%TD*%
D30*
%TO.P,C8,1*%
%TO.N,+3.3V*%
X73200000Y-107240000D03*
%TO.P,C8,2*%
%TO.N,GND*%
X73200000Y-108200000D03*
%TD*%
D29*
%TO.P,C6,1*%
%TO.N,+3.3VA*%
X61400000Y-121200000D03*
%TO.P,C6,2*%
%TO.N,GND*%
X61400000Y-120240000D03*
%TD*%
D17*
%TO.P,C18,1*%
%TO.N,VBUS*%
X76500000Y-118250000D03*
%TO.P,C18,2*%
%TO.N,GND*%
X77460000Y-118250000D03*
%TD*%
D23*
%TO.P,R4,1*%
%TO.N,Net-(D2-K)*%
X73820000Y-121800000D03*
%TO.P,R4,2*%
%TO.N,GND*%
X72800000Y-121800000D03*
%TD*%
D32*
%TO.P,U3,1,GND*%
%TO.N,GND*%
X81300000Y-120450000D03*
%TO.P,U3,2,VO*%
%TO.N,+3.3V*%
X79000000Y-120450000D03*
D33*
X79000000Y-126750000D03*
D32*
%TO.P,U3,3,VI*%
%TO.N,VBUS*%
X76700000Y-120450000D03*
%TD*%
D27*
%TO.P,J6,1,Pin_1*%
%TO.N,+3.3V*%
X53000000Y-120500000D03*
D28*
%TO.P,J6,2,Pin_2*%
%TO.N,GND*%
X53000000Y-117960000D03*
%TO.P,J6,3,Pin_3*%
%TO.N,/I2C_SCL*%
X53000000Y-115420000D03*
%TO.P,J6,4,Pin_4*%
%TO.N,/I2C_SDA*%
X53000000Y-112880000D03*
%TD*%
D27*
%TO.P,J4,1,Pin_1*%
%TO.N,+3.3V*%
X69120000Y-96500000D03*
D28*
%TO.P,J4,2,Pin_2*%
%TO.N,/I2C_SCL*%
X66580000Y-96500000D03*
%TO.P,J4,3,Pin_3*%
%TO.N,/I2C_SDA*%
X64040000Y-96500000D03*
%TO.P,J4,4,Pin_4*%
%TO.N,GND*%
X61500000Y-96500000D03*
%TD*%
D30*
%TO.P,C9,1*%
%TO.N,/NRST*%
X59600000Y-119640000D03*
%TO.P,C9,2*%
%TO.N,GND*%
X59600000Y-120600000D03*
%TD*%
D27*
%TO.P,J3,1,Pin_1*%
%TO.N,+3.3V*%
X63460000Y-128000000D03*
D28*
%TO.P,J3,2,Pin_2*%
%TO.N,/UART_TX*%
X66000000Y-128000000D03*
%TO.P,J3,3,Pin_3*%
%TO.N,/UART_RX*%
X68540000Y-128000000D03*
%TO.P,J3,4,Pin_4*%
%TO.N,GND*%
X71080000Y-128000000D03*
%TD*%
D16*
%TO.P,R6,1*%
%TO.N,GND*%
X84600000Y-112490000D03*
%TO.P,R6,2*%
%TO.N,Net-(J5-CC2)*%
X84600000Y-113510000D03*
%TD*%
D30*
%TO.P,C4,1*%
%TO.N,+3.3V*%
X56800000Y-110240000D03*
%TO.P,C4,2*%
%TO.N,GND*%
X56800000Y-111200000D03*
%TD*%
D17*
%TO.P,C13,1*%
%TO.N,Net-(U2-CPOUT)*%
X70240000Y-102600000D03*
%TO.P,C13,2*%
%TO.N,GND*%
X71200000Y-102600000D03*
%TD*%
%TO.P,C5,1*%
%TO.N,+3.3V*%
X62800000Y-109400000D03*
%TO.P,C5,2*%
%TO.N,GND*%
X63760000Y-109400000D03*
%TD*%
D18*
%TO.P,C11,1*%
%TO.N,/HSE_OUT*%
X57560000Y-120270000D03*
%TO.P,C11,2*%
%TO.N,GND*%
X56600000Y-120270000D03*
%TD*%
D34*
%TO.P,D3,1,K*%
%TO.N,Net-(D3-K)*%
X86400000Y-125425000D03*
%TO.P,D3,2,A*%
%TO.N,+3.3V*%
X86400000Y-127000000D03*
%TD*%
D17*
%TO.P,C1,1*%
%TO.N,+3.3V*%
X62720000Y-111400000D03*
%TO.P,C1,2*%
%TO.N,GND*%
X63680000Y-111400000D03*
%TD*%
D35*
%TO.N,+3.3V*%
X74600000Y-114600000D03*
X78800000Y-107800000D03*
X62600000Y-107400000D03*
X65840380Y-110240380D03*
%TO.N,/BOOTO*%
X59400000Y-109000000D03*
X62400000Y-113050000D03*
%TO.N,Net-(J5-CC2)*%
X83400000Y-113600000D03*
X89400000Y-114300000D03*
%TO.N,GND*%
X63400000Y-101600000D03*
X67650000Y-101600000D03*
%TO.N,+3.3V*%
X71000000Y-118900000D03*
X72600000Y-116400000D03*
X72600000Y-114650000D03*
X66200000Y-107200000D03*
X68000000Y-109600000D03*
X63200000Y-125000000D03*
X71600000Y-120200000D03*
X68400000Y-112425000D03*
X72600000Y-112600000D03*
%TO.N,GND*%
X72200000Y-102600000D03*
X74400000Y-99000000D03*
X81400000Y-123000000D03*
X77800000Y-123000000D03*
X59400000Y-127200000D03*
%TO.N,/I2C_SCL*%
X66600000Y-112800000D03*
X55200000Y-114200000D03*
%TO.N,/I2C_SDA*%
X63800000Y-112400000D03*
X55600000Y-112800000D03*
%TO.N,/I2C_SCL*%
X72800000Y-101600000D03*
X75969669Y-102369669D03*
%TO.N,VBUS*%
X84600000Y-114400000D03*
X76600000Y-117000000D03*
%TO.N,/SWDIO*%
X80800000Y-99400000D03*
X72000000Y-111800000D03*
%TO.N,/SWCLK*%
X67600000Y-111800000D03*
X76800000Y-99400000D03*
%TO.N,/I2C_SDA*%
X68200000Y-102400000D03*
X65000000Y-107800000D03*
%TD*%
D36*
%TO.N,Net-(J5-CC1)*%
X85110000Y-117090000D02*
X85200000Y-117000000D01*
X85110000Y-118800000D02*
X85110000Y-117090000D01*
X85200000Y-117000000D02*
X85600000Y-117000000D01*
X85600000Y-117000000D02*
X86960000Y-116950000D01*
D37*
%TO.N,/USB_D +*%
X70000000Y-115750000D02*
X70049999Y-115700001D01*
X70049999Y-115700001D02*
X86715001Y-115700001D01*
X86715001Y-115700001D02*
X87040000Y-116025000D01*
D38*
%TO.N,VBUS*%
X84600000Y-114400000D02*
X86850000Y-113550000D01*
X86850000Y-113550000D02*
X90150000Y-113550000D01*
X90150000Y-113550000D02*
X90200000Y-113600000D01*
X90200000Y-113600000D02*
X90200000Y-117064974D01*
X90200000Y-117064974D02*
X89464974Y-117800000D01*
X89464974Y-117800000D02*
X87040000Y-117800000D01*
D36*
%TO.N,GND*%
X84600000Y-112490000D02*
X85310000Y-112490000D01*
X85310000Y-112490000D02*
X85520000Y-112700000D01*
X88390000Y-118575000D02*
X87040000Y-118650000D01*
X87040000Y-118650000D02*
X86000000Y-119600000D01*
X86000000Y-119600000D02*
X84090000Y-119600000D01*
D38*
%TO.N,+3.3V*%
X74600000Y-114600000D02*
X72650000Y-114600000D01*
X72650000Y-114600000D02*
X72600000Y-114650000D01*
X77400000Y-107620000D02*
X78620000Y-107620000D01*
X78620000Y-107620000D02*
X78800000Y-107800000D01*
D36*
%TO.N,GND*%
X73200000Y-108200000D02*
X73241000Y-108241000D01*
X84800000Y-109200000D02*
X84800000Y-94800000D01*
X73241000Y-108241000D02*
X84800000Y-109200000D01*
X84800000Y-94800000D02*
X77000000Y-94800000D01*
X77000000Y-94800000D02*
X75000000Y-96800000D01*
D38*
%TO.N,+3.3V*%
X73200000Y-106200000D02*
X73200000Y-107240000D01*
D36*
X66110000Y-109000000D02*
X66110000Y-109970760D01*
X66110000Y-109970760D02*
X65840380Y-110240380D01*
X62600000Y-107400000D02*
X62600000Y-109200000D01*
X62600000Y-109200000D02*
X62800000Y-109400000D01*
D38*
X62720000Y-111400000D02*
X62720000Y-109480000D01*
X62720000Y-109480000D02*
X62800000Y-109400000D01*
D36*
%TO.N,/BOOTO*%
X59400000Y-109000000D02*
X59400000Y-107620000D01*
X64062500Y-113812500D02*
X63162500Y-113812500D01*
X59400000Y-107620000D02*
X59200000Y-107420000D01*
X63162500Y-113812500D02*
X62400000Y-113050000D01*
D38*
%TO.N,+3.3V*%
X61800000Y-114800000D02*
X61926000Y-114674000D01*
X61926000Y-114674000D02*
X63125000Y-114674000D01*
X61200000Y-114800000D02*
X61800000Y-114800000D01*
X62600000Y-111400000D02*
X61200000Y-112800000D01*
X62720000Y-111400000D02*
X62600000Y-111400000D01*
X61200000Y-112800000D02*
X61200000Y-114800000D01*
X74600000Y-100800000D02*
X75600000Y-106200000D01*
X75600000Y-106200000D02*
X73200000Y-106200000D01*
D36*
%TO.N,/USB_D -*%
X88390000Y-116025000D02*
X88225000Y-116025000D01*
X88225000Y-116025000D02*
X87375000Y-115175000D01*
X87375000Y-115175000D02*
X87040000Y-115175000D01*
D37*
X70000000Y-115250000D02*
X78389660Y-115250000D01*
X85525057Y-115175000D02*
X85551057Y-115201000D01*
X78389660Y-115250000D02*
X78464660Y-115175000D01*
X78464660Y-115175000D02*
X85525057Y-115175000D01*
X85551057Y-115201000D02*
X86048943Y-115201000D01*
X86074943Y-115175000D02*
X87463000Y-115175000D01*
X86048943Y-115201000D02*
X86074943Y-115175000D01*
D36*
%TO.N,Net-(J5-CC2)*%
X83400000Y-113600000D02*
X84600000Y-113600000D01*
X89375000Y-114325000D02*
X89400000Y-114300000D01*
X88390000Y-114325000D02*
X89375000Y-114325000D01*
%TO.N,+3.3V*%
X68400000Y-112425000D02*
X68400000Y-110000000D01*
%TO.N,GND*%
X70000000Y-112800000D02*
X70000000Y-111000000D01*
X68562500Y-113237500D02*
X69000000Y-112800000D01*
X68562500Y-113812500D02*
X68562500Y-113237500D01*
X69000000Y-112800000D02*
X70000000Y-112800000D01*
X71589999Y-111000000D02*
X72280000Y-110309999D01*
X70000000Y-111000000D02*
X71589999Y-111000000D01*
X72280000Y-110309999D02*
X72280000Y-110000000D01*
%TO.N,/SWDIO*%
X71400000Y-112400000D02*
X71400000Y-113600000D01*
X72000000Y-111800000D02*
X71400000Y-112400000D01*
X71400000Y-113600000D02*
X70400000Y-113600000D01*
X70400000Y-113600000D02*
X69200000Y-113675000D01*
X69200000Y-113675000D02*
X69062500Y-113812500D01*
%TO.N,GND*%
X59600000Y-120600000D02*
X61040000Y-120600000D01*
X61040000Y-120600000D02*
X61400000Y-120240000D01*
D38*
%TO.N,+3.3V*%
X56800000Y-123800000D02*
X56800000Y-128200000D01*
D36*
X68000000Y-109600000D02*
X68400000Y-110000000D01*
%TO.N,GND*%
X72800000Y-102600000D02*
X73200000Y-103000000D01*
X72200000Y-102600000D02*
X72800000Y-102600000D01*
X73200000Y-103000000D02*
X73200000Y-105240000D01*
X61500000Y-101600000D02*
X61500000Y-103150000D01*
X67800000Y-104700000D02*
X67549000Y-104449000D01*
X67549000Y-104449000D02*
X67549000Y-101701000D01*
X67549000Y-101701000D02*
X67650000Y-101600000D01*
X63400000Y-101600000D02*
X61500000Y-101600000D01*
X71700000Y-104700000D02*
X72660000Y-104700000D01*
X72660000Y-104700000D02*
X73200000Y-105240000D01*
X70500000Y-107900000D02*
X70500000Y-109100000D01*
X70500000Y-109100000D02*
X70600000Y-109200000D01*
X70600000Y-109200000D02*
X72400000Y-109200000D01*
X72400000Y-109200000D02*
X72280000Y-110000000D01*
%TO.N,Net-(D2-K)*%
X73820000Y-121800000D02*
X73820000Y-120220000D01*
X73820000Y-120220000D02*
X73800000Y-120200000D01*
X74275000Y-120075000D02*
X74275000Y-118250000D01*
X73800000Y-120200000D02*
X74200000Y-120200000D01*
X74200000Y-120200000D02*
X74275000Y-120075000D01*
%TO.N,+3.3V*%
X70650000Y-119250000D02*
X71000000Y-119600000D01*
X71000000Y-118900000D02*
X71000000Y-119600000D01*
%TO.N,GND*%
X53000000Y-117960000D02*
X55200000Y-117960000D01*
X56949000Y-114949000D02*
X55694130Y-114949000D01*
X58000000Y-116000000D02*
X56949000Y-114949000D01*
X55200000Y-115443130D02*
X55200000Y-117960000D01*
X55694130Y-114949000D02*
X55200000Y-115443130D01*
X85520000Y-112700000D02*
X88730000Y-112700000D01*
%TO.N,+3.3V*%
X72600000Y-113800000D02*
X72600000Y-114650000D01*
X72800000Y-116200000D02*
X78200000Y-116200000D01*
X72600000Y-116400000D02*
X72800000Y-116200000D01*
X78200000Y-116200000D02*
X78800000Y-116800000D01*
X66200000Y-108910000D02*
X66110000Y-109000000D01*
X66200000Y-107200000D02*
X66200000Y-108910000D01*
X69000000Y-108600000D02*
X68000000Y-109600000D01*
X69000000Y-107900000D02*
X69000000Y-108600000D01*
X70000000Y-119250000D02*
X70650000Y-119250000D01*
X63200000Y-125000000D02*
X63460000Y-125260000D01*
X71000000Y-119600000D02*
X71600000Y-120200000D01*
X63460000Y-125260000D02*
X63460000Y-128000000D01*
X68062500Y-113637500D02*
X68062500Y-112762500D01*
X68062500Y-112762500D02*
X68400000Y-112425000D01*
X72600000Y-112600000D02*
X72600000Y-113800000D01*
%TO.N,Net-(U2-CPOUT)*%
X70500000Y-104000000D02*
X70500000Y-102860000D01*
X70500000Y-102860000D02*
X70240000Y-102600000D01*
%TO.N,GND*%
X72200000Y-102600000D02*
X71200000Y-102600000D01*
X75000000Y-96500000D02*
X75000000Y-98400000D01*
X75000000Y-98400000D02*
X74400000Y-99000000D01*
X61400000Y-120240000D02*
X61400000Y-118800000D01*
X61400000Y-118800000D02*
X61950000Y-118250000D01*
X61950000Y-118250000D02*
X63125000Y-118250000D01*
X59800000Y-114800000D02*
X58000000Y-114800000D01*
X58000000Y-114800000D02*
X58000000Y-116000000D01*
X56800000Y-111200000D02*
X59800000Y-111200000D01*
X59800000Y-111200000D02*
X59800000Y-114800000D01*
X63680000Y-111600000D02*
X63680000Y-109480000D01*
X63680000Y-109480000D02*
X63760000Y-109400000D01*
X54260000Y-103250000D02*
X61600000Y-103250000D01*
X61500000Y-96500000D02*
X61500000Y-101600000D01*
X61500000Y-103150000D02*
X61600000Y-103250000D01*
X63450000Y-103250000D02*
X64000000Y-103800000D01*
X61600000Y-103250000D02*
X63450000Y-103250000D01*
X64000000Y-103800000D02*
X63760000Y-104040000D01*
X63760000Y-104040000D02*
X63760000Y-109400000D01*
X73200000Y-110000000D02*
X73469630Y-110000000D01*
X73469630Y-110000000D02*
X73600000Y-110130370D01*
X73600000Y-110600000D02*
X73560000Y-113800000D01*
X73600000Y-110130370D02*
X73600000Y-110600000D01*
X72280000Y-110000000D02*
X73200000Y-110000000D01*
X73200000Y-108200000D02*
X73200000Y-110000000D01*
%TO.N,Net-(U2-REGOUT)*%
X70000000Y-110000000D02*
X71320000Y-110000000D01*
X70000000Y-107900000D02*
X70000000Y-110000000D01*
%TO.N,GND*%
X81400000Y-120550000D02*
X81300000Y-120450000D01*
X77460000Y-118250000D02*
X77800000Y-118590000D01*
X77800000Y-118590000D02*
X77800000Y-123000000D01*
X81400000Y-123000000D02*
X81400000Y-120550000D01*
X71080000Y-128000000D02*
X72800000Y-126280000D01*
X72800000Y-126280000D02*
X72800000Y-121800000D01*
X59400000Y-126400000D02*
X59400000Y-127200000D01*
X59240000Y-123400000D02*
X59240000Y-126240000D01*
X59240000Y-126240000D02*
X59400000Y-126400000D01*
X59600000Y-121000000D02*
X59200000Y-121400000D01*
X59600000Y-120600000D02*
X59600000Y-121000000D01*
X59200000Y-121400000D02*
X59240000Y-121440000D01*
X59240000Y-121440000D02*
X59240000Y-123400000D01*
%TO.N,/I2C_SCL*%
X65062500Y-112800000D02*
X65062500Y-111937500D01*
X53000000Y-115420000D02*
X53980000Y-115420000D01*
X66600000Y-112800000D02*
X65062500Y-112800000D01*
X53980000Y-115420000D02*
X55200000Y-114200000D01*
%TO.N,/I2C_SDA*%
X53000000Y-112880000D02*
X55520000Y-112880000D01*
X55520000Y-112880000D02*
X55600000Y-112800000D01*
X64562500Y-111637500D02*
X64562500Y-112800000D01*
X63800000Y-112400000D02*
X64562500Y-112400000D01*
D38*
%TO.N,+3.3V*%
X60360000Y-126400000D02*
X60360000Y-128160000D01*
X60360000Y-128160000D02*
X60400000Y-128200000D01*
X60400000Y-128200000D02*
X56800000Y-128200000D01*
X56800000Y-123800000D02*
X53000000Y-123800000D01*
X53000000Y-123800000D02*
X52800000Y-123600000D01*
X52800000Y-123600000D02*
X53000000Y-120500000D01*
X63460000Y-128000000D02*
X61960000Y-128000000D01*
X61960000Y-128000000D02*
X60360000Y-126400000D01*
D36*
%TO.N,/I2C_SCL*%
X69000000Y-101600000D02*
X69000000Y-100000000D01*
X77400000Y-106600000D02*
X77400000Y-103800000D01*
X77400000Y-103800000D02*
X75969669Y-102369669D01*
X72800000Y-101600000D02*
X69000000Y-101600000D01*
D38*
%TO.N,VBUS*%
X76700000Y-120450000D02*
X76500000Y-118250000D01*
X76500000Y-118250000D02*
X76500000Y-117100000D01*
X76500000Y-117100000D02*
X76600000Y-117000000D01*
D36*
%TO.N,GND*%
X84090000Y-118800000D02*
X84090000Y-119600000D01*
X81300000Y-120450000D02*
X83940000Y-120450000D01*
X83940000Y-120450000D02*
X84090000Y-120600000D01*
X84090000Y-119600000D02*
X84090000Y-125750000D01*
X84090000Y-125750000D02*
X83800000Y-126040000D01*
D38*
%TO.N,+3.3V*%
X86400000Y-127000000D02*
X79250000Y-127000000D01*
X79250000Y-127000000D02*
X79000000Y-126750000D01*
X78800000Y-116800000D02*
X78800000Y-126550000D01*
X78800000Y-126550000D02*
X79000000Y-126750000D01*
D36*
%TO.N,/SWDIO*%
X80080000Y-96500000D02*
X80080000Y-98680000D01*
X80080000Y-98680000D02*
X80800000Y-99400000D01*
%TO.N,/SWCLK*%
X67562500Y-113812500D02*
X67562500Y-111837500D01*
X67562500Y-111837500D02*
X67600000Y-111800000D01*
D38*
X77540000Y-96500000D02*
X77540000Y-98660000D01*
X77540000Y-98660000D02*
X76800000Y-99400000D01*
%TO.N,+3.3V*%
X82620000Y-100780000D02*
X82600000Y-100800000D01*
X82620000Y-96500000D02*
X82620000Y-100780000D01*
X82600000Y-100800000D02*
X74600000Y-100800000D01*
X69120000Y-96500000D02*
X73420000Y-100800000D01*
X73420000Y-100800000D02*
X74600000Y-100800000D01*
D36*
%TO.N,/I2C_SDA*%
X64040000Y-96500000D02*
X65000000Y-97460000D01*
X65000000Y-97460000D02*
X65000000Y-107800000D01*
X65090000Y-107890000D02*
X65000000Y-107800000D01*
X65090000Y-109000000D02*
X65090000Y-107890000D01*
X68200000Y-102400000D02*
X68200000Y-103700000D01*
X68200000Y-103700000D02*
X68500000Y-104000000D01*
%TO.N,/I2C_SCL*%
X69000000Y-104000000D02*
X69000000Y-101600000D01*
X67000000Y-110000000D02*
X67000000Y-100000000D01*
X69000000Y-100000000D02*
X67000000Y-100000000D01*
X65062500Y-111937500D02*
X67000000Y-110000000D01*
X65062500Y-113812500D02*
X65062500Y-112800000D01*
X67000000Y-100000000D02*
X67000000Y-96920000D01*
X67000000Y-96920000D02*
X66580000Y-96500000D01*
%TO.N,/I2C_SDA*%
X65090000Y-109000000D02*
X65090000Y-111110000D01*
X65090000Y-111110000D02*
X64562500Y-111637500D01*
X64562500Y-112800000D02*
X64562500Y-113812500D01*
D38*
%TO.N,+3.3V*%
X77400000Y-107620000D02*
X77080001Y-107620000D01*
X77080001Y-107620000D02*
X76700001Y-107240000D01*
X76700001Y-107240000D02*
X73200000Y-107240000D01*
X73200000Y-107240000D02*
X73139000Y-107301000D01*
X73139000Y-107301000D02*
X71700000Y-107301000D01*
X54260000Y-107750000D02*
X54310000Y-107750000D01*
X54310000Y-107750000D02*
X56800000Y-110240000D01*
X56800000Y-110240000D02*
X61960000Y-110240000D01*
X61960000Y-110240000D02*
X62800000Y-109400000D01*
D36*
%TO.N,/sw_booto*%
X59200000Y-106400000D02*
X54410000Y-106400000D01*
X54410000Y-106400000D02*
X54260000Y-106250000D01*
%TO.N,Net-(D2-K)*%
X73937500Y-121682500D02*
X73820000Y-121800000D01*
%TO.N,Net-(D2-A)*%
X72062500Y-118250000D02*
X70000000Y-118250000D01*
%TO.N,Net-(D3-K)*%
X85110000Y-120600000D02*
X85110000Y-122910000D01*
X85200000Y-123000000D02*
X86400000Y-123000000D01*
X85110000Y-122910000D02*
X85200000Y-123000000D01*
X86400000Y-123000000D02*
X86400000Y-125425000D01*
%TO.N,GND*%
X72800000Y-121800000D02*
X72050000Y-121800000D01*
X72050000Y-121800000D02*
X70000000Y-119750000D01*
%TO.N,/UART_RX*%
X65800000Y-125260000D02*
X65800000Y-122600000D01*
X68540000Y-128000000D02*
X65800000Y-125260000D01*
X65800000Y-122600000D02*
X64562500Y-121362500D01*
X64562500Y-121362500D02*
X64562500Y-120687500D01*
%TO.N,/UART_TX*%
X66000000Y-128000000D02*
X64062500Y-126062500D01*
X64062500Y-126062500D02*
X64062500Y-120687500D01*
%TO.N,GND*%
X55200000Y-117960000D02*
X56060000Y-117960000D01*
X56060000Y-117960000D02*
X56300000Y-118200000D01*
X56300000Y-118200000D02*
X56300000Y-119970000D01*
X56300000Y-119970000D02*
X56600000Y-120270000D01*
%TO.N,/HSE_OUT*%
X57560000Y-120240000D02*
X58000000Y-119800000D01*
X57560000Y-120270000D02*
X57560000Y-120240000D01*
X58000000Y-119800000D02*
X58000000Y-118200000D01*
%TO.N,+3.3VA*%
X60200000Y-123400000D02*
X61400000Y-123400000D01*
X61400000Y-123400000D02*
X61400000Y-121200000D01*
X62200000Y-121000000D02*
X62200000Y-118800000D01*
X61400000Y-121200000D02*
X62000000Y-121200000D01*
X62000000Y-121200000D02*
X62200000Y-121000000D01*
X62200000Y-118800000D02*
X62250000Y-118750000D01*
X62250000Y-118750000D02*
X63125000Y-118750000D01*
%TO.N,/HSE_IN*%
X56300000Y-116000000D02*
X56300000Y-116700000D01*
X56300000Y-116700000D02*
X56651000Y-117051000D01*
X56651000Y-117051000D02*
X59749000Y-117051000D01*
X59749000Y-117051000D02*
X59800000Y-117000000D01*
X59800000Y-117000000D02*
X59800000Y-115760000D01*
%TO.N,/HSE_OUT*%
X60750000Y-117250000D02*
X59800000Y-118200000D01*
X63125000Y-117250000D02*
X60750000Y-117250000D01*
X59800000Y-118200000D02*
X58000000Y-118200000D01*
%TO.N,/NRST*%
X59600000Y-119640000D02*
X61490000Y-117750000D01*
X61490000Y-117750000D02*
X63125000Y-117750000D01*
%TO.N,/HSE_IN*%
X59800000Y-115760000D02*
X60790000Y-116750000D01*
X60790000Y-116750000D02*
X63125000Y-116750000D01*
%TD*%
%TA.AperFunction,Conductor*%
%TO.N,GND*%
G36*
X81851257Y-117853445D02*
G01*
X81896343Y-117906822D01*
X81905415Y-117976100D01*
X81893818Y-118012362D01*
X81799999Y-118199999D01*
X81800000Y-118200000D01*
X84268639Y-118200000D01*
X84335678Y-118219685D01*
X84381433Y-118272489D01*
X84391377Y-118341647D01*
X84387715Y-118358595D01*
X84342335Y-118514791D01*
X84342334Y-118514797D01*
X84339500Y-118550811D01*
X84339500Y-119049169D01*
X84339501Y-119049191D01*
X84342335Y-119085205D01*
X84387129Y-119239388D01*
X84387131Y-119239393D01*
X84468865Y-119377598D01*
X84531262Y-119439995D01*
X84564746Y-119501316D01*
X84567543Y-119530698D01*
X84558927Y-119883962D01*
X84537614Y-119950502D01*
X84522647Y-119968619D01*
X84468865Y-120022401D01*
X84468861Y-120022407D01*
X84387131Y-120160606D01*
X84387129Y-120160611D01*
X84342335Y-120314791D01*
X84342334Y-120314797D01*
X84339500Y-120350811D01*
X84339500Y-120849169D01*
X84339501Y-120849191D01*
X84342334Y-120885200D01*
X84387131Y-121039393D01*
X84442232Y-121132563D01*
X84459500Y-121195684D01*
X84459500Y-122974070D01*
X84477402Y-123064063D01*
X84477408Y-123064092D01*
X84478255Y-123068355D01*
X84480595Y-123095543D01*
X84427878Y-125256977D01*
X84406621Y-126128525D01*
X84385309Y-126195063D01*
X84331405Y-126239517D01*
X84282659Y-126249500D01*
X84182066Y-126249500D01*
X84147471Y-126244576D01*
X84117929Y-126235993D01*
X84070994Y-126222357D01*
X84070991Y-126222356D01*
X84034697Y-126219500D01*
X84034690Y-126219500D01*
X83565310Y-126219500D01*
X83565302Y-126219500D01*
X83529008Y-126222356D01*
X83529005Y-126222357D01*
X83470835Y-126239257D01*
X83452528Y-126244576D01*
X83417934Y-126249500D01*
X81994982Y-126249500D01*
X81927943Y-126229815D01*
X81885392Y-126183518D01*
X80214410Y-123027218D01*
X80200000Y-122969200D01*
X80200000Y-121400477D01*
X80203666Y-121370550D01*
X80247598Y-121193897D01*
X80247597Y-121193897D01*
X80247600Y-121193889D01*
X80250500Y-121151123D01*
X80250499Y-119748878D01*
X80247600Y-119706111D01*
X80203664Y-119529444D01*
X80200000Y-119499521D01*
X80200000Y-118868727D01*
X80219685Y-118801688D01*
X80258280Y-118763575D01*
X80598702Y-118550811D01*
X81717191Y-117851755D01*
X81784471Y-117832918D01*
X81851257Y-117853445D01*
G37*
%TD.AperFunction*%
%TD*%
M02*
