%TF.GenerationSoftware,KiCad,Pcbnew,9.0.6-9.0.6~ubuntu24.04.1*%
%TF.CreationDate,2026-05-12T03:12:16-04:00*%
%TF.ProjectId,Stm32-pcb,53746d33-322d-4706-9362-2e6b69636164,rev?*%
%TF.SameCoordinates,Original*%
%TF.FileFunction,Legend,Top*%
%TF.FilePolarity,Positive*%
%FSLAX46Y46*%
G04 Gerber Fmt 4.6, Leading zero omitted, Abs format (unit mm)*
G04 Created by KiCad (PCBNEW 9.0.6-9.0.6~ubuntu24.04.1) date 2026-05-12 03:12:16*
%MOMM*%
%LPD*%
G01*
G04 APERTURE LIST*
%ADD10C,0.100000*%
%ADD11C,0.150000*%
%ADD12C,0.000000*%
%ADD13C,0.120000*%
G04 APERTURE END LIST*
D10*
X51887217Y-100348609D02*
X52030074Y-100396228D01*
X52030074Y-100396228D02*
X52077693Y-100443847D01*
X52077693Y-100443847D02*
X52125312Y-100539085D01*
X52125312Y-100539085D02*
X52125312Y-100681942D01*
X52125312Y-100681942D02*
X52077693Y-100777180D01*
X52077693Y-100777180D02*
X52030074Y-100824800D01*
X52030074Y-100824800D02*
X51934836Y-100872419D01*
X51934836Y-100872419D02*
X51553884Y-100872419D01*
X51553884Y-100872419D02*
X51553884Y-99872419D01*
X51553884Y-99872419D02*
X51887217Y-99872419D01*
X51887217Y-99872419D02*
X51982455Y-99920038D01*
X51982455Y-99920038D02*
X52030074Y-99967657D01*
X52030074Y-99967657D02*
X52077693Y-100062895D01*
X52077693Y-100062895D02*
X52077693Y-100158133D01*
X52077693Y-100158133D02*
X52030074Y-100253371D01*
X52030074Y-100253371D02*
X51982455Y-100300990D01*
X51982455Y-100300990D02*
X51887217Y-100348609D01*
X51887217Y-100348609D02*
X51553884Y-100348609D01*
X52744360Y-99872419D02*
X52934836Y-99872419D01*
X52934836Y-99872419D02*
X53030074Y-99920038D01*
X53030074Y-99920038D02*
X53125312Y-100015276D01*
X53125312Y-100015276D02*
X53172931Y-100205752D01*
X53172931Y-100205752D02*
X53172931Y-100539085D01*
X53172931Y-100539085D02*
X53125312Y-100729561D01*
X53125312Y-100729561D02*
X53030074Y-100824800D01*
X53030074Y-100824800D02*
X52934836Y-100872419D01*
X52934836Y-100872419D02*
X52744360Y-100872419D01*
X52744360Y-100872419D02*
X52649122Y-100824800D01*
X52649122Y-100824800D02*
X52553884Y-100729561D01*
X52553884Y-100729561D02*
X52506265Y-100539085D01*
X52506265Y-100539085D02*
X52506265Y-100205752D01*
X52506265Y-100205752D02*
X52553884Y-100015276D01*
X52553884Y-100015276D02*
X52649122Y-99920038D01*
X52649122Y-99920038D02*
X52744360Y-99872419D01*
X53791979Y-99872419D02*
X53982455Y-99872419D01*
X53982455Y-99872419D02*
X54077693Y-99920038D01*
X54077693Y-99920038D02*
X54172931Y-100015276D01*
X54172931Y-100015276D02*
X54220550Y-100205752D01*
X54220550Y-100205752D02*
X54220550Y-100539085D01*
X54220550Y-100539085D02*
X54172931Y-100729561D01*
X54172931Y-100729561D02*
X54077693Y-100824800D01*
X54077693Y-100824800D02*
X53982455Y-100872419D01*
X53982455Y-100872419D02*
X53791979Y-100872419D01*
X53791979Y-100872419D02*
X53696741Y-100824800D01*
X53696741Y-100824800D02*
X53601503Y-100729561D01*
X53601503Y-100729561D02*
X53553884Y-100539085D01*
X53553884Y-100539085D02*
X53553884Y-100205752D01*
X53553884Y-100205752D02*
X53601503Y-100015276D01*
X53601503Y-100015276D02*
X53696741Y-99920038D01*
X53696741Y-99920038D02*
X53791979Y-99872419D01*
X54506265Y-99872419D02*
X55077693Y-99872419D01*
X54791979Y-100872419D02*
X54791979Y-99872419D01*
X57803884Y-127872419D02*
X57803884Y-128681942D01*
X57803884Y-128681942D02*
X57851503Y-128777180D01*
X57851503Y-128777180D02*
X57899122Y-128824800D01*
X57899122Y-128824800D02*
X57994360Y-128872419D01*
X57994360Y-128872419D02*
X58184836Y-128872419D01*
X58184836Y-128872419D02*
X58280074Y-128824800D01*
X58280074Y-128824800D02*
X58327693Y-128777180D01*
X58327693Y-128777180D02*
X58375312Y-128681942D01*
X58375312Y-128681942D02*
X58375312Y-127872419D01*
X58803884Y-128586704D02*
X59280074Y-128586704D01*
X58708646Y-128872419D02*
X59041979Y-127872419D01*
X59041979Y-127872419D02*
X59375312Y-128872419D01*
X60280074Y-128872419D02*
X59946741Y-128396228D01*
X59708646Y-128872419D02*
X59708646Y-127872419D01*
X59708646Y-127872419D02*
X60089598Y-127872419D01*
X60089598Y-127872419D02*
X60184836Y-127920038D01*
X60184836Y-127920038D02*
X60232455Y-127967657D01*
X60232455Y-127967657D02*
X60280074Y-128062895D01*
X60280074Y-128062895D02*
X60280074Y-128205752D01*
X60280074Y-128205752D02*
X60232455Y-128300990D01*
X60232455Y-128300990D02*
X60184836Y-128348609D01*
X60184836Y-128348609D02*
X60089598Y-128396228D01*
X60089598Y-128396228D02*
X59708646Y-128396228D01*
X60565789Y-127872419D02*
X61137217Y-127872419D01*
X60851503Y-128872419D02*
X60851503Y-127872419D01*
X77006265Y-99574800D02*
X77149122Y-99622419D01*
X77149122Y-99622419D02*
X77387217Y-99622419D01*
X77387217Y-99622419D02*
X77482455Y-99574800D01*
X77482455Y-99574800D02*
X77530074Y-99527180D01*
X77530074Y-99527180D02*
X77577693Y-99431942D01*
X77577693Y-99431942D02*
X77577693Y-99336704D01*
X77577693Y-99336704D02*
X77530074Y-99241466D01*
X77530074Y-99241466D02*
X77482455Y-99193847D01*
X77482455Y-99193847D02*
X77387217Y-99146228D01*
X77387217Y-99146228D02*
X77196741Y-99098609D01*
X77196741Y-99098609D02*
X77101503Y-99050990D01*
X77101503Y-99050990D02*
X77053884Y-99003371D01*
X77053884Y-99003371D02*
X77006265Y-98908133D01*
X77006265Y-98908133D02*
X77006265Y-98812895D01*
X77006265Y-98812895D02*
X77053884Y-98717657D01*
X77053884Y-98717657D02*
X77101503Y-98670038D01*
X77101503Y-98670038D02*
X77196741Y-98622419D01*
X77196741Y-98622419D02*
X77434836Y-98622419D01*
X77434836Y-98622419D02*
X77577693Y-98670038D01*
X77911027Y-98622419D02*
X78149122Y-99622419D01*
X78149122Y-99622419D02*
X78339598Y-98908133D01*
X78339598Y-98908133D02*
X78530074Y-99622419D01*
X78530074Y-99622419D02*
X78768170Y-98622419D01*
X79149122Y-99622419D02*
X79149122Y-98622419D01*
X79149122Y-98622419D02*
X79387217Y-98622419D01*
X79387217Y-98622419D02*
X79530074Y-98670038D01*
X79530074Y-98670038D02*
X79625312Y-98765276D01*
X79625312Y-98765276D02*
X79672931Y-98860514D01*
X79672931Y-98860514D02*
X79720550Y-99050990D01*
X79720550Y-99050990D02*
X79720550Y-99193847D01*
X79720550Y-99193847D02*
X79672931Y-99384323D01*
X79672931Y-99384323D02*
X79625312Y-99479561D01*
X79625312Y-99479561D02*
X79530074Y-99574800D01*
X79530074Y-99574800D02*
X79387217Y-99622419D01*
X79387217Y-99622419D02*
X79149122Y-99622419D01*
X63803884Y-99622419D02*
X63803884Y-98622419D01*
X64232455Y-98717657D02*
X64280074Y-98670038D01*
X64280074Y-98670038D02*
X64375312Y-98622419D01*
X64375312Y-98622419D02*
X64613407Y-98622419D01*
X64613407Y-98622419D02*
X64708645Y-98670038D01*
X64708645Y-98670038D02*
X64756264Y-98717657D01*
X64756264Y-98717657D02*
X64803883Y-98812895D01*
X64803883Y-98812895D02*
X64803883Y-98908133D01*
X64803883Y-98908133D02*
X64756264Y-99050990D01*
X64756264Y-99050990D02*
X64184836Y-99622419D01*
X64184836Y-99622419D02*
X64803883Y-99622419D01*
X65803883Y-99527180D02*
X65756264Y-99574800D01*
X65756264Y-99574800D02*
X65613407Y-99622419D01*
X65613407Y-99622419D02*
X65518169Y-99622419D01*
X65518169Y-99622419D02*
X65375312Y-99574800D01*
X65375312Y-99574800D02*
X65280074Y-99479561D01*
X65280074Y-99479561D02*
X65232455Y-99384323D01*
X65232455Y-99384323D02*
X65184836Y-99193847D01*
X65184836Y-99193847D02*
X65184836Y-99050990D01*
X65184836Y-99050990D02*
X65232455Y-98860514D01*
X65232455Y-98860514D02*
X65280074Y-98765276D01*
X65280074Y-98765276D02*
X65375312Y-98670038D01*
X65375312Y-98670038D02*
X65518169Y-98622419D01*
X65518169Y-98622419D02*
X65613407Y-98622419D01*
X65613407Y-98622419D02*
X65756264Y-98670038D01*
X65756264Y-98670038D02*
X65803883Y-98717657D01*
X52053884Y-123622419D02*
X52053884Y-122622419D01*
X52482455Y-122717657D02*
X52530074Y-122670038D01*
X52530074Y-122670038D02*
X52625312Y-122622419D01*
X52625312Y-122622419D02*
X52863407Y-122622419D01*
X52863407Y-122622419D02*
X52958645Y-122670038D01*
X52958645Y-122670038D02*
X53006264Y-122717657D01*
X53006264Y-122717657D02*
X53053883Y-122812895D01*
X53053883Y-122812895D02*
X53053883Y-122908133D01*
X53053883Y-122908133D02*
X53006264Y-123050990D01*
X53006264Y-123050990D02*
X52434836Y-123622419D01*
X52434836Y-123622419D02*
X53053883Y-123622419D01*
X54053883Y-123527180D02*
X54006264Y-123574800D01*
X54006264Y-123574800D02*
X53863407Y-123622419D01*
X53863407Y-123622419D02*
X53768169Y-123622419D01*
X53768169Y-123622419D02*
X53625312Y-123574800D01*
X53625312Y-123574800D02*
X53530074Y-123479561D01*
X53530074Y-123479561D02*
X53482455Y-123384323D01*
X53482455Y-123384323D02*
X53434836Y-123193847D01*
X53434836Y-123193847D02*
X53434836Y-123050990D01*
X53434836Y-123050990D02*
X53482455Y-122860514D01*
X53482455Y-122860514D02*
X53530074Y-122765276D01*
X53530074Y-122765276D02*
X53625312Y-122670038D01*
X53625312Y-122670038D02*
X53768169Y-122622419D01*
X53768169Y-122622419D02*
X53863407Y-122622419D01*
X53863407Y-122622419D02*
X54006264Y-122670038D01*
X54006264Y-122670038D02*
X54053883Y-122717657D01*
X87903884Y-108472419D02*
X87903884Y-109281942D01*
X87903884Y-109281942D02*
X87951503Y-109377180D01*
X87951503Y-109377180D02*
X87999122Y-109424800D01*
X87999122Y-109424800D02*
X88094360Y-109472419D01*
X88094360Y-109472419D02*
X88284836Y-109472419D01*
X88284836Y-109472419D02*
X88380074Y-109424800D01*
X88380074Y-109424800D02*
X88427693Y-109377180D01*
X88427693Y-109377180D02*
X88475312Y-109281942D01*
X88475312Y-109281942D02*
X88475312Y-108472419D01*
X88903884Y-109424800D02*
X89046741Y-109472419D01*
X89046741Y-109472419D02*
X89284836Y-109472419D01*
X89284836Y-109472419D02*
X89380074Y-109424800D01*
X89380074Y-109424800D02*
X89427693Y-109377180D01*
X89427693Y-109377180D02*
X89475312Y-109281942D01*
X89475312Y-109281942D02*
X89475312Y-109186704D01*
X89475312Y-109186704D02*
X89427693Y-109091466D01*
X89427693Y-109091466D02*
X89380074Y-109043847D01*
X89380074Y-109043847D02*
X89284836Y-108996228D01*
X89284836Y-108996228D02*
X89094360Y-108948609D01*
X89094360Y-108948609D02*
X88999122Y-108900990D01*
X88999122Y-108900990D02*
X88951503Y-108853371D01*
X88951503Y-108853371D02*
X88903884Y-108758133D01*
X88903884Y-108758133D02*
X88903884Y-108662895D01*
X88903884Y-108662895D02*
X88951503Y-108567657D01*
X88951503Y-108567657D02*
X88999122Y-108520038D01*
X88999122Y-108520038D02*
X89094360Y-108472419D01*
X89094360Y-108472419D02*
X89332455Y-108472419D01*
X89332455Y-108472419D02*
X89475312Y-108520038D01*
X90237217Y-108948609D02*
X90380074Y-108996228D01*
X90380074Y-108996228D02*
X90427693Y-109043847D01*
X90427693Y-109043847D02*
X90475312Y-109139085D01*
X90475312Y-109139085D02*
X90475312Y-109281942D01*
X90475312Y-109281942D02*
X90427693Y-109377180D01*
X90427693Y-109377180D02*
X90380074Y-109424800D01*
X90380074Y-109424800D02*
X90284836Y-109472419D01*
X90284836Y-109472419D02*
X89903884Y-109472419D01*
X89903884Y-109472419D02*
X89903884Y-108472419D01*
X89903884Y-108472419D02*
X90237217Y-108472419D01*
X90237217Y-108472419D02*
X90332455Y-108520038D01*
X90332455Y-108520038D02*
X90380074Y-108567657D01*
X90380074Y-108567657D02*
X90427693Y-108662895D01*
X90427693Y-108662895D02*
X90427693Y-108758133D01*
X90427693Y-108758133D02*
X90380074Y-108853371D01*
X90380074Y-108853371D02*
X90332455Y-108900990D01*
X90332455Y-108900990D02*
X90237217Y-108948609D01*
X90237217Y-108948609D02*
X89903884Y-108948609D01*
D11*
X67038095Y-100054819D02*
X67038095Y-100864342D01*
X67038095Y-100864342D02*
X67085714Y-100959580D01*
X67085714Y-100959580D02*
X67133333Y-101007200D01*
X67133333Y-101007200D02*
X67228571Y-101054819D01*
X67228571Y-101054819D02*
X67419047Y-101054819D01*
X67419047Y-101054819D02*
X67514285Y-101007200D01*
X67514285Y-101007200D02*
X67561904Y-100959580D01*
X67561904Y-100959580D02*
X67609523Y-100864342D01*
X67609523Y-100864342D02*
X67609523Y-100054819D01*
X68038095Y-100150057D02*
X68085714Y-100102438D01*
X68085714Y-100102438D02*
X68180952Y-100054819D01*
X68180952Y-100054819D02*
X68419047Y-100054819D01*
X68419047Y-100054819D02*
X68514285Y-100102438D01*
X68514285Y-100102438D02*
X68561904Y-100150057D01*
X68561904Y-100150057D02*
X68609523Y-100245295D01*
X68609523Y-100245295D02*
X68609523Y-100340533D01*
X68609523Y-100340533D02*
X68561904Y-100483390D01*
X68561904Y-100483390D02*
X67990476Y-101054819D01*
X67990476Y-101054819D02*
X68609523Y-101054819D01*
X56023809Y-113978628D02*
X56023809Y-114454819D01*
X55690476Y-113454819D02*
X56023809Y-113978628D01*
X56023809Y-113978628D02*
X56357142Y-113454819D01*
X57214285Y-114454819D02*
X56642857Y-114454819D01*
X56928571Y-114454819D02*
X56928571Y-113454819D01*
X56928571Y-113454819D02*
X56833333Y-113597676D01*
X56833333Y-113597676D02*
X56738095Y-113692914D01*
X56738095Y-113692914D02*
X56642857Y-113740533D01*
X84433333Y-117854819D02*
X84100000Y-117378628D01*
X83861905Y-117854819D02*
X83861905Y-116854819D01*
X83861905Y-116854819D02*
X84242857Y-116854819D01*
X84242857Y-116854819D02*
X84338095Y-116902438D01*
X84338095Y-116902438D02*
X84385714Y-116950057D01*
X84385714Y-116950057D02*
X84433333Y-117045295D01*
X84433333Y-117045295D02*
X84433333Y-117188152D01*
X84433333Y-117188152D02*
X84385714Y-117283390D01*
X84385714Y-117283390D02*
X84338095Y-117331009D01*
X84338095Y-117331009D02*
X84242857Y-117378628D01*
X84242857Y-117378628D02*
X83861905Y-117378628D01*
X84814286Y-116950057D02*
X84861905Y-116902438D01*
X84861905Y-116902438D02*
X84957143Y-116854819D01*
X84957143Y-116854819D02*
X85195238Y-116854819D01*
X85195238Y-116854819D02*
X85290476Y-116902438D01*
X85290476Y-116902438D02*
X85338095Y-116950057D01*
X85338095Y-116950057D02*
X85385714Y-117045295D01*
X85385714Y-117045295D02*
X85385714Y-117140533D01*
X85385714Y-117140533D02*
X85338095Y-117283390D01*
X85338095Y-117283390D02*
X84766667Y-117854819D01*
X84766667Y-117854819D02*
X85385714Y-117854819D01*
X60824819Y-107076666D02*
X60348628Y-107409999D01*
X60824819Y-107648094D02*
X59824819Y-107648094D01*
X59824819Y-107648094D02*
X59824819Y-107267142D01*
X59824819Y-107267142D02*
X59872438Y-107171904D01*
X59872438Y-107171904D02*
X59920057Y-107124285D01*
X59920057Y-107124285D02*
X60015295Y-107076666D01*
X60015295Y-107076666D02*
X60158152Y-107076666D01*
X60158152Y-107076666D02*
X60253390Y-107124285D01*
X60253390Y-107124285D02*
X60301009Y-107171904D01*
X60301009Y-107171904D02*
X60348628Y-107267142D01*
X60348628Y-107267142D02*
X60348628Y-107648094D01*
X60824819Y-106124285D02*
X60824819Y-106695713D01*
X60824819Y-106409999D02*
X59824819Y-106409999D01*
X59824819Y-106409999D02*
X59967676Y-106505237D01*
X59967676Y-106505237D02*
X60062914Y-106600475D01*
X60062914Y-106600475D02*
X60110533Y-106695713D01*
X74557142Y-110159580D02*
X74509523Y-110207200D01*
X74509523Y-110207200D02*
X74366666Y-110254819D01*
X74366666Y-110254819D02*
X74271428Y-110254819D01*
X74271428Y-110254819D02*
X74128571Y-110207200D01*
X74128571Y-110207200D02*
X74033333Y-110111961D01*
X74033333Y-110111961D02*
X73985714Y-110016723D01*
X73985714Y-110016723D02*
X73938095Y-109826247D01*
X73938095Y-109826247D02*
X73938095Y-109683390D01*
X73938095Y-109683390D02*
X73985714Y-109492914D01*
X73985714Y-109492914D02*
X74033333Y-109397676D01*
X74033333Y-109397676D02*
X74128571Y-109302438D01*
X74128571Y-109302438D02*
X74271428Y-109254819D01*
X74271428Y-109254819D02*
X74366666Y-109254819D01*
X74366666Y-109254819D02*
X74509523Y-109302438D01*
X74509523Y-109302438D02*
X74557142Y-109350057D01*
X75509523Y-110254819D02*
X74938095Y-110254819D01*
X75223809Y-110254819D02*
X75223809Y-109254819D01*
X75223809Y-109254819D02*
X75128571Y-109397676D01*
X75128571Y-109397676D02*
X75033333Y-109492914D01*
X75033333Y-109492914D02*
X74938095Y-109540533D01*
X75890476Y-109350057D02*
X75938095Y-109302438D01*
X75938095Y-109302438D02*
X76033333Y-109254819D01*
X76033333Y-109254819D02*
X76271428Y-109254819D01*
X76271428Y-109254819D02*
X76366666Y-109302438D01*
X76366666Y-109302438D02*
X76414285Y-109350057D01*
X76414285Y-109350057D02*
X76461904Y-109445295D01*
X76461904Y-109445295D02*
X76461904Y-109540533D01*
X76461904Y-109540533D02*
X76414285Y-109683390D01*
X76414285Y-109683390D02*
X75842857Y-110254819D01*
X75842857Y-110254819D02*
X76461904Y-110254819D01*
X57333333Y-127159580D02*
X57285714Y-127207200D01*
X57285714Y-127207200D02*
X57142857Y-127254819D01*
X57142857Y-127254819D02*
X57047619Y-127254819D01*
X57047619Y-127254819D02*
X56904762Y-127207200D01*
X56904762Y-127207200D02*
X56809524Y-127111961D01*
X56809524Y-127111961D02*
X56761905Y-127016723D01*
X56761905Y-127016723D02*
X56714286Y-126826247D01*
X56714286Y-126826247D02*
X56714286Y-126683390D01*
X56714286Y-126683390D02*
X56761905Y-126492914D01*
X56761905Y-126492914D02*
X56809524Y-126397676D01*
X56809524Y-126397676D02*
X56904762Y-126302438D01*
X56904762Y-126302438D02*
X57047619Y-126254819D01*
X57047619Y-126254819D02*
X57142857Y-126254819D01*
X57142857Y-126254819D02*
X57285714Y-126302438D01*
X57285714Y-126302438D02*
X57333333Y-126350057D01*
X57714286Y-126350057D02*
X57761905Y-126302438D01*
X57761905Y-126302438D02*
X57857143Y-126254819D01*
X57857143Y-126254819D02*
X58095238Y-126254819D01*
X58095238Y-126254819D02*
X58190476Y-126302438D01*
X58190476Y-126302438D02*
X58238095Y-126350057D01*
X58238095Y-126350057D02*
X58285714Y-126445295D01*
X58285714Y-126445295D02*
X58285714Y-126540533D01*
X58285714Y-126540533D02*
X58238095Y-126683390D01*
X58238095Y-126683390D02*
X57666667Y-127254819D01*
X57666667Y-127254819D02*
X58285714Y-127254819D01*
X70238095Y-112254819D02*
X70238095Y-113064342D01*
X70238095Y-113064342D02*
X70285714Y-113159580D01*
X70285714Y-113159580D02*
X70333333Y-113207200D01*
X70333333Y-113207200D02*
X70428571Y-113254819D01*
X70428571Y-113254819D02*
X70619047Y-113254819D01*
X70619047Y-113254819D02*
X70714285Y-113207200D01*
X70714285Y-113207200D02*
X70761904Y-113159580D01*
X70761904Y-113159580D02*
X70809523Y-113064342D01*
X70809523Y-113064342D02*
X70809523Y-112254819D01*
X71809523Y-113254819D02*
X71238095Y-113254819D01*
X71523809Y-113254819D02*
X71523809Y-112254819D01*
X71523809Y-112254819D02*
X71428571Y-112397676D01*
X71428571Y-112397676D02*
X71333333Y-112492914D01*
X71333333Y-112492914D02*
X71238095Y-112540533D01*
X80754819Y-116466666D02*
X80278628Y-116799999D01*
X80754819Y-117038094D02*
X79754819Y-117038094D01*
X79754819Y-117038094D02*
X79754819Y-116657142D01*
X79754819Y-116657142D02*
X79802438Y-116561904D01*
X79802438Y-116561904D02*
X79850057Y-116514285D01*
X79850057Y-116514285D02*
X79945295Y-116466666D01*
X79945295Y-116466666D02*
X80088152Y-116466666D01*
X80088152Y-116466666D02*
X80183390Y-116514285D01*
X80183390Y-116514285D02*
X80231009Y-116561904D01*
X80231009Y-116561904D02*
X80278628Y-116657142D01*
X80278628Y-116657142D02*
X80278628Y-117038094D01*
X79754819Y-116133332D02*
X79754819Y-115514285D01*
X79754819Y-115514285D02*
X80135771Y-115847618D01*
X80135771Y-115847618D02*
X80135771Y-115704761D01*
X80135771Y-115704761D02*
X80183390Y-115609523D01*
X80183390Y-115609523D02*
X80231009Y-115561904D01*
X80231009Y-115561904D02*
X80326247Y-115514285D01*
X80326247Y-115514285D02*
X80564342Y-115514285D01*
X80564342Y-115514285D02*
X80659580Y-115561904D01*
X80659580Y-115561904D02*
X80707200Y-115609523D01*
X80707200Y-115609523D02*
X80754819Y-115704761D01*
X80754819Y-115704761D02*
X80754819Y-115990475D01*
X80754819Y-115990475D02*
X80707200Y-116085713D01*
X80707200Y-116085713D02*
X80659580Y-116133332D01*
X74993333Y-113959580D02*
X74945714Y-114007200D01*
X74945714Y-114007200D02*
X74802857Y-114054819D01*
X74802857Y-114054819D02*
X74707619Y-114054819D01*
X74707619Y-114054819D02*
X74564762Y-114007200D01*
X74564762Y-114007200D02*
X74469524Y-113911961D01*
X74469524Y-113911961D02*
X74421905Y-113816723D01*
X74421905Y-113816723D02*
X74374286Y-113626247D01*
X74374286Y-113626247D02*
X74374286Y-113483390D01*
X74374286Y-113483390D02*
X74421905Y-113292914D01*
X74421905Y-113292914D02*
X74469524Y-113197676D01*
X74469524Y-113197676D02*
X74564762Y-113102438D01*
X74564762Y-113102438D02*
X74707619Y-113054819D01*
X74707619Y-113054819D02*
X74802857Y-113054819D01*
X74802857Y-113054819D02*
X74945714Y-113102438D01*
X74945714Y-113102438D02*
X74993333Y-113150057D01*
X75326667Y-113054819D02*
X75945714Y-113054819D01*
X75945714Y-113054819D02*
X75612381Y-113435771D01*
X75612381Y-113435771D02*
X75755238Y-113435771D01*
X75755238Y-113435771D02*
X75850476Y-113483390D01*
X75850476Y-113483390D02*
X75898095Y-113531009D01*
X75898095Y-113531009D02*
X75945714Y-113626247D01*
X75945714Y-113626247D02*
X75945714Y-113864342D01*
X75945714Y-113864342D02*
X75898095Y-113959580D01*
X75898095Y-113959580D02*
X75850476Y-114007200D01*
X75850476Y-114007200D02*
X75755238Y-114054819D01*
X75755238Y-114054819D02*
X75469524Y-114054819D01*
X75469524Y-114054819D02*
X75374286Y-114007200D01*
X75374286Y-114007200D02*
X75326667Y-113959580D01*
X84633333Y-122454819D02*
X84300000Y-121978628D01*
X84061905Y-122454819D02*
X84061905Y-121454819D01*
X84061905Y-121454819D02*
X84442857Y-121454819D01*
X84442857Y-121454819D02*
X84538095Y-121502438D01*
X84538095Y-121502438D02*
X84585714Y-121550057D01*
X84585714Y-121550057D02*
X84633333Y-121645295D01*
X84633333Y-121645295D02*
X84633333Y-121788152D01*
X84633333Y-121788152D02*
X84585714Y-121883390D01*
X84585714Y-121883390D02*
X84538095Y-121931009D01*
X84538095Y-121931009D02*
X84442857Y-121978628D01*
X84442857Y-121978628D02*
X84061905Y-121978628D01*
X85538095Y-121454819D02*
X85061905Y-121454819D01*
X85061905Y-121454819D02*
X85014286Y-121931009D01*
X85014286Y-121931009D02*
X85061905Y-121883390D01*
X85061905Y-121883390D02*
X85157143Y-121835771D01*
X85157143Y-121835771D02*
X85395238Y-121835771D01*
X85395238Y-121835771D02*
X85490476Y-121883390D01*
X85490476Y-121883390D02*
X85538095Y-121931009D01*
X85538095Y-121931009D02*
X85585714Y-122026247D01*
X85585714Y-122026247D02*
X85585714Y-122264342D01*
X85585714Y-122264342D02*
X85538095Y-122359580D01*
X85538095Y-122359580D02*
X85490476Y-122407200D01*
X85490476Y-122407200D02*
X85395238Y-122454819D01*
X85395238Y-122454819D02*
X85157143Y-122454819D01*
X85157143Y-122454819D02*
X85061905Y-122407200D01*
X85061905Y-122407200D02*
X85014286Y-122359580D01*
X78683333Y-107054819D02*
X78350000Y-106578628D01*
X78111905Y-107054819D02*
X78111905Y-106054819D01*
X78111905Y-106054819D02*
X78492857Y-106054819D01*
X78492857Y-106054819D02*
X78588095Y-106102438D01*
X78588095Y-106102438D02*
X78635714Y-106150057D01*
X78635714Y-106150057D02*
X78683333Y-106245295D01*
X78683333Y-106245295D02*
X78683333Y-106388152D01*
X78683333Y-106388152D02*
X78635714Y-106483390D01*
X78635714Y-106483390D02*
X78588095Y-106531009D01*
X78588095Y-106531009D02*
X78492857Y-106578628D01*
X78492857Y-106578628D02*
X78111905Y-106578628D01*
X79254762Y-106483390D02*
X79159524Y-106435771D01*
X79159524Y-106435771D02*
X79111905Y-106388152D01*
X79111905Y-106388152D02*
X79064286Y-106292914D01*
X79064286Y-106292914D02*
X79064286Y-106245295D01*
X79064286Y-106245295D02*
X79111905Y-106150057D01*
X79111905Y-106150057D02*
X79159524Y-106102438D01*
X79159524Y-106102438D02*
X79254762Y-106054819D01*
X79254762Y-106054819D02*
X79445238Y-106054819D01*
X79445238Y-106054819D02*
X79540476Y-106102438D01*
X79540476Y-106102438D02*
X79588095Y-106150057D01*
X79588095Y-106150057D02*
X79635714Y-106245295D01*
X79635714Y-106245295D02*
X79635714Y-106292914D01*
X79635714Y-106292914D02*
X79588095Y-106388152D01*
X79588095Y-106388152D02*
X79540476Y-106435771D01*
X79540476Y-106435771D02*
X79445238Y-106483390D01*
X79445238Y-106483390D02*
X79254762Y-106483390D01*
X79254762Y-106483390D02*
X79159524Y-106531009D01*
X79159524Y-106531009D02*
X79111905Y-106578628D01*
X79111905Y-106578628D02*
X79064286Y-106673866D01*
X79064286Y-106673866D02*
X79064286Y-106864342D01*
X79064286Y-106864342D02*
X79111905Y-106959580D01*
X79111905Y-106959580D02*
X79159524Y-107007200D01*
X79159524Y-107007200D02*
X79254762Y-107054819D01*
X79254762Y-107054819D02*
X79445238Y-107054819D01*
X79445238Y-107054819D02*
X79540476Y-107007200D01*
X79540476Y-107007200D02*
X79588095Y-106959580D01*
X79588095Y-106959580D02*
X79635714Y-106864342D01*
X79635714Y-106864342D02*
X79635714Y-106673866D01*
X79635714Y-106673866D02*
X79588095Y-106578628D01*
X79588095Y-106578628D02*
X79540476Y-106531009D01*
X79540476Y-106531009D02*
X79445238Y-106483390D01*
X91316666Y-121129819D02*
X91316666Y-121844104D01*
X91316666Y-121844104D02*
X91269047Y-121986961D01*
X91269047Y-121986961D02*
X91173809Y-122082200D01*
X91173809Y-122082200D02*
X91030952Y-122129819D01*
X91030952Y-122129819D02*
X90935714Y-122129819D01*
X92269047Y-121129819D02*
X91792857Y-121129819D01*
X91792857Y-121129819D02*
X91745238Y-121606009D01*
X91745238Y-121606009D02*
X91792857Y-121558390D01*
X91792857Y-121558390D02*
X91888095Y-121510771D01*
X91888095Y-121510771D02*
X92126190Y-121510771D01*
X92126190Y-121510771D02*
X92221428Y-121558390D01*
X92221428Y-121558390D02*
X92269047Y-121606009D01*
X92269047Y-121606009D02*
X92316666Y-121701247D01*
X92316666Y-121701247D02*
X92316666Y-121939342D01*
X92316666Y-121939342D02*
X92269047Y-122034580D01*
X92269047Y-122034580D02*
X92221428Y-122082200D01*
X92221428Y-122082200D02*
X92126190Y-122129819D01*
X92126190Y-122129819D02*
X91888095Y-122129819D01*
X91888095Y-122129819D02*
X91792857Y-122082200D01*
X91792857Y-122082200D02*
X91745238Y-122034580D01*
X58957142Y-113439580D02*
X58909523Y-113487200D01*
X58909523Y-113487200D02*
X58766666Y-113534819D01*
X58766666Y-113534819D02*
X58671428Y-113534819D01*
X58671428Y-113534819D02*
X58528571Y-113487200D01*
X58528571Y-113487200D02*
X58433333Y-113391961D01*
X58433333Y-113391961D02*
X58385714Y-113296723D01*
X58385714Y-113296723D02*
X58338095Y-113106247D01*
X58338095Y-113106247D02*
X58338095Y-112963390D01*
X58338095Y-112963390D02*
X58385714Y-112772914D01*
X58385714Y-112772914D02*
X58433333Y-112677676D01*
X58433333Y-112677676D02*
X58528571Y-112582438D01*
X58528571Y-112582438D02*
X58671428Y-112534819D01*
X58671428Y-112534819D02*
X58766666Y-112534819D01*
X58766666Y-112534819D02*
X58909523Y-112582438D01*
X58909523Y-112582438D02*
X58957142Y-112630057D01*
X59909523Y-113534819D02*
X59338095Y-113534819D01*
X59623809Y-113534819D02*
X59623809Y-112534819D01*
X59623809Y-112534819D02*
X59528571Y-112677676D01*
X59528571Y-112677676D02*
X59433333Y-112772914D01*
X59433333Y-112772914D02*
X59338095Y-112820533D01*
X60528571Y-112534819D02*
X60623809Y-112534819D01*
X60623809Y-112534819D02*
X60719047Y-112582438D01*
X60719047Y-112582438D02*
X60766666Y-112630057D01*
X60766666Y-112630057D02*
X60814285Y-112725295D01*
X60814285Y-112725295D02*
X60861904Y-112915771D01*
X60861904Y-112915771D02*
X60861904Y-113153866D01*
X60861904Y-113153866D02*
X60814285Y-113344342D01*
X60814285Y-113344342D02*
X60766666Y-113439580D01*
X60766666Y-113439580D02*
X60719047Y-113487200D01*
X60719047Y-113487200D02*
X60623809Y-113534819D01*
X60623809Y-113534819D02*
X60528571Y-113534819D01*
X60528571Y-113534819D02*
X60433333Y-113487200D01*
X60433333Y-113487200D02*
X60385714Y-113439580D01*
X60385714Y-113439580D02*
X60338095Y-113344342D01*
X60338095Y-113344342D02*
X60290476Y-113153866D01*
X60290476Y-113153866D02*
X60290476Y-112915771D01*
X60290476Y-112915771D02*
X60338095Y-112725295D01*
X60338095Y-112725295D02*
X60385714Y-112630057D01*
X60385714Y-112630057D02*
X60433333Y-112582438D01*
X60433333Y-112582438D02*
X60528571Y-112534819D01*
X82957142Y-129159580D02*
X82909523Y-129207200D01*
X82909523Y-129207200D02*
X82766666Y-129254819D01*
X82766666Y-129254819D02*
X82671428Y-129254819D01*
X82671428Y-129254819D02*
X82528571Y-129207200D01*
X82528571Y-129207200D02*
X82433333Y-129111961D01*
X82433333Y-129111961D02*
X82385714Y-129016723D01*
X82385714Y-129016723D02*
X82338095Y-128826247D01*
X82338095Y-128826247D02*
X82338095Y-128683390D01*
X82338095Y-128683390D02*
X82385714Y-128492914D01*
X82385714Y-128492914D02*
X82433333Y-128397676D01*
X82433333Y-128397676D02*
X82528571Y-128302438D01*
X82528571Y-128302438D02*
X82671428Y-128254819D01*
X82671428Y-128254819D02*
X82766666Y-128254819D01*
X82766666Y-128254819D02*
X82909523Y-128302438D01*
X82909523Y-128302438D02*
X82957142Y-128350057D01*
X83909523Y-129254819D02*
X83338095Y-129254819D01*
X83623809Y-129254819D02*
X83623809Y-128254819D01*
X83623809Y-128254819D02*
X83528571Y-128397676D01*
X83528571Y-128397676D02*
X83433333Y-128492914D01*
X83433333Y-128492914D02*
X83338095Y-128540533D01*
X84385714Y-129254819D02*
X84576190Y-129254819D01*
X84576190Y-129254819D02*
X84671428Y-129207200D01*
X84671428Y-129207200D02*
X84719047Y-129159580D01*
X84719047Y-129159580D02*
X84814285Y-129016723D01*
X84814285Y-129016723D02*
X84861904Y-128826247D01*
X84861904Y-128826247D02*
X84861904Y-128445295D01*
X84861904Y-128445295D02*
X84814285Y-128350057D01*
X84814285Y-128350057D02*
X84766666Y-128302438D01*
X84766666Y-128302438D02*
X84671428Y-128254819D01*
X84671428Y-128254819D02*
X84480952Y-128254819D01*
X84480952Y-128254819D02*
X84385714Y-128302438D01*
X84385714Y-128302438D02*
X84338095Y-128350057D01*
X84338095Y-128350057D02*
X84290476Y-128445295D01*
X84290476Y-128445295D02*
X84290476Y-128683390D01*
X84290476Y-128683390D02*
X84338095Y-128778628D01*
X84338095Y-128778628D02*
X84385714Y-128826247D01*
X84385714Y-128826247D02*
X84480952Y-128873866D01*
X84480952Y-128873866D02*
X84671428Y-128873866D01*
X84671428Y-128873866D02*
X84766666Y-128826247D01*
X84766666Y-128826247D02*
X84814285Y-128778628D01*
X84814285Y-128778628D02*
X84861904Y-128683390D01*
X65633333Y-111854819D02*
X65300000Y-111378628D01*
X65061905Y-111854819D02*
X65061905Y-110854819D01*
X65061905Y-110854819D02*
X65442857Y-110854819D01*
X65442857Y-110854819D02*
X65538095Y-110902438D01*
X65538095Y-110902438D02*
X65585714Y-110950057D01*
X65585714Y-110950057D02*
X65633333Y-111045295D01*
X65633333Y-111045295D02*
X65633333Y-111188152D01*
X65633333Y-111188152D02*
X65585714Y-111283390D01*
X65585714Y-111283390D02*
X65538095Y-111331009D01*
X65538095Y-111331009D02*
X65442857Y-111378628D01*
X65442857Y-111378628D02*
X65061905Y-111378628D01*
X65966667Y-110854819D02*
X66633333Y-110854819D01*
X66633333Y-110854819D02*
X66204762Y-111854819D01*
X74359580Y-103842857D02*
X74407200Y-103890476D01*
X74407200Y-103890476D02*
X74454819Y-104033333D01*
X74454819Y-104033333D02*
X74454819Y-104128571D01*
X74454819Y-104128571D02*
X74407200Y-104271428D01*
X74407200Y-104271428D02*
X74311961Y-104366666D01*
X74311961Y-104366666D02*
X74216723Y-104414285D01*
X74216723Y-104414285D02*
X74026247Y-104461904D01*
X74026247Y-104461904D02*
X73883390Y-104461904D01*
X73883390Y-104461904D02*
X73692914Y-104414285D01*
X73692914Y-104414285D02*
X73597676Y-104366666D01*
X73597676Y-104366666D02*
X73502438Y-104271428D01*
X73502438Y-104271428D02*
X73454819Y-104128571D01*
X73454819Y-104128571D02*
X73454819Y-104033333D01*
X73454819Y-104033333D02*
X73502438Y-103890476D01*
X73502438Y-103890476D02*
X73550057Y-103842857D01*
X74454819Y-102890476D02*
X74454819Y-103461904D01*
X74454819Y-103176190D02*
X73454819Y-103176190D01*
X73454819Y-103176190D02*
X73597676Y-103271428D01*
X73597676Y-103271428D02*
X73692914Y-103366666D01*
X73692914Y-103366666D02*
X73740533Y-103461904D01*
X73788152Y-102033333D02*
X74454819Y-102033333D01*
X73407200Y-102271428D02*
X74121485Y-102509523D01*
X74121485Y-102509523D02*
X74121485Y-101890476D01*
X59633333Y-124959580D02*
X59585714Y-125007200D01*
X59585714Y-125007200D02*
X59442857Y-125054819D01*
X59442857Y-125054819D02*
X59347619Y-125054819D01*
X59347619Y-125054819D02*
X59204762Y-125007200D01*
X59204762Y-125007200D02*
X59109524Y-124911961D01*
X59109524Y-124911961D02*
X59061905Y-124816723D01*
X59061905Y-124816723D02*
X59014286Y-124626247D01*
X59014286Y-124626247D02*
X59014286Y-124483390D01*
X59014286Y-124483390D02*
X59061905Y-124292914D01*
X59061905Y-124292914D02*
X59109524Y-124197676D01*
X59109524Y-124197676D02*
X59204762Y-124102438D01*
X59204762Y-124102438D02*
X59347619Y-124054819D01*
X59347619Y-124054819D02*
X59442857Y-124054819D01*
X59442857Y-124054819D02*
X59585714Y-124102438D01*
X59585714Y-124102438D02*
X59633333Y-124150057D01*
X59966667Y-124054819D02*
X60633333Y-124054819D01*
X60633333Y-124054819D02*
X60204762Y-125054819D01*
X72661905Y-120704819D02*
X72661905Y-119704819D01*
X72661905Y-119704819D02*
X72900000Y-119704819D01*
X72900000Y-119704819D02*
X73042857Y-119752438D01*
X73042857Y-119752438D02*
X73138095Y-119847676D01*
X73138095Y-119847676D02*
X73185714Y-119942914D01*
X73185714Y-119942914D02*
X73233333Y-120133390D01*
X73233333Y-120133390D02*
X73233333Y-120276247D01*
X73233333Y-120276247D02*
X73185714Y-120466723D01*
X73185714Y-120466723D02*
X73138095Y-120561961D01*
X73138095Y-120561961D02*
X73042857Y-120657200D01*
X73042857Y-120657200D02*
X72900000Y-120704819D01*
X72900000Y-120704819D02*
X72661905Y-120704819D01*
X73614286Y-119800057D02*
X73661905Y-119752438D01*
X73661905Y-119752438D02*
X73757143Y-119704819D01*
X73757143Y-119704819D02*
X73995238Y-119704819D01*
X73995238Y-119704819D02*
X74090476Y-119752438D01*
X74090476Y-119752438D02*
X74138095Y-119800057D01*
X74138095Y-119800057D02*
X74185714Y-119895295D01*
X74185714Y-119895295D02*
X74185714Y-119990533D01*
X74185714Y-119990533D02*
X74138095Y-120133390D01*
X74138095Y-120133390D02*
X73566667Y-120704819D01*
X73566667Y-120704819D02*
X74185714Y-120704819D01*
X75359580Y-107766666D02*
X75407200Y-107814285D01*
X75407200Y-107814285D02*
X75454819Y-107957142D01*
X75454819Y-107957142D02*
X75454819Y-108052380D01*
X75454819Y-108052380D02*
X75407200Y-108195237D01*
X75407200Y-108195237D02*
X75311961Y-108290475D01*
X75311961Y-108290475D02*
X75216723Y-108338094D01*
X75216723Y-108338094D02*
X75026247Y-108385713D01*
X75026247Y-108385713D02*
X74883390Y-108385713D01*
X74883390Y-108385713D02*
X74692914Y-108338094D01*
X74692914Y-108338094D02*
X74597676Y-108290475D01*
X74597676Y-108290475D02*
X74502438Y-108195237D01*
X74502438Y-108195237D02*
X74454819Y-108052380D01*
X74454819Y-108052380D02*
X74454819Y-107957142D01*
X74454819Y-107957142D02*
X74502438Y-107814285D01*
X74502438Y-107814285D02*
X74550057Y-107766666D01*
X74883390Y-107195237D02*
X74835771Y-107290475D01*
X74835771Y-107290475D02*
X74788152Y-107338094D01*
X74788152Y-107338094D02*
X74692914Y-107385713D01*
X74692914Y-107385713D02*
X74645295Y-107385713D01*
X74645295Y-107385713D02*
X74550057Y-107338094D01*
X74550057Y-107338094D02*
X74502438Y-107290475D01*
X74502438Y-107290475D02*
X74454819Y-107195237D01*
X74454819Y-107195237D02*
X74454819Y-107004761D01*
X74454819Y-107004761D02*
X74502438Y-106909523D01*
X74502438Y-106909523D02*
X74550057Y-106861904D01*
X74550057Y-106861904D02*
X74645295Y-106814285D01*
X74645295Y-106814285D02*
X74692914Y-106814285D01*
X74692914Y-106814285D02*
X74788152Y-106861904D01*
X74788152Y-106861904D02*
X74835771Y-106909523D01*
X74835771Y-106909523D02*
X74883390Y-107004761D01*
X74883390Y-107004761D02*
X74883390Y-107195237D01*
X74883390Y-107195237D02*
X74931009Y-107290475D01*
X74931009Y-107290475D02*
X74978628Y-107338094D01*
X74978628Y-107338094D02*
X75073866Y-107385713D01*
X75073866Y-107385713D02*
X75264342Y-107385713D01*
X75264342Y-107385713D02*
X75359580Y-107338094D01*
X75359580Y-107338094D02*
X75407200Y-107290475D01*
X75407200Y-107290475D02*
X75454819Y-107195237D01*
X75454819Y-107195237D02*
X75454819Y-107004761D01*
X75454819Y-107004761D02*
X75407200Y-106909523D01*
X75407200Y-106909523D02*
X75359580Y-106861904D01*
X75359580Y-106861904D02*
X75264342Y-106814285D01*
X75264342Y-106814285D02*
X75073866Y-106814285D01*
X75073866Y-106814285D02*
X74978628Y-106861904D01*
X74978628Y-106861904D02*
X74931009Y-106909523D01*
X74931009Y-106909523D02*
X74883390Y-107004761D01*
X62633333Y-122959580D02*
X62585714Y-123007200D01*
X62585714Y-123007200D02*
X62442857Y-123054819D01*
X62442857Y-123054819D02*
X62347619Y-123054819D01*
X62347619Y-123054819D02*
X62204762Y-123007200D01*
X62204762Y-123007200D02*
X62109524Y-122911961D01*
X62109524Y-122911961D02*
X62061905Y-122816723D01*
X62061905Y-122816723D02*
X62014286Y-122626247D01*
X62014286Y-122626247D02*
X62014286Y-122483390D01*
X62014286Y-122483390D02*
X62061905Y-122292914D01*
X62061905Y-122292914D02*
X62109524Y-122197676D01*
X62109524Y-122197676D02*
X62204762Y-122102438D01*
X62204762Y-122102438D02*
X62347619Y-122054819D01*
X62347619Y-122054819D02*
X62442857Y-122054819D01*
X62442857Y-122054819D02*
X62585714Y-122102438D01*
X62585714Y-122102438D02*
X62633333Y-122150057D01*
X63490476Y-122054819D02*
X63300000Y-122054819D01*
X63300000Y-122054819D02*
X63204762Y-122102438D01*
X63204762Y-122102438D02*
X63157143Y-122150057D01*
X63157143Y-122150057D02*
X63061905Y-122292914D01*
X63061905Y-122292914D02*
X63014286Y-122483390D01*
X63014286Y-122483390D02*
X63014286Y-122864342D01*
X63014286Y-122864342D02*
X63061905Y-122959580D01*
X63061905Y-122959580D02*
X63109524Y-123007200D01*
X63109524Y-123007200D02*
X63204762Y-123054819D01*
X63204762Y-123054819D02*
X63395238Y-123054819D01*
X63395238Y-123054819D02*
X63490476Y-123007200D01*
X63490476Y-123007200D02*
X63538095Y-122959580D01*
X63538095Y-122959580D02*
X63585714Y-122864342D01*
X63585714Y-122864342D02*
X63585714Y-122626247D01*
X63585714Y-122626247D02*
X63538095Y-122531009D01*
X63538095Y-122531009D02*
X63490476Y-122483390D01*
X63490476Y-122483390D02*
X63395238Y-122435771D01*
X63395238Y-122435771D02*
X63204762Y-122435771D01*
X63204762Y-122435771D02*
X63109524Y-122483390D01*
X63109524Y-122483390D02*
X63061905Y-122531009D01*
X63061905Y-122531009D02*
X63014286Y-122626247D01*
X78857142Y-118609580D02*
X78809523Y-118657200D01*
X78809523Y-118657200D02*
X78666666Y-118704819D01*
X78666666Y-118704819D02*
X78571428Y-118704819D01*
X78571428Y-118704819D02*
X78428571Y-118657200D01*
X78428571Y-118657200D02*
X78333333Y-118561961D01*
X78333333Y-118561961D02*
X78285714Y-118466723D01*
X78285714Y-118466723D02*
X78238095Y-118276247D01*
X78238095Y-118276247D02*
X78238095Y-118133390D01*
X78238095Y-118133390D02*
X78285714Y-117942914D01*
X78285714Y-117942914D02*
X78333333Y-117847676D01*
X78333333Y-117847676D02*
X78428571Y-117752438D01*
X78428571Y-117752438D02*
X78571428Y-117704819D01*
X78571428Y-117704819D02*
X78666666Y-117704819D01*
X78666666Y-117704819D02*
X78809523Y-117752438D01*
X78809523Y-117752438D02*
X78857142Y-117800057D01*
X79809523Y-118704819D02*
X79238095Y-118704819D01*
X79523809Y-118704819D02*
X79523809Y-117704819D01*
X79523809Y-117704819D02*
X79428571Y-117847676D01*
X79428571Y-117847676D02*
X79333333Y-117942914D01*
X79333333Y-117942914D02*
X79238095Y-117990533D01*
X80380952Y-118133390D02*
X80285714Y-118085771D01*
X80285714Y-118085771D02*
X80238095Y-118038152D01*
X80238095Y-118038152D02*
X80190476Y-117942914D01*
X80190476Y-117942914D02*
X80190476Y-117895295D01*
X80190476Y-117895295D02*
X80238095Y-117800057D01*
X80238095Y-117800057D02*
X80285714Y-117752438D01*
X80285714Y-117752438D02*
X80380952Y-117704819D01*
X80380952Y-117704819D02*
X80571428Y-117704819D01*
X80571428Y-117704819D02*
X80666666Y-117752438D01*
X80666666Y-117752438D02*
X80714285Y-117800057D01*
X80714285Y-117800057D02*
X80761904Y-117895295D01*
X80761904Y-117895295D02*
X80761904Y-117942914D01*
X80761904Y-117942914D02*
X80714285Y-118038152D01*
X80714285Y-118038152D02*
X80666666Y-118085771D01*
X80666666Y-118085771D02*
X80571428Y-118133390D01*
X80571428Y-118133390D02*
X80380952Y-118133390D01*
X80380952Y-118133390D02*
X80285714Y-118181009D01*
X80285714Y-118181009D02*
X80238095Y-118228628D01*
X80238095Y-118228628D02*
X80190476Y-118323866D01*
X80190476Y-118323866D02*
X80190476Y-118514342D01*
X80190476Y-118514342D02*
X80238095Y-118609580D01*
X80238095Y-118609580D02*
X80285714Y-118657200D01*
X80285714Y-118657200D02*
X80380952Y-118704819D01*
X80380952Y-118704819D02*
X80571428Y-118704819D01*
X80571428Y-118704819D02*
X80666666Y-118657200D01*
X80666666Y-118657200D02*
X80714285Y-118609580D01*
X80714285Y-118609580D02*
X80761904Y-118514342D01*
X80761904Y-118514342D02*
X80761904Y-118323866D01*
X80761904Y-118323866D02*
X80714285Y-118228628D01*
X80714285Y-118228628D02*
X80666666Y-118181009D01*
X80666666Y-118181009D02*
X80571428Y-118133390D01*
X73133333Y-123754819D02*
X72800000Y-123278628D01*
X72561905Y-123754819D02*
X72561905Y-122754819D01*
X72561905Y-122754819D02*
X72942857Y-122754819D01*
X72942857Y-122754819D02*
X73038095Y-122802438D01*
X73038095Y-122802438D02*
X73085714Y-122850057D01*
X73085714Y-122850057D02*
X73133333Y-122945295D01*
X73133333Y-122945295D02*
X73133333Y-123088152D01*
X73133333Y-123088152D02*
X73085714Y-123183390D01*
X73085714Y-123183390D02*
X73038095Y-123231009D01*
X73038095Y-123231009D02*
X72942857Y-123278628D01*
X72942857Y-123278628D02*
X72561905Y-123278628D01*
X73990476Y-123088152D02*
X73990476Y-123754819D01*
X73752381Y-122707200D02*
X73514286Y-123421485D01*
X73514286Y-123421485D02*
X74133333Y-123421485D01*
X74154819Y-126211904D02*
X74964342Y-126211904D01*
X74964342Y-126211904D02*
X75059580Y-126164285D01*
X75059580Y-126164285D02*
X75107200Y-126116666D01*
X75107200Y-126116666D02*
X75154819Y-126021428D01*
X75154819Y-126021428D02*
X75154819Y-125830952D01*
X75154819Y-125830952D02*
X75107200Y-125735714D01*
X75107200Y-125735714D02*
X75059580Y-125688095D01*
X75059580Y-125688095D02*
X74964342Y-125640476D01*
X74964342Y-125640476D02*
X74154819Y-125640476D01*
X74154819Y-125259523D02*
X74154819Y-124640476D01*
X74154819Y-124640476D02*
X74535771Y-124973809D01*
X74535771Y-124973809D02*
X74535771Y-124830952D01*
X74535771Y-124830952D02*
X74583390Y-124735714D01*
X74583390Y-124735714D02*
X74631009Y-124688095D01*
X74631009Y-124688095D02*
X74726247Y-124640476D01*
X74726247Y-124640476D02*
X74964342Y-124640476D01*
X74964342Y-124640476D02*
X75059580Y-124688095D01*
X75059580Y-124688095D02*
X75107200Y-124735714D01*
X75107200Y-124735714D02*
X75154819Y-124830952D01*
X75154819Y-124830952D02*
X75154819Y-125116666D01*
X75154819Y-125116666D02*
X75107200Y-125211904D01*
X75107200Y-125211904D02*
X75059580Y-125259523D01*
X59433333Y-122359580D02*
X59385714Y-122407200D01*
X59385714Y-122407200D02*
X59242857Y-122454819D01*
X59242857Y-122454819D02*
X59147619Y-122454819D01*
X59147619Y-122454819D02*
X59004762Y-122407200D01*
X59004762Y-122407200D02*
X58909524Y-122311961D01*
X58909524Y-122311961D02*
X58861905Y-122216723D01*
X58861905Y-122216723D02*
X58814286Y-122026247D01*
X58814286Y-122026247D02*
X58814286Y-121883390D01*
X58814286Y-121883390D02*
X58861905Y-121692914D01*
X58861905Y-121692914D02*
X58909524Y-121597676D01*
X58909524Y-121597676D02*
X59004762Y-121502438D01*
X59004762Y-121502438D02*
X59147619Y-121454819D01*
X59147619Y-121454819D02*
X59242857Y-121454819D01*
X59242857Y-121454819D02*
X59385714Y-121502438D01*
X59385714Y-121502438D02*
X59433333Y-121550057D01*
X59909524Y-122454819D02*
X60100000Y-122454819D01*
X60100000Y-122454819D02*
X60195238Y-122407200D01*
X60195238Y-122407200D02*
X60242857Y-122359580D01*
X60242857Y-122359580D02*
X60338095Y-122216723D01*
X60338095Y-122216723D02*
X60385714Y-122026247D01*
X60385714Y-122026247D02*
X60385714Y-121645295D01*
X60385714Y-121645295D02*
X60338095Y-121550057D01*
X60338095Y-121550057D02*
X60290476Y-121502438D01*
X60290476Y-121502438D02*
X60195238Y-121454819D01*
X60195238Y-121454819D02*
X60004762Y-121454819D01*
X60004762Y-121454819D02*
X59909524Y-121502438D01*
X59909524Y-121502438D02*
X59861905Y-121550057D01*
X59861905Y-121550057D02*
X59814286Y-121645295D01*
X59814286Y-121645295D02*
X59814286Y-121883390D01*
X59814286Y-121883390D02*
X59861905Y-121978628D01*
X59861905Y-121978628D02*
X59909524Y-122026247D01*
X59909524Y-122026247D02*
X60004762Y-122073866D01*
X60004762Y-122073866D02*
X60195238Y-122073866D01*
X60195238Y-122073866D02*
X60290476Y-122026247D01*
X60290476Y-122026247D02*
X60338095Y-121978628D01*
X60338095Y-121978628D02*
X60385714Y-121883390D01*
X84033333Y-111564819D02*
X83700000Y-111088628D01*
X83461905Y-111564819D02*
X83461905Y-110564819D01*
X83461905Y-110564819D02*
X83842857Y-110564819D01*
X83842857Y-110564819D02*
X83938095Y-110612438D01*
X83938095Y-110612438D02*
X83985714Y-110660057D01*
X83985714Y-110660057D02*
X84033333Y-110755295D01*
X84033333Y-110755295D02*
X84033333Y-110898152D01*
X84033333Y-110898152D02*
X83985714Y-110993390D01*
X83985714Y-110993390D02*
X83938095Y-111041009D01*
X83938095Y-111041009D02*
X83842857Y-111088628D01*
X83842857Y-111088628D02*
X83461905Y-111088628D01*
X84890476Y-110564819D02*
X84700000Y-110564819D01*
X84700000Y-110564819D02*
X84604762Y-110612438D01*
X84604762Y-110612438D02*
X84557143Y-110660057D01*
X84557143Y-110660057D02*
X84461905Y-110802914D01*
X84461905Y-110802914D02*
X84414286Y-110993390D01*
X84414286Y-110993390D02*
X84414286Y-111374342D01*
X84414286Y-111374342D02*
X84461905Y-111469580D01*
X84461905Y-111469580D02*
X84509524Y-111517200D01*
X84509524Y-111517200D02*
X84604762Y-111564819D01*
X84604762Y-111564819D02*
X84795238Y-111564819D01*
X84795238Y-111564819D02*
X84890476Y-111517200D01*
X84890476Y-111517200D02*
X84938095Y-111469580D01*
X84938095Y-111469580D02*
X84985714Y-111374342D01*
X84985714Y-111374342D02*
X84985714Y-111136247D01*
X84985714Y-111136247D02*
X84938095Y-111041009D01*
X84938095Y-111041009D02*
X84890476Y-110993390D01*
X84890476Y-110993390D02*
X84795238Y-110945771D01*
X84795238Y-110945771D02*
X84604762Y-110945771D01*
X84604762Y-110945771D02*
X84509524Y-110993390D01*
X84509524Y-110993390D02*
X84461905Y-111041009D01*
X84461905Y-111041009D02*
X84414286Y-111136247D01*
X56833333Y-112879580D02*
X56785714Y-112927200D01*
X56785714Y-112927200D02*
X56642857Y-112974819D01*
X56642857Y-112974819D02*
X56547619Y-112974819D01*
X56547619Y-112974819D02*
X56404762Y-112927200D01*
X56404762Y-112927200D02*
X56309524Y-112831961D01*
X56309524Y-112831961D02*
X56261905Y-112736723D01*
X56261905Y-112736723D02*
X56214286Y-112546247D01*
X56214286Y-112546247D02*
X56214286Y-112403390D01*
X56214286Y-112403390D02*
X56261905Y-112212914D01*
X56261905Y-112212914D02*
X56309524Y-112117676D01*
X56309524Y-112117676D02*
X56404762Y-112022438D01*
X56404762Y-112022438D02*
X56547619Y-111974819D01*
X56547619Y-111974819D02*
X56642857Y-111974819D01*
X56642857Y-111974819D02*
X56785714Y-112022438D01*
X56785714Y-112022438D02*
X56833333Y-112070057D01*
X57690476Y-112308152D02*
X57690476Y-112974819D01*
X57452381Y-111927200D02*
X57214286Y-112641485D01*
X57214286Y-112641485D02*
X57833333Y-112641485D01*
X69897142Y-100759580D02*
X69849523Y-100807200D01*
X69849523Y-100807200D02*
X69706666Y-100854819D01*
X69706666Y-100854819D02*
X69611428Y-100854819D01*
X69611428Y-100854819D02*
X69468571Y-100807200D01*
X69468571Y-100807200D02*
X69373333Y-100711961D01*
X69373333Y-100711961D02*
X69325714Y-100616723D01*
X69325714Y-100616723D02*
X69278095Y-100426247D01*
X69278095Y-100426247D02*
X69278095Y-100283390D01*
X69278095Y-100283390D02*
X69325714Y-100092914D01*
X69325714Y-100092914D02*
X69373333Y-99997676D01*
X69373333Y-99997676D02*
X69468571Y-99902438D01*
X69468571Y-99902438D02*
X69611428Y-99854819D01*
X69611428Y-99854819D02*
X69706666Y-99854819D01*
X69706666Y-99854819D02*
X69849523Y-99902438D01*
X69849523Y-99902438D02*
X69897142Y-99950057D01*
X70849523Y-100854819D02*
X70278095Y-100854819D01*
X70563809Y-100854819D02*
X70563809Y-99854819D01*
X70563809Y-99854819D02*
X70468571Y-99997676D01*
X70468571Y-99997676D02*
X70373333Y-100092914D01*
X70373333Y-100092914D02*
X70278095Y-100140533D01*
X71182857Y-99854819D02*
X71801904Y-99854819D01*
X71801904Y-99854819D02*
X71468571Y-100235771D01*
X71468571Y-100235771D02*
X71611428Y-100235771D01*
X71611428Y-100235771D02*
X71706666Y-100283390D01*
X71706666Y-100283390D02*
X71754285Y-100331009D01*
X71754285Y-100331009D02*
X71801904Y-100426247D01*
X71801904Y-100426247D02*
X71801904Y-100664342D01*
X71801904Y-100664342D02*
X71754285Y-100759580D01*
X71754285Y-100759580D02*
X71706666Y-100807200D01*
X71706666Y-100807200D02*
X71611428Y-100854819D01*
X71611428Y-100854819D02*
X71325714Y-100854819D01*
X71325714Y-100854819D02*
X71230476Y-100807200D01*
X71230476Y-100807200D02*
X71182857Y-100759580D01*
X62633333Y-106559580D02*
X62585714Y-106607200D01*
X62585714Y-106607200D02*
X62442857Y-106654819D01*
X62442857Y-106654819D02*
X62347619Y-106654819D01*
X62347619Y-106654819D02*
X62204762Y-106607200D01*
X62204762Y-106607200D02*
X62109524Y-106511961D01*
X62109524Y-106511961D02*
X62061905Y-106416723D01*
X62061905Y-106416723D02*
X62014286Y-106226247D01*
X62014286Y-106226247D02*
X62014286Y-106083390D01*
X62014286Y-106083390D02*
X62061905Y-105892914D01*
X62061905Y-105892914D02*
X62109524Y-105797676D01*
X62109524Y-105797676D02*
X62204762Y-105702438D01*
X62204762Y-105702438D02*
X62347619Y-105654819D01*
X62347619Y-105654819D02*
X62442857Y-105654819D01*
X62442857Y-105654819D02*
X62585714Y-105702438D01*
X62585714Y-105702438D02*
X62633333Y-105750057D01*
X63538095Y-105654819D02*
X63061905Y-105654819D01*
X63061905Y-105654819D02*
X63014286Y-106131009D01*
X63014286Y-106131009D02*
X63061905Y-106083390D01*
X63061905Y-106083390D02*
X63157143Y-106035771D01*
X63157143Y-106035771D02*
X63395238Y-106035771D01*
X63395238Y-106035771D02*
X63490476Y-106083390D01*
X63490476Y-106083390D02*
X63538095Y-106131009D01*
X63538095Y-106131009D02*
X63585714Y-106226247D01*
X63585714Y-106226247D02*
X63585714Y-106464342D01*
X63585714Y-106464342D02*
X63538095Y-106559580D01*
X63538095Y-106559580D02*
X63490476Y-106607200D01*
X63490476Y-106607200D02*
X63395238Y-106654819D01*
X63395238Y-106654819D02*
X63157143Y-106654819D01*
X63157143Y-106654819D02*
X63061905Y-106607200D01*
X63061905Y-106607200D02*
X63014286Y-106559580D01*
X56357142Y-122159580D02*
X56309523Y-122207200D01*
X56309523Y-122207200D02*
X56166666Y-122254819D01*
X56166666Y-122254819D02*
X56071428Y-122254819D01*
X56071428Y-122254819D02*
X55928571Y-122207200D01*
X55928571Y-122207200D02*
X55833333Y-122111961D01*
X55833333Y-122111961D02*
X55785714Y-122016723D01*
X55785714Y-122016723D02*
X55738095Y-121826247D01*
X55738095Y-121826247D02*
X55738095Y-121683390D01*
X55738095Y-121683390D02*
X55785714Y-121492914D01*
X55785714Y-121492914D02*
X55833333Y-121397676D01*
X55833333Y-121397676D02*
X55928571Y-121302438D01*
X55928571Y-121302438D02*
X56071428Y-121254819D01*
X56071428Y-121254819D02*
X56166666Y-121254819D01*
X56166666Y-121254819D02*
X56309523Y-121302438D01*
X56309523Y-121302438D02*
X56357142Y-121350057D01*
X57309523Y-122254819D02*
X56738095Y-122254819D01*
X57023809Y-122254819D02*
X57023809Y-121254819D01*
X57023809Y-121254819D02*
X56928571Y-121397676D01*
X56928571Y-121397676D02*
X56833333Y-121492914D01*
X56833333Y-121492914D02*
X56738095Y-121540533D01*
X58261904Y-122254819D02*
X57690476Y-122254819D01*
X57976190Y-122254819D02*
X57976190Y-121254819D01*
X57976190Y-121254819D02*
X57880952Y-121397676D01*
X57880952Y-121397676D02*
X57785714Y-121492914D01*
X57785714Y-121492914D02*
X57690476Y-121540533D01*
X86854819Y-129738094D02*
X85854819Y-129738094D01*
X85854819Y-129738094D02*
X85854819Y-129499999D01*
X85854819Y-129499999D02*
X85902438Y-129357142D01*
X85902438Y-129357142D02*
X85997676Y-129261904D01*
X85997676Y-129261904D02*
X86092914Y-129214285D01*
X86092914Y-129214285D02*
X86283390Y-129166666D01*
X86283390Y-129166666D02*
X86426247Y-129166666D01*
X86426247Y-129166666D02*
X86616723Y-129214285D01*
X86616723Y-129214285D02*
X86711961Y-129261904D01*
X86711961Y-129261904D02*
X86807200Y-129357142D01*
X86807200Y-129357142D02*
X86854819Y-129499999D01*
X86854819Y-129499999D02*
X86854819Y-129738094D01*
X85854819Y-128833332D02*
X85854819Y-128214285D01*
X85854819Y-128214285D02*
X86235771Y-128547618D01*
X86235771Y-128547618D02*
X86235771Y-128404761D01*
X86235771Y-128404761D02*
X86283390Y-128309523D01*
X86283390Y-128309523D02*
X86331009Y-128261904D01*
X86331009Y-128261904D02*
X86426247Y-128214285D01*
X86426247Y-128214285D02*
X86664342Y-128214285D01*
X86664342Y-128214285D02*
X86759580Y-128261904D01*
X86759580Y-128261904D02*
X86807200Y-128309523D01*
X86807200Y-128309523D02*
X86854819Y-128404761D01*
X86854819Y-128404761D02*
X86854819Y-128690475D01*
X86854819Y-128690475D02*
X86807200Y-128785713D01*
X86807200Y-128785713D02*
X86759580Y-128833332D01*
X61033333Y-111759580D02*
X60985714Y-111807200D01*
X60985714Y-111807200D02*
X60842857Y-111854819D01*
X60842857Y-111854819D02*
X60747619Y-111854819D01*
X60747619Y-111854819D02*
X60604762Y-111807200D01*
X60604762Y-111807200D02*
X60509524Y-111711961D01*
X60509524Y-111711961D02*
X60461905Y-111616723D01*
X60461905Y-111616723D02*
X60414286Y-111426247D01*
X60414286Y-111426247D02*
X60414286Y-111283390D01*
X60414286Y-111283390D02*
X60461905Y-111092914D01*
X60461905Y-111092914D02*
X60509524Y-110997676D01*
X60509524Y-110997676D02*
X60604762Y-110902438D01*
X60604762Y-110902438D02*
X60747619Y-110854819D01*
X60747619Y-110854819D02*
X60842857Y-110854819D01*
X60842857Y-110854819D02*
X60985714Y-110902438D01*
X60985714Y-110902438D02*
X61033333Y-110950057D01*
X61985714Y-111854819D02*
X61414286Y-111854819D01*
X61700000Y-111854819D02*
X61700000Y-110854819D01*
X61700000Y-110854819D02*
X61604762Y-110997676D01*
X61604762Y-110997676D02*
X61509524Y-111092914D01*
X61509524Y-111092914D02*
X61414286Y-111140533D01*
D12*
%TO.C,G\u002A\u002A\u002A*%
G36*
X89769836Y-101781523D02*
G01*
X89767399Y-101785237D01*
X89759113Y-101785814D01*
X89750395Y-101783819D01*
X89754177Y-101780878D01*
X89766945Y-101779904D01*
X89769836Y-101781523D01*
G37*
G36*
X89769836Y-101315843D02*
G01*
X89767399Y-101319556D01*
X89759113Y-101320134D01*
X89750395Y-101318139D01*
X89754177Y-101315198D01*
X89766945Y-101314224D01*
X89769836Y-101315843D01*
G37*
G36*
X89214512Y-104329309D02*
G01*
X89252632Y-104334389D01*
X89301077Y-104342268D01*
X89347217Y-104350655D01*
X89371599Y-104355109D01*
X89406343Y-104361250D01*
X89445696Y-104368064D01*
X89465680Y-104371473D01*
X89518122Y-104380957D01*
X89556607Y-104390422D01*
X89583376Y-104401992D01*
X89600671Y-104417790D01*
X89610733Y-104439939D01*
X89615805Y-104470564D01*
X89618127Y-104511788D01*
X89618276Y-104516039D01*
X89619162Y-104552893D01*
X89619295Y-104586203D01*
X89618680Y-104610721D01*
X89618181Y-104617305D01*
X89608664Y-104647015D01*
X89589094Y-104665288D01*
X89566147Y-104670409D01*
X89550245Y-104669007D01*
X89521384Y-104665146D01*
X89482669Y-104659344D01*
X89437206Y-104652118D01*
X89388103Y-104643987D01*
X89338465Y-104635469D01*
X89291400Y-104627080D01*
X89250012Y-104619340D01*
X89217409Y-104612765D01*
X89208330Y-104610762D01*
X89163396Y-104600498D01*
X89166271Y-104559882D01*
X89168511Y-104535868D01*
X89171040Y-104519629D01*
X89172321Y-104515941D01*
X89181490Y-104515578D01*
X89203521Y-104517688D01*
X89235198Y-104521825D01*
X89273304Y-104527545D01*
X89314624Y-104534405D01*
X89343132Y-104539534D01*
X89384870Y-104547243D01*
X89436027Y-104556594D01*
X89489931Y-104566369D01*
X89508572Y-104569730D01*
X89535123Y-104574509D01*
X89535123Y-104529057D01*
X89535357Y-104511195D01*
X89534566Y-104498153D01*
X89530512Y-104488747D01*
X89520957Y-104481792D01*
X89503664Y-104476105D01*
X89476394Y-104470501D01*
X89436909Y-104463797D01*
X89400321Y-104457734D01*
X89353480Y-104449633D01*
X89305840Y-104440952D01*
X89263170Y-104432767D01*
X89232840Y-104426507D01*
X89171566Y-104413059D01*
X89169097Y-104370168D01*
X89168104Y-104345248D01*
X89170156Y-104332546D01*
X89177207Y-104327976D01*
X89189521Y-104327440D01*
X89214512Y-104329309D01*
G37*
G36*
X89267799Y-102603413D02*
G01*
X89317466Y-102611712D01*
X89353497Y-102619000D01*
X89378507Y-102625971D01*
X89395111Y-102633319D01*
X89403581Y-102639460D01*
X89419353Y-102648500D01*
X89437559Y-102644723D01*
X89438069Y-102644499D01*
X89453432Y-102641020D01*
X89476925Y-102641563D01*
X89511558Y-102646313D01*
X89534821Y-102650480D01*
X89570556Y-102657436D01*
X89593383Y-102663023D01*
X89606479Y-102668751D01*
X89613020Y-102676129D01*
X89616184Y-102686666D01*
X89616711Y-102689386D01*
X89619165Y-102713963D01*
X89618421Y-102732617D01*
X89614720Y-102745903D01*
X89606587Y-102753271D01*
X89591000Y-102755245D01*
X89564933Y-102752353D01*
X89535396Y-102747059D01*
X89505363Y-102741949D01*
X89481686Y-102739104D01*
X89468800Y-102739034D01*
X89467995Y-102739338D01*
X89464278Y-102749133D01*
X89461969Y-102769650D01*
X89461595Y-102783346D01*
X89462242Y-102807416D01*
X89466367Y-102820278D01*
X89477242Y-102827060D01*
X89492232Y-102831355D01*
X89520664Y-102837710D01*
X89552906Y-102843531D01*
X89560324Y-102844649D01*
X89590443Y-102850047D01*
X89607535Y-102857783D01*
X89614877Y-102871303D01*
X89615743Y-102894050D01*
X89615278Y-102902431D01*
X89613146Y-102926294D01*
X89608817Y-102937997D01*
X89599424Y-102941711D01*
X89588227Y-102941785D01*
X89567377Y-102939963D01*
X89535091Y-102935645D01*
X89494065Y-102929328D01*
X89446993Y-102921507D01*
X89396572Y-102912677D01*
X89379897Y-102909626D01*
X89345496Y-102903333D01*
X89296461Y-102893972D01*
X89252161Y-102885088D01*
X89215293Y-102877177D01*
X89188550Y-102870734D01*
X89174629Y-102866255D01*
X89173526Y-102865555D01*
X89170995Y-102855455D01*
X89168940Y-102832709D01*
X89167410Y-102801002D01*
X89166451Y-102764024D01*
X89166450Y-102763938D01*
X89249291Y-102763938D01*
X89250590Y-102780271D01*
X89257671Y-102788752D01*
X89275027Y-102793385D01*
X89283901Y-102794770D01*
X89314801Y-102799397D01*
X89345340Y-102804050D01*
X89349260Y-102804656D01*
X89379897Y-102809404D01*
X89379897Y-102767853D01*
X89378986Y-102742773D01*
X89375042Y-102729451D01*
X89366243Y-102723353D01*
X89361515Y-102722047D01*
X89340352Y-102718091D01*
X89314945Y-102714479D01*
X89314538Y-102714431D01*
X89291153Y-102710654D01*
X89273415Y-102706078D01*
X89272720Y-102705812D01*
X89260682Y-102708051D01*
X89252797Y-102725350D01*
X89249400Y-102756879D01*
X89249291Y-102763938D01*
X89166450Y-102763938D01*
X89166112Y-102725459D01*
X89166440Y-102688997D01*
X89167483Y-102658324D01*
X89169288Y-102637127D01*
X89170492Y-102631234D01*
X89183899Y-102611603D01*
X89209014Y-102601525D01*
X89246624Y-102600774D01*
X89267799Y-102603413D01*
G37*
G36*
X89225328Y-101658835D02*
G01*
X89239545Y-101666232D01*
X89244064Y-101679453D01*
X89247634Y-101704591D01*
X89249688Y-101737230D01*
X89249915Y-101747138D01*
X89250893Y-101816728D01*
X89291509Y-101826103D01*
X89320574Y-101832491D01*
X89337102Y-101833554D01*
X89344532Y-101827405D01*
X89346301Y-101812155D01*
X89346037Y-101796149D01*
X89347508Y-101756293D01*
X89354700Y-101730843D01*
X89368579Y-101718572D01*
X89390109Y-101718257D01*
X89404176Y-101722245D01*
X89423425Y-101733450D01*
X89428916Y-101748860D01*
X89432698Y-101767351D01*
X89437797Y-101775733D01*
X89442261Y-101785595D01*
X89437797Y-101790104D01*
X89430764Y-101802528D01*
X89429331Y-101822236D01*
X89433322Y-101841233D01*
X89439128Y-101849730D01*
X89452697Y-101855333D01*
X89476159Y-101860771D01*
X89492166Y-101863258D01*
X89534992Y-101868703D01*
X89534294Y-101803527D01*
X89534599Y-101771792D01*
X89536031Y-101746153D01*
X89538305Y-101731191D01*
X89538927Y-101729725D01*
X89550351Y-101723843D01*
X89570366Y-101721426D01*
X89591539Y-101722738D01*
X89605481Y-101727353D01*
X89612323Y-101736532D01*
X89616787Y-101754696D01*
X89619067Y-101783838D01*
X89619358Y-101825953D01*
X89618581Y-101861021D01*
X89617064Y-101898325D01*
X89613739Y-101926618D01*
X89606703Y-101946703D01*
X89594058Y-101959380D01*
X89573903Y-101965451D01*
X89544340Y-101965719D01*
X89503467Y-101960985D01*
X89449384Y-101952050D01*
X89416661Y-101946234D01*
X89353986Y-101934969D01*
X89305417Y-101926072D01*
X89268963Y-101919105D01*
X89242634Y-101913631D01*
X89224439Y-101909211D01*
X89212387Y-101905406D01*
X89204488Y-101901780D01*
X89199452Y-101898435D01*
X89178388Y-101872624D01*
X89168177Y-101837248D01*
X89167481Y-101824243D01*
X89165249Y-101803625D01*
X89159786Y-101790986D01*
X89158915Y-101790299D01*
X89155020Y-101780906D01*
X89158480Y-101775206D01*
X89163074Y-101762353D01*
X89166963Y-101738594D01*
X89169089Y-101712617D01*
X89171566Y-101659827D01*
X89200860Y-101657371D01*
X89225328Y-101658835D01*
G37*
G36*
X89243761Y-101086279D02*
G01*
X89270979Y-101089864D01*
X89291644Y-101094630D01*
X89299638Y-101098365D01*
X89303673Y-101110495D01*
X89305223Y-101132619D01*
X89304820Y-101146030D01*
X89302657Y-101169880D01*
X89298225Y-101181652D01*
X89288646Y-101185596D01*
X89277774Y-101185977D01*
X89260857Y-101187919D01*
X89253295Y-101197073D01*
X89250620Y-101213659D01*
X89250228Y-101239362D01*
X89252943Y-101261132D01*
X89259299Y-101274877D01*
X89272401Y-101278985D01*
X89283920Y-101278384D01*
X89297002Y-101275705D01*
X89308344Y-101268726D01*
X89320511Y-101254699D01*
X89336067Y-101230876D01*
X89349892Y-101207674D01*
X89373655Y-101169350D01*
X89394115Y-101143902D01*
X89414878Y-101129397D01*
X89439547Y-101123904D01*
X89471729Y-101125490D01*
X89496506Y-101129096D01*
X89542877Y-101138291D01*
X89575368Y-101148953D01*
X89596434Y-101162136D01*
X89607477Y-101176667D01*
X89612071Y-101193763D01*
X89615879Y-101222516D01*
X89618591Y-101258248D01*
X89619894Y-101296283D01*
X89619479Y-101331945D01*
X89618701Y-101345288D01*
X89612570Y-101383937D01*
X89599965Y-101408486D01*
X89578872Y-101420556D01*
X89547276Y-101421768D01*
X89527223Y-101418866D01*
X89500668Y-101411683D01*
X89485799Y-101399729D01*
X89479900Y-101379131D01*
X89479935Y-101351417D01*
X89481820Y-101328024D01*
X89486288Y-101316638D01*
X89496527Y-101312939D01*
X89508572Y-101312611D01*
X89524935Y-101311686D01*
X89532653Y-101305941D01*
X89534972Y-101290916D01*
X89535123Y-101276132D01*
X89531653Y-101248015D01*
X89519516Y-101231351D01*
X89496125Y-101223828D01*
X89475336Y-101222741D01*
X89459942Y-101223817D01*
X89448802Y-101229208D01*
X89438505Y-101242159D01*
X89425642Y-101265916D01*
X89421686Y-101273802D01*
X89405489Y-101304073D01*
X89388700Y-101331991D01*
X89376561Y-101349373D01*
X89364346Y-101362865D01*
X89351696Y-101370175D01*
X89333245Y-101373115D01*
X89305083Y-101373506D01*
X89262945Y-101371867D01*
X89232523Y-101366805D01*
X89209332Y-101357019D01*
X89188888Y-101341211D01*
X89186817Y-101339245D01*
X89163396Y-101316694D01*
X89167481Y-101213741D01*
X89169864Y-101164263D01*
X89173345Y-101128921D01*
X89179244Y-101105514D01*
X89188876Y-101091837D01*
X89203562Y-101085690D01*
X89224617Y-101084871D01*
X89243761Y-101086279D01*
G37*
G36*
X89216500Y-106064969D02*
G01*
X89252614Y-106067824D01*
X89291592Y-106073170D01*
X89306368Y-106075916D01*
X89349288Y-106084606D01*
X89394821Y-106093297D01*
X89448598Y-106103052D01*
X89473850Y-106107520D01*
X89511138Y-106114203D01*
X89551235Y-106121566D01*
X89569845Y-106125057D01*
X89616822Y-106133967D01*
X89616822Y-106178322D01*
X89616256Y-106203864D01*
X89613359Y-106217090D01*
X89606331Y-106222015D01*
X89596941Y-106222677D01*
X89581699Y-106221242D01*
X89554080Y-106217315D01*
X89517755Y-106211465D01*
X89476399Y-106204259D01*
X89468266Y-106202782D01*
X89418299Y-106193750D01*
X89364864Y-106184265D01*
X89314690Y-106175514D01*
X89277774Y-106169225D01*
X89233395Y-106161509D01*
X89202737Y-106154764D01*
X89183373Y-106147478D01*
X89172874Y-106138143D01*
X89168812Y-106125248D01*
X89168758Y-106107283D01*
X89169097Y-106101656D01*
X89171566Y-106063365D01*
X89216500Y-106064969D01*
G37*
G36*
X89213499Y-105484833D02*
G01*
X89255095Y-105489702D01*
X89309309Y-105498536D01*
X89339048Y-105504066D01*
X89368703Y-105509389D01*
X89407334Y-105515813D01*
X89447735Y-105522150D01*
X89457510Y-105523617D01*
X89496472Y-105529990D01*
X89534772Y-105537240D01*
X89565585Y-105544050D01*
X89571888Y-105545684D01*
X89612737Y-105556836D01*
X89615156Y-105607409D01*
X89617576Y-105657982D01*
X89586562Y-105666595D01*
X89563847Y-105672200D01*
X89547045Y-105675131D01*
X89544906Y-105675253D01*
X89532104Y-105677002D01*
X89508317Y-105681569D01*
X89478461Y-105688003D01*
X89475463Y-105688683D01*
X89416661Y-105702067D01*
X89450916Y-105712193D01*
X89479479Y-105719146D01*
X89514078Y-105725579D01*
X89532083Y-105728179D01*
X89570024Y-105733573D01*
X89594571Y-105739781D01*
X89608619Y-105748935D01*
X89615060Y-105763166D01*
X89616787Y-105784605D01*
X89616822Y-105790608D01*
X89616822Y-105832794D01*
X89569845Y-105828012D01*
X89539925Y-105824308D01*
X89500712Y-105818494D01*
X89454934Y-105811072D01*
X89405320Y-105802548D01*
X89354596Y-105793427D01*
X89305491Y-105784212D01*
X89260732Y-105775409D01*
X89223047Y-105767521D01*
X89195164Y-105761054D01*
X89179810Y-105756511D01*
X89177985Y-105755543D01*
X89171565Y-105742015D01*
X89167942Y-105717119D01*
X89167481Y-105702690D01*
X89167871Y-105682375D01*
X89170657Y-105667686D01*
X89178267Y-105657115D01*
X89193126Y-105649152D01*
X89217662Y-105642288D01*
X89254299Y-105635014D01*
X89285249Y-105629441D01*
X89317939Y-105622996D01*
X89343081Y-105616872D01*
X89357403Y-105611934D01*
X89359408Y-105609836D01*
X89350375Y-105606193D01*
X89328693Y-105600796D01*
X89297852Y-105594443D01*
X89269734Y-105589346D01*
X89232335Y-105582027D01*
X89201380Y-105574248D01*
X89180502Y-105567012D01*
X89173906Y-105562903D01*
X89166945Y-105545972D01*
X89164468Y-105522401D01*
X89166634Y-105499947D01*
X89172366Y-105487409D01*
X89185573Y-105484034D01*
X89213499Y-105484833D01*
G37*
G36*
X89269249Y-104912839D02*
G01*
X89321039Y-104921299D01*
X89358335Y-104927933D01*
X89423076Y-104939481D01*
X89473677Y-104948624D01*
X89512076Y-104955877D01*
X89540210Y-104961755D01*
X89560017Y-104966770D01*
X89573433Y-104971438D01*
X89582396Y-104976273D01*
X89588843Y-104981788D01*
X89594712Y-104988499D01*
X89597040Y-104991286D01*
X89604839Y-105001377D01*
X89610265Y-105011978D01*
X89613747Y-105026124D01*
X89615713Y-105046852D01*
X89616594Y-105077201D01*
X89616818Y-105120205D01*
X89616822Y-105131270D01*
X89616485Y-105173301D01*
X89615561Y-105209315D01*
X89614177Y-105236245D01*
X89612459Y-105251025D01*
X89611772Y-105252793D01*
X89600789Y-105255310D01*
X89585220Y-105254121D01*
X89535123Y-105245434D01*
X89494191Y-105238337D01*
X89417931Y-105225026D01*
X89355100Y-105213918D01*
X89304359Y-105204747D01*
X89264368Y-105197244D01*
X89233788Y-105191141D01*
X89211279Y-105186172D01*
X89195502Y-105182067D01*
X89185117Y-105178560D01*
X89178784Y-105175382D01*
X89175165Y-105172265D01*
X89175033Y-105172109D01*
X89171297Y-105159340D01*
X89168495Y-105132576D01*
X89166799Y-105094145D01*
X89166382Y-105056609D01*
X89250541Y-105056609D01*
X89251661Y-105080788D01*
X89256301Y-105093344D01*
X89266380Y-105098916D01*
X89268242Y-105099381D01*
X89295751Y-105105281D01*
X89333651Y-105112780D01*
X89376876Y-105120944D01*
X89420362Y-105128839D01*
X89459045Y-105135531D01*
X89487860Y-105140086D01*
X89492232Y-105140690D01*
X89535123Y-105146364D01*
X89535123Y-105104777D01*
X89534549Y-105080155D01*
X89530765Y-105066870D01*
X89520685Y-105059920D01*
X89504487Y-105055158D01*
X89477922Y-105048920D01*
X89439649Y-105040875D01*
X89394078Y-105031894D01*
X89345620Y-105022846D01*
X89300055Y-105014833D01*
X89275502Y-105011656D01*
X89258452Y-105011292D01*
X89253759Y-105012742D01*
X89251855Y-105023366D01*
X89250701Y-105044357D01*
X89250541Y-105056609D01*
X89166382Y-105056609D01*
X89166355Y-105054177D01*
X89166601Y-105003709D01*
X89168483Y-104965425D01*
X89173909Y-104938071D01*
X89184790Y-104920391D01*
X89203034Y-104911129D01*
X89230551Y-104909031D01*
X89269249Y-104912839D01*
G37*
G36*
X89267196Y-103757006D02*
G01*
X89288410Y-103761177D01*
X89296564Y-103765192D01*
X89303139Y-103779862D01*
X89305972Y-103802518D01*
X89305096Y-103826494D01*
X89300542Y-103845124D01*
X89296156Y-103850901D01*
X89279609Y-103856539D01*
X89269604Y-103857511D01*
X89259709Y-103859900D01*
X89254223Y-103869673D01*
X89251396Y-103890743D01*
X89250828Y-103899463D01*
X89248391Y-103941414D01*
X89277709Y-103944837D01*
X89292195Y-103946277D01*
X89302910Y-103945004D01*
X89312359Y-103938659D01*
X89323046Y-103924883D01*
X89337478Y-103901314D01*
X89353780Y-103873169D01*
X89371024Y-103844668D01*
X89386777Y-103820998D01*
X89398180Y-103806397D01*
X89399929Y-103804733D01*
X89419437Y-103797097D01*
X89449628Y-103794757D01*
X89485970Y-103797054D01*
X89523931Y-103803330D01*
X89558977Y-103812924D01*
X89586576Y-103825180D01*
X89597597Y-103833458D01*
X89605510Y-103842308D01*
X89610893Y-103852273D01*
X89614230Y-103866494D01*
X89616007Y-103888113D01*
X89616709Y-103920274D01*
X89616822Y-103957996D01*
X89616592Y-104001910D01*
X89615632Y-104032493D01*
X89613535Y-104052750D01*
X89609895Y-104065687D01*
X89604306Y-104074309D01*
X89600604Y-104077986D01*
X89587489Y-104086487D01*
X89569870Y-104089644D01*
X89542351Y-104088309D01*
X89538054Y-104087880D01*
X89511499Y-104083500D01*
X89491702Y-104077227D01*
X89484738Y-104072428D01*
X89480743Y-104057814D01*
X89479622Y-104035022D01*
X89479888Y-104029117D01*
X89482676Y-104007688D01*
X89489861Y-103997266D01*
X89505295Y-103992527D01*
X89506529Y-103992313D01*
X89522091Y-103988015D01*
X89529774Y-103978751D01*
X89533065Y-103959432D01*
X89533580Y-103952864D01*
X89532515Y-103922108D01*
X89522491Y-103903773D01*
X89501424Y-103895456D01*
X89482781Y-103894275D01*
X89459583Y-103896017D01*
X89445497Y-103903801D01*
X89433803Y-103920827D01*
X89406498Y-103968215D01*
X89384493Y-104002816D01*
X89365656Y-104026398D01*
X89347855Y-104040726D01*
X89328958Y-104047567D01*
X89306835Y-104048686D01*
X89282412Y-104046262D01*
X89241013Y-104039261D01*
X89210826Y-104029266D01*
X89190126Y-104013850D01*
X89177188Y-103990586D01*
X89170287Y-103957050D01*
X89167699Y-103910815D01*
X89167481Y-103884620D01*
X89168138Y-103835932D01*
X89170982Y-103801224D01*
X89177321Y-103778161D01*
X89188461Y-103764405D01*
X89205712Y-103757623D01*
X89230381Y-103755477D01*
X89239839Y-103755388D01*
X89267196Y-103757006D01*
G37*
G36*
X89213401Y-103170442D02*
G01*
X89219845Y-103171646D01*
X89236075Y-103175440D01*
X89244848Y-103181958D01*
X89248839Y-103195637D01*
X89250727Y-103220917D01*
X89250839Y-103223038D01*
X89252686Y-103249216D01*
X89256471Y-103263519D01*
X89264874Y-103270397D01*
X89280573Y-103274297D01*
X89281859Y-103274543D01*
X89337100Y-103285014D01*
X89386988Y-103294210D01*
X89438724Y-103303436D01*
X89498359Y-103313800D01*
X89537179Y-103320646D01*
X89570514Y-103326819D01*
X89594828Y-103331644D01*
X89606585Y-103334445D01*
X89606609Y-103334454D01*
X89612401Y-103344076D01*
X89615874Y-103363813D01*
X89616855Y-103387579D01*
X89615165Y-103409291D01*
X89610630Y-103422862D01*
X89609208Y-103424167D01*
X89598230Y-103424895D01*
X89575326Y-103422854D01*
X89544597Y-103418469D01*
X89529552Y-103415889D01*
X89479585Y-103407009D01*
X89428802Y-103398206D01*
X89379991Y-103389938D01*
X89335935Y-103382666D01*
X89299424Y-103376848D01*
X89273241Y-103372944D01*
X89260174Y-103371414D01*
X89259839Y-103371408D01*
X89253172Y-103378989D01*
X89248581Y-103399446D01*
X89247585Y-103410213D01*
X89245420Y-103433665D01*
X89240524Y-103445398D01*
X89229352Y-103450011D01*
X89215801Y-103451475D01*
X89192767Y-103450311D01*
X89178076Y-103443694D01*
X89177737Y-103443305D01*
X89174284Y-103431255D01*
X89171147Y-103405333D01*
X89168529Y-103368008D01*
X89166636Y-103321746D01*
X89166182Y-103303900D01*
X89165201Y-103252530D01*
X89165383Y-103215409D01*
X89167576Y-103190448D01*
X89172627Y-103175560D01*
X89181383Y-103168654D01*
X89194692Y-103167644D01*
X89213401Y-103170442D01*
G37*
G36*
X89217107Y-102203827D02*
G01*
X89257034Y-102210321D01*
X89306368Y-102220048D01*
X89328959Y-102224396D01*
X89363008Y-102230477D01*
X89403835Y-102237472D01*
X89445255Y-102244320D01*
X89487648Y-102251238D01*
X89527263Y-102257779D01*
X89559627Y-102263201D01*
X89580058Y-102266722D01*
X89612737Y-102272564D01*
X89615209Y-102315547D01*
X89615537Y-102342545D01*
X89611992Y-102357360D01*
X89604591Y-102363554D01*
X89597770Y-102365135D01*
X89587313Y-102365189D01*
X89570810Y-102363369D01*
X89545851Y-102359326D01*
X89510026Y-102352712D01*
X89460924Y-102343178D01*
X89453425Y-102341703D01*
X89429020Y-102337192D01*
X89394240Y-102331132D01*
X89354855Y-102324518D01*
X89334963Y-102321270D01*
X89280170Y-102312248D01*
X89239329Y-102304933D01*
X89210223Y-102298663D01*
X89190636Y-102292780D01*
X89178352Y-102286622D01*
X89171154Y-102279529D01*
X89166967Y-102271213D01*
X89163317Y-102249359D01*
X89165610Y-102225485D01*
X89172757Y-102207000D01*
X89177085Y-102202530D01*
X89189957Y-102201162D01*
X89217107Y-102203827D01*
G37*
G36*
X89304156Y-101781523D02*
G01*
X89301719Y-101785237D01*
X89293433Y-101785814D01*
X89284715Y-101783819D01*
X89288497Y-101780878D01*
X89301265Y-101779904D01*
X89304156Y-101781523D01*
G37*
G36*
X89295475Y-100849652D02*
G01*
X89294354Y-100854509D01*
X89290029Y-100855099D01*
X89283304Y-100852109D01*
X89284582Y-100849652D01*
X89294278Y-100848674D01*
X89295475Y-100849652D01*
G37*
G36*
X88216978Y-104994171D02*
G01*
X88265423Y-104997054D01*
X88318106Y-105003125D01*
X88367883Y-105011405D01*
X88403602Y-105019739D01*
X88424716Y-105031504D01*
X88435928Y-105052804D01*
X88442139Y-105068920D01*
X88451561Y-105076538D01*
X88469627Y-105078820D01*
X88480863Y-105078946D01*
X88511401Y-105080713D01*
X88540716Y-105085040D01*
X88546574Y-105086395D01*
X88573121Y-105092215D01*
X88604613Y-105097737D01*
X88613975Y-105099105D01*
X88637911Y-105101423D01*
X88649617Y-105099376D01*
X88652780Y-105092293D01*
X88652782Y-105092043D01*
X88660394Y-105084652D01*
X88681767Y-105080765D01*
X88714704Y-105080371D01*
X88757008Y-105083459D01*
X88806484Y-105090018D01*
X88823821Y-105092909D01*
X88855929Y-105098066D01*
X88880881Y-105102242D01*
X88899591Y-105107389D01*
X88912971Y-105115456D01*
X88921934Y-105128392D01*
X88927392Y-105148148D01*
X88930259Y-105176674D01*
X88931448Y-105215919D01*
X88931870Y-105267834D01*
X88932324Y-105324703D01*
X88932969Y-105388417D01*
X88933204Y-105437999D01*
X88932896Y-105475651D01*
X88931913Y-105503580D01*
X88930123Y-105523988D01*
X88927392Y-105539081D01*
X88923588Y-105551062D01*
X88918578Y-105562137D01*
X88917977Y-105563338D01*
X88904004Y-105587061D01*
X88887532Y-105605737D01*
X88866967Y-105619527D01*
X88840716Y-105628590D01*
X88807186Y-105633088D01*
X88764785Y-105633181D01*
X88743853Y-105631537D01*
X88711920Y-105629030D01*
X88646998Y-105620794D01*
X88568425Y-105608635D01*
X88530721Y-105602355D01*
X88450462Y-105588698D01*
X88384670Y-105577151D01*
X88331688Y-105567186D01*
X88289857Y-105558274D01*
X88257519Y-105549887D01*
X88233016Y-105541497D01*
X88214690Y-105532575D01*
X88200884Y-105522592D01*
X88189938Y-105511021D01*
X88180196Y-105497334D01*
X88174903Y-105488958D01*
X88151144Y-105450628D01*
X88147915Y-105242560D01*
X88211611Y-105242560D01*
X88211686Y-105310956D01*
X88212767Y-105364976D01*
X88216140Y-105406581D01*
X88223089Y-105437731D01*
X88234900Y-105460387D01*
X88252857Y-105476511D01*
X88278245Y-105488063D01*
X88312350Y-105497003D01*
X88356457Y-105505294D01*
X88387262Y-105510601D01*
X88434316Y-105518739D01*
X88490503Y-105528491D01*
X88548862Y-105538648D01*
X88602434Y-105547999D01*
X88603763Y-105548231D01*
X88656620Y-105557357D01*
X88695910Y-105563572D01*
X88724150Y-105566864D01*
X88743853Y-105567222D01*
X88757533Y-105564637D01*
X88767705Y-105559096D01*
X88776883Y-105550589D01*
X88779804Y-105547473D01*
X88786432Y-105539948D01*
X88791409Y-105532094D01*
X88794971Y-105521606D01*
X88797354Y-105506181D01*
X88798796Y-105483513D01*
X88799533Y-105451300D01*
X88799802Y-105407237D01*
X88799839Y-105352397D01*
X88799564Y-105289928D01*
X88798682Y-105242284D01*
X88797108Y-105207961D01*
X88794759Y-105185452D01*
X88791549Y-105173253D01*
X88789627Y-105170575D01*
X88775278Y-105164502D01*
X88752588Y-105159986D01*
X88746735Y-105159362D01*
X88714056Y-105156514D01*
X88711777Y-105274804D01*
X88710580Y-105317245D01*
X88708833Y-105353756D01*
X88706737Y-105381271D01*
X88704494Y-105396728D01*
X88703608Y-105398842D01*
X88693480Y-105399953D01*
X88671276Y-105398116D01*
X88640915Y-105393731D01*
X88624187Y-105390762D01*
X88550659Y-105376933D01*
X88548370Y-105272500D01*
X88546707Y-105224012D01*
X88544104Y-105190683D01*
X88540430Y-105171353D01*
X88536115Y-105164969D01*
X88521871Y-105161651D01*
X88499709Y-105157491D01*
X88495513Y-105156780D01*
X88464876Y-105151689D01*
X88464751Y-105243969D01*
X88464104Y-105282003D01*
X88462445Y-105314529D01*
X88460038Y-105337751D01*
X88457592Y-105347351D01*
X88448731Y-105353140D01*
X88430913Y-105354523D01*
X88402181Y-105351366D01*
X88360577Y-105343529D01*
X88340286Y-105339141D01*
X88301479Y-105330536D01*
X88301479Y-105210437D01*
X88300872Y-105155403D01*
X88299012Y-105115876D01*
X88295838Y-105091068D01*
X88291675Y-105080534D01*
X88277832Y-105074418D01*
X88255088Y-105070994D01*
X88246741Y-105070731D01*
X88211611Y-105070731D01*
X88211611Y-105242560D01*
X88147915Y-105242560D01*
X88147833Y-105237249D01*
X88147058Y-105165548D01*
X88147122Y-105105996D01*
X88148004Y-105059580D01*
X88149681Y-105027287D01*
X88152134Y-105010105D01*
X88152797Y-105008408D01*
X88159775Y-105000057D01*
X88172088Y-104995548D01*
X88193777Y-104993986D01*
X88216978Y-104994171D01*
G37*
G36*
X88354915Y-104286207D02*
G01*
X88387262Y-104289806D01*
X88433097Y-104298385D01*
X88465351Y-104305196D01*
X88486567Y-104311134D01*
X88499286Y-104317091D01*
X88506049Y-104323959D01*
X88509398Y-104332631D01*
X88509418Y-104332709D01*
X88514982Y-104346193D01*
X88525006Y-104346112D01*
X88531656Y-104342855D01*
X88550648Y-104338322D01*
X88582214Y-104336909D01*
X88622948Y-104338320D01*
X88669447Y-104342259D01*
X88718306Y-104348429D01*
X88766120Y-104356533D01*
X88809485Y-104366276D01*
X88813765Y-104367415D01*
X88858344Y-104387283D01*
X88892745Y-104419696D01*
X88916636Y-104464161D01*
X88929691Y-104520188D01*
X88931710Y-104543777D01*
X88932459Y-104571572D01*
X88932639Y-104611492D01*
X88932274Y-104659331D01*
X88931387Y-104710884D01*
X88930556Y-104743938D01*
X88928817Y-104791313D01*
X88926544Y-104833495D01*
X88923951Y-104867560D01*
X88921253Y-104890589D01*
X88919128Y-104899164D01*
X88896766Y-104929639D01*
X88870233Y-104951349D01*
X88837397Y-104964803D01*
X88796128Y-104970511D01*
X88744292Y-104968984D01*
X88733499Y-104967604D01*
X88679758Y-104960732D01*
X88669122Y-104958991D01*
X88627521Y-104951469D01*
X88599538Y-104944520D01*
X88582563Y-104936826D01*
X88573982Y-104927070D01*
X88571186Y-104913935D01*
X88571084Y-104909545D01*
X88568826Y-104895293D01*
X88560055Y-104893992D01*
X88556786Y-104895215D01*
X88542891Y-104898115D01*
X88516873Y-104901155D01*
X88482937Y-104903905D01*
X88457939Y-104905366D01*
X88389561Y-104905619D01*
X88326992Y-104899762D01*
X88272891Y-104888313D01*
X88229914Y-104871793D01*
X88206310Y-104856151D01*
X88189853Y-104840917D01*
X88176976Y-104826055D01*
X88167241Y-104809382D01*
X88160212Y-104788713D01*
X88155451Y-104761863D01*
X88152521Y-104726650D01*
X88150986Y-104680888D01*
X88150407Y-104622394D01*
X88150337Y-104576456D01*
X88150362Y-104545107D01*
X88215688Y-104545107D01*
X88215696Y-104576622D01*
X88215696Y-104776245D01*
X88236372Y-104796922D01*
X88257879Y-104810793D01*
X88290701Y-104823255D01*
X88329815Y-104833104D01*
X88370198Y-104839134D01*
X88406827Y-104840143D01*
X88414146Y-104839543D01*
X88445431Y-104832428D01*
X88467973Y-104816979D01*
X88485399Y-104790030D01*
X88493769Y-104770089D01*
X88506208Y-104738436D01*
X88520619Y-104703625D01*
X88526130Y-104690834D01*
X88538776Y-104661209D01*
X88550516Y-104632488D01*
X88554838Y-104621390D01*
X88566547Y-104593865D01*
X88578617Y-104578899D01*
X88596001Y-104573366D01*
X88623650Y-104574144D01*
X88628982Y-104574611D01*
X88665986Y-104579049D01*
X88689619Y-104586283D01*
X88702849Y-104599349D01*
X88708643Y-104621281D01*
X88709968Y-104655114D01*
X88709971Y-104657441D01*
X88708537Y-104694856D01*
X88703252Y-104718353D01*
X88692634Y-104730179D01*
X88675206Y-104732583D01*
X88661812Y-104730629D01*
X88635824Y-104725432D01*
X88638176Y-104806171D01*
X88640527Y-104886910D01*
X88689546Y-104895636D01*
X88733499Y-104899982D01*
X88765049Y-104894865D01*
X88785292Y-104880029D01*
X88790060Y-104872181D01*
X88793602Y-104856393D01*
X88796334Y-104827436D01*
X88798271Y-104788390D01*
X88799424Y-104742333D01*
X88799808Y-104692347D01*
X88799434Y-104641509D01*
X88798316Y-104592899D01*
X88796467Y-104549597D01*
X88793899Y-104514683D01*
X88790627Y-104491235D01*
X88788420Y-104484120D01*
X88772602Y-104459884D01*
X88752121Y-104442796D01*
X88723129Y-104430604D01*
X88681778Y-104421056D01*
X88680134Y-104420756D01*
X88632123Y-104412192D01*
X88597265Y-104406610D01*
X88572669Y-104403911D01*
X88555442Y-104403991D01*
X88542692Y-104406750D01*
X88531527Y-104412087D01*
X88526150Y-104415366D01*
X88515744Y-104422423D01*
X88506855Y-104430486D01*
X88498353Y-104441713D01*
X88489110Y-104458266D01*
X88477997Y-104482305D01*
X88463888Y-104515989D01*
X88445653Y-104561480D01*
X88432601Y-104594480D01*
X88416905Y-104632600D01*
X88404017Y-104657545D01*
X88391402Y-104671583D01*
X88376528Y-104676980D01*
X88356859Y-104676005D01*
X88344008Y-104673753D01*
X88305564Y-104666324D01*
X88303204Y-104594838D01*
X88300843Y-104523352D01*
X88337925Y-104523352D01*
X88375008Y-104523352D01*
X88375008Y-104446613D01*
X88374847Y-104408927D01*
X88372610Y-104384414D01*
X88365667Y-104369918D01*
X88351387Y-104362282D01*
X88327140Y-104358349D01*
X88299334Y-104355795D01*
X88274794Y-104353634D01*
X88255590Y-104353245D01*
X88241069Y-104356355D01*
X88230578Y-104364689D01*
X88223462Y-104379973D01*
X88219069Y-104403931D01*
X88216744Y-104438289D01*
X88215835Y-104484772D01*
X88215688Y-104545107D01*
X88150362Y-104545107D01*
X88150386Y-104514789D01*
X88150662Y-104467187D01*
X88151361Y-104431377D01*
X88152675Y-104405083D01*
X88154801Y-104386031D01*
X88157932Y-104371947D01*
X88162264Y-104360557D01*
X88167991Y-104349587D01*
X88170058Y-104345954D01*
X88187420Y-104322403D01*
X88207712Y-104303988D01*
X88214992Y-104299697D01*
X88239502Y-104292597D01*
X88274690Y-104287771D01*
X88315009Y-104285534D01*
X88354915Y-104286207D01*
G37*
G36*
X88222208Y-103603619D02*
G01*
X88261496Y-103605973D01*
X88303129Y-103610157D01*
X88343688Y-103615826D01*
X88379755Y-103622633D01*
X88407909Y-103630234D01*
X88424733Y-103638283D01*
X88425029Y-103638529D01*
X88433612Y-103651762D01*
X88435283Y-103673615D01*
X88434234Y-103685783D01*
X88431632Y-103719886D01*
X88434854Y-103742255D01*
X88446554Y-103756167D01*
X88469389Y-103764899D01*
X88503552Y-103771342D01*
X88542172Y-103777740D01*
X88588358Y-103785785D01*
X88633638Y-103793994D01*
X88644612Y-103796047D01*
X88687775Y-103804026D01*
X88733724Y-103812263D01*
X88774208Y-103819286D01*
X88783499Y-103820844D01*
X88820551Y-103827395D01*
X88857710Y-103834622D01*
X88885622Y-103840665D01*
X88926471Y-103850327D01*
X88930556Y-103987508D01*
X88931663Y-104033416D01*
X88932140Y-104073648D01*
X88931994Y-104105352D01*
X88931230Y-104125676D01*
X88930276Y-104131702D01*
X88920695Y-104134525D01*
X88898741Y-104136157D01*
X88868354Y-104136384D01*
X88852663Y-104135957D01*
X88823139Y-104134045D01*
X88787878Y-104130166D01*
X88745131Y-104124033D01*
X88693147Y-104115356D01*
X88630178Y-104103846D01*
X88554473Y-104089214D01*
X88481277Y-104074605D01*
X88453237Y-104071555D01*
X88438090Y-104077182D01*
X88434308Y-104092475D01*
X88436155Y-104103850D01*
X88437589Y-104124907D01*
X88435361Y-104146012D01*
X88431110Y-104160616D01*
X88422808Y-104168474D01*
X88405791Y-104172374D01*
X88388430Y-104174059D01*
X88364200Y-104174056D01*
X88330732Y-104171435D01*
X88297394Y-104167461D01*
X88291943Y-104166811D01*
X88251750Y-104160799D01*
X88214069Y-104154014D01*
X88182818Y-104147073D01*
X88161913Y-104140589D01*
X88156465Y-104137629D01*
X88153427Y-104131118D01*
X88151008Y-104116244D01*
X88149156Y-104091661D01*
X88147818Y-104056028D01*
X88146944Y-104008001D01*
X88146482Y-103946236D01*
X88146388Y-103881896D01*
X88210642Y-103881896D01*
X88210897Y-103931877D01*
X88211790Y-103979138D01*
X88213325Y-104020958D01*
X88215506Y-104054617D01*
X88218336Y-104077393D01*
X88221819Y-104086567D01*
X88221823Y-104086569D01*
X88236170Y-104089543D01*
X88258858Y-104092032D01*
X88264715Y-104092440D01*
X88297394Y-104094436D01*
X88301479Y-104037247D01*
X88303932Y-104007429D01*
X88306958Y-103990512D01*
X88312076Y-103983086D01*
X88320803Y-103981740D01*
X88325989Y-103982175D01*
X88342018Y-103984438D01*
X88371539Y-103989181D01*
X88411968Y-103995953D01*
X88460720Y-104004304D01*
X88515213Y-104013783D01*
X88572862Y-104023940D01*
X88631085Y-104034324D01*
X88687298Y-104044485D01*
X88738917Y-104053972D01*
X88756641Y-104057278D01*
X88778724Y-104060310D01*
X88793202Y-104060242D01*
X88795448Y-104059339D01*
X88797408Y-104049724D01*
X88798917Y-104027749D01*
X88799747Y-103997392D01*
X88799839Y-103982607D01*
X88799541Y-103947815D01*
X88798109Y-103925866D01*
X88794735Y-103913270D01*
X88788611Y-103906532D01*
X88781457Y-103903117D01*
X88764201Y-103898147D01*
X88736794Y-103892043D01*
X88705886Y-103886255D01*
X88668436Y-103879798D01*
X88629628Y-103872958D01*
X88603763Y-103868293D01*
X88579644Y-103863943D01*
X88543590Y-103857538D01*
X88499765Y-103849812D01*
X88452332Y-103841501D01*
X88432196Y-103837989D01*
X88305564Y-103815932D01*
X88301479Y-103755023D01*
X88297394Y-103694114D01*
X88265232Y-103683613D01*
X88242438Y-103677903D01*
X88225255Y-103676606D01*
X88222341Y-103677230D01*
X88218834Y-103686402D01*
X88215945Y-103709177D01*
X88213679Y-103742834D01*
X88212037Y-103784654D01*
X88211024Y-103831914D01*
X88210642Y-103881896D01*
X88146388Y-103881896D01*
X88146378Y-103874893D01*
X88146598Y-103811754D01*
X88147164Y-103753716D01*
X88148026Y-103702838D01*
X88149135Y-103661181D01*
X88150444Y-103630805D01*
X88151903Y-103613771D01*
X88152604Y-103610994D01*
X88164343Y-103605784D01*
X88188684Y-103603441D01*
X88222208Y-103603619D01*
G37*
G36*
X88238999Y-101646157D02*
G01*
X88295626Y-101652718D01*
X88309649Y-101654835D01*
X88355675Y-101662230D01*
X88388024Y-101668188D01*
X88409197Y-101673572D01*
X88421695Y-101679244D01*
X88428019Y-101686069D01*
X88430668Y-101694908D01*
X88430937Y-101696701D01*
X88438536Y-101721823D01*
X88453700Y-101733209D01*
X88476961Y-101732848D01*
X88502755Y-101731681D01*
X88531503Y-101735278D01*
X88535061Y-101736123D01*
X88562993Y-101742167D01*
X88596340Y-101747901D01*
X88609890Y-101749810D01*
X88635322Y-101752274D01*
X88648371Y-101750850D01*
X88652656Y-101744950D01*
X88652782Y-101742851D01*
X88655395Y-101736563D01*
X88665283Y-101733195D01*
X88685521Y-101732278D01*
X88716098Y-101733206D01*
X88768704Y-101736944D01*
X88818070Y-101743034D01*
X88861849Y-101750923D01*
X88897695Y-101760055D01*
X88923262Y-101769876D01*
X88936206Y-101779832D01*
X88937015Y-101785417D01*
X88936384Y-101794658D01*
X88935499Y-101817999D01*
X88934424Y-101853202D01*
X88933224Y-101898031D01*
X88931962Y-101950248D01*
X88930887Y-101998875D01*
X88929276Y-102068396D01*
X88927429Y-102123523D01*
X88924909Y-102166202D01*
X88921279Y-102198376D01*
X88916099Y-102221991D01*
X88908932Y-102238991D01*
X88899340Y-102251321D01*
X88886884Y-102260925D01*
X88871128Y-102269749D01*
X88869715Y-102270478D01*
X88835903Y-102281147D01*
X88788788Y-102285867D01*
X88731712Y-102284648D01*
X88730293Y-102284618D01*
X88662339Y-102277381D01*
X88632905Y-102272800D01*
X88594398Y-102266573D01*
X88555274Y-102260688D01*
X88523630Y-102256360D01*
X88522065Y-102256166D01*
X88487277Y-102251032D01*
X88448149Y-102244017D01*
X88428112Y-102239895D01*
X88394894Y-102232647D01*
X88354300Y-102223852D01*
X88314934Y-102215374D01*
X88313734Y-102215117D01*
X88273312Y-102205844D01*
X88244791Y-102197369D01*
X88223928Y-102187966D01*
X88206480Y-102175906D01*
X88196786Y-102167500D01*
X88171889Y-102134811D01*
X88156047Y-102089898D01*
X88151077Y-102060149D01*
X88149088Y-102034823D01*
X88147601Y-101998751D01*
X88146603Y-101954763D01*
X88146076Y-101905690D01*
X88146007Y-101854361D01*
X88146378Y-101803609D01*
X88147176Y-101756263D01*
X88148210Y-101721101D01*
X88210757Y-101721101D01*
X88213227Y-101909728D01*
X88215696Y-102098355D01*
X88238293Y-102117779D01*
X88247491Y-102125195D01*
X88257453Y-102131481D01*
X88270168Y-102137139D01*
X88287626Y-102142670D01*
X88311819Y-102148576D01*
X88344736Y-102155359D01*
X88388368Y-102163519D01*
X88444704Y-102173560D01*
X88493534Y-102182109D01*
X88566462Y-102194688D01*
X88625042Y-102204384D01*
X88670975Y-102211372D01*
X88705964Y-102215826D01*
X88731712Y-102217920D01*
X88749921Y-102217830D01*
X88762293Y-102215730D01*
X88770531Y-102211793D01*
X88772005Y-102210659D01*
X88780592Y-102202120D01*
X88787151Y-102191146D01*
X88791958Y-102175569D01*
X88795291Y-102153220D01*
X88797426Y-102121930D01*
X88798639Y-102079531D01*
X88799209Y-102023854D01*
X88799321Y-101996630D01*
X88799839Y-101826904D01*
X88778882Y-101818936D01*
X88754175Y-101812825D01*
X88733948Y-101810969D01*
X88709971Y-101810969D01*
X88709971Y-101928949D01*
X88709439Y-101973764D01*
X88707955Y-102010756D01*
X88705691Y-102037310D01*
X88702814Y-102050813D01*
X88701997Y-102051857D01*
X88690443Y-102052799D01*
X88667502Y-102050703D01*
X88637695Y-102046260D01*
X88605543Y-102040161D01*
X88575568Y-102033095D01*
X88571084Y-102031867D01*
X88562653Y-102028988D01*
X88556866Y-102024069D01*
X88553138Y-102014311D01*
X88550888Y-101996913D01*
X88549533Y-101969077D01*
X88548490Y-101928002D01*
X88548373Y-101922730D01*
X88547424Y-101879209D01*
X88545895Y-101849279D01*
X88542372Y-101830213D01*
X88535437Y-101819285D01*
X88523673Y-101813768D01*
X88505665Y-101810935D01*
X88489385Y-101809180D01*
X88468961Y-101806884D01*
X88466934Y-101888582D01*
X88465667Y-101935333D01*
X88463796Y-101968072D01*
X88460158Y-101989119D01*
X88453587Y-102000792D01*
X88442921Y-102005410D01*
X88426996Y-102005292D01*
X88409349Y-102003306D01*
X88376878Y-101998664D01*
X88345671Y-101992945D01*
X88332116Y-101989843D01*
X88301479Y-101981905D01*
X88301479Y-101860984D01*
X88301479Y-101740063D01*
X88280670Y-101730582D01*
X88256312Y-101723394D01*
X88235309Y-101721101D01*
X88210757Y-101721101D01*
X88148210Y-101721101D01*
X88148385Y-101715155D01*
X88149988Y-101683114D01*
X88151972Y-101662972D01*
X88153261Y-101657911D01*
X88167190Y-101648767D01*
X88195978Y-101644844D01*
X88238999Y-101646157D01*
G37*
G36*
X88221845Y-103186152D02*
G01*
X88222925Y-103186215D01*
X88260929Y-103189251D01*
X88298653Y-103193622D01*
X88328365Y-103198421D01*
X88330074Y-103198777D01*
X88346521Y-103202245D01*
X88362828Y-103205564D01*
X88381422Y-103209183D01*
X88404729Y-103213554D01*
X88435177Y-103219126D01*
X88475192Y-103226352D01*
X88527203Y-103235680D01*
X88571084Y-103243531D01*
X88628818Y-103253866D01*
X88690775Y-103264977D01*
X88752968Y-103276146D01*
X88811410Y-103286658D01*
X88862114Y-103295795D01*
X88901094Y-103302842D01*
X88904004Y-103303369D01*
X88930556Y-103308185D01*
X88930556Y-103450088D01*
X88930445Y-103496268D01*
X88930136Y-103536268D01*
X88929667Y-103567443D01*
X88929076Y-103587146D01*
X88928514Y-103592893D01*
X88915368Y-103594940D01*
X88891246Y-103595921D01*
X88861473Y-103595895D01*
X88831375Y-103594916D01*
X88806275Y-103593042D01*
X88795754Y-103591494D01*
X88789294Y-103590237D01*
X88774656Y-103587389D01*
X88742080Y-103581334D01*
X88702648Y-103574178D01*
X88665037Y-103567484D01*
X88621716Y-103559835D01*
X88579452Y-103552343D01*
X88543533Y-103545948D01*
X88522065Y-103542098D01*
X88491771Y-103536776D01*
X88452995Y-103530163D01*
X88413391Y-103523563D01*
X88407687Y-103522628D01*
X88330976Y-103509623D01*
X88267315Y-103497861D01*
X88217434Y-103487498D01*
X88182063Y-103478690D01*
X88161934Y-103471592D01*
X88158639Y-103469553D01*
X88153628Y-103462468D01*
X88150128Y-103449273D01*
X88147905Y-103427509D01*
X88146727Y-103394719D01*
X88146363Y-103348443D01*
X88146364Y-103341090D01*
X88211611Y-103341090D01*
X88211611Y-103419267D01*
X88254503Y-103427450D01*
X88327064Y-103441053D01*
X88406503Y-103455543D01*
X88483561Y-103469239D01*
X88509810Y-103473803D01*
X88550242Y-103480780D01*
X88599285Y-103489244D01*
X88649447Y-103497900D01*
X88677291Y-103502705D01*
X88715199Y-103509384D01*
X88747501Y-103515330D01*
X88770604Y-103519865D01*
X88780658Y-103522213D01*
X88789294Y-103523261D01*
X88794915Y-103517493D01*
X88798136Y-103502406D01*
X88799568Y-103475496D01*
X88799839Y-103443860D01*
X88799338Y-103408172D01*
X88797433Y-103385447D01*
X88793518Y-103372329D01*
X88786985Y-103365462D01*
X88785542Y-103364660D01*
X88767679Y-103358329D01*
X88743946Y-103352999D01*
X88742650Y-103352787D01*
X88724623Y-103349766D01*
X88693552Y-103344402D01*
X88652474Y-103337231D01*
X88604429Y-103328792D01*
X88552456Y-103319622D01*
X88499592Y-103310259D01*
X88448878Y-103301240D01*
X88403351Y-103293102D01*
X88366051Y-103286385D01*
X88340017Y-103281624D01*
X88334159Y-103280525D01*
X88302796Y-103275159D01*
X88267255Y-103269895D01*
X88254503Y-103268227D01*
X88211611Y-103262912D01*
X88211611Y-103341090D01*
X88146364Y-103341090D01*
X88146364Y-103339769D01*
X88146385Y-103285235D01*
X88147021Y-103244956D01*
X88149310Y-103216851D01*
X88154289Y-103198841D01*
X88162996Y-103188846D01*
X88176466Y-103184786D01*
X88195736Y-103184581D01*
X88221845Y-103186152D01*
G37*
G36*
X88198850Y-102311928D02*
G01*
X88222701Y-102313197D01*
X88256221Y-102315274D01*
X88288235Y-102318361D01*
X88322924Y-102323034D01*
X88364469Y-102329869D01*
X88417050Y-102339442D01*
X88428112Y-102341520D01*
X88473759Y-102349999D01*
X88525903Y-102359484D01*
X88580863Y-102369325D01*
X88634961Y-102378874D01*
X88684515Y-102387482D01*
X88725848Y-102394500D01*
X88755279Y-102399279D01*
X88758080Y-102399709D01*
X88795000Y-102405821D01*
X88837383Y-102413583D01*
X88868372Y-102419741D01*
X88896931Y-102425641D01*
X88918349Y-102429956D01*
X88928450Y-102431845D01*
X88928702Y-102431869D01*
X88929301Y-102439606D01*
X88929592Y-102461081D01*
X88929575Y-102493694D01*
X88929250Y-102534845D01*
X88928702Y-102576473D01*
X88926471Y-102721071D01*
X88872402Y-102723169D01*
X88830540Y-102721876D01*
X88783450Y-102715948D01*
X88755982Y-102710412D01*
X88726820Y-102704013D01*
X88704953Y-102700260D01*
X88694158Y-102699768D01*
X88693631Y-102700252D01*
X88698908Y-102708121D01*
X88712606Y-102723781D01*
X88727978Y-102739944D01*
X88747506Y-102762302D01*
X88755599Y-102777531D01*
X88754530Y-102782564D01*
X88743323Y-102790199D01*
X88722548Y-102801935D01*
X88704157Y-102811464D01*
X88678029Y-102825724D01*
X88660231Y-102837804D01*
X88652969Y-102845969D01*
X88657022Y-102848537D01*
X88668435Y-102849944D01*
X88692240Y-102853730D01*
X88724775Y-102859243D01*
X88762376Y-102865833D01*
X88801379Y-102872847D01*
X88838122Y-102879635D01*
X88868941Y-102885544D01*
X88890173Y-102889923D01*
X88891749Y-102890280D01*
X88930556Y-102899186D01*
X88930556Y-103041343D01*
X88930445Y-103087559D01*
X88930136Y-103127591D01*
X88929668Y-103158797D01*
X88929078Y-103178535D01*
X88928514Y-103184321D01*
X88910484Y-103187355D01*
X88881048Y-103187989D01*
X88844921Y-103186483D01*
X88806820Y-103183098D01*
X88789851Y-103180696D01*
X88771461Y-103178092D01*
X88754905Y-103174746D01*
X88726165Y-103168568D01*
X88685074Y-103160442D01*
X88635405Y-103151079D01*
X88580927Y-103141189D01*
X88525413Y-103131482D01*
X88522065Y-103130909D01*
X88436329Y-103116212D01*
X88365300Y-103103875D01*
X88307559Y-103093602D01*
X88261689Y-103085100D01*
X88226274Y-103078072D01*
X88199897Y-103072224D01*
X88181141Y-103067261D01*
X88168588Y-103062888D01*
X88160822Y-103058809D01*
X88156465Y-103054781D01*
X88152879Y-103042187D01*
X88149946Y-103017026D01*
X88147747Y-102983062D01*
X88146365Y-102944057D01*
X88145880Y-102903773D01*
X88146374Y-102865975D01*
X88147929Y-102834424D01*
X88150626Y-102812885D01*
X88151172Y-102810611D01*
X88161709Y-102796589D01*
X88187002Y-102779229D01*
X88220435Y-102761592D01*
X88249366Y-102746323D01*
X88271612Y-102732400D01*
X88283780Y-102722042D01*
X88285071Y-102719285D01*
X88279500Y-102709670D01*
X88264298Y-102691578D01*
X88241817Y-102667639D01*
X88215650Y-102641671D01*
X88146160Y-102574848D01*
X88146196Y-102548917D01*
X88210987Y-102548917D01*
X88237851Y-102576809D01*
X88255553Y-102594059D01*
X88281670Y-102618131D01*
X88312127Y-102645311D01*
X88332391Y-102662946D01*
X88361898Y-102689646D01*
X88383733Y-102712054D01*
X88395901Y-102728007D01*
X88397701Y-102733803D01*
X88389835Y-102742135D01*
X88370130Y-102755606D01*
X88341523Y-102772382D01*
X88306951Y-102790629D01*
X88305516Y-102791348D01*
X88215696Y-102836282D01*
X88215696Y-102921878D01*
X88215696Y-103007473D01*
X88260630Y-103016701D01*
X88294496Y-103023401D01*
X88333874Y-103030831D01*
X88358668Y-103035322D01*
X88382488Y-103039541D01*
X88419187Y-103046048D01*
X88465558Y-103054274D01*
X88518390Y-103063650D01*
X88574477Y-103073606D01*
X88595522Y-103077343D01*
X88648715Y-103086709D01*
X88696797Y-103095025D01*
X88737342Y-103101882D01*
X88767920Y-103106874D01*
X88786104Y-103109592D01*
X88789851Y-103109972D01*
X88794861Y-103105984D01*
X88797733Y-103092489D01*
X88798703Y-103067186D01*
X88798092Y-103030437D01*
X88795754Y-102950903D01*
X88767159Y-102945843D01*
X88750171Y-102942910D01*
X88720167Y-102937803D01*
X88680244Y-102931046D01*
X88633504Y-102923165D01*
X88583338Y-102914733D01*
X88520694Y-102903981D01*
X88472573Y-102895099D01*
X88437319Y-102887675D01*
X88413277Y-102881298D01*
X88398790Y-102875553D01*
X88392203Y-102870029D01*
X88391347Y-102866930D01*
X88398247Y-102861077D01*
X88417115Y-102849678D01*
X88445202Y-102834289D01*
X88479761Y-102816466D01*
X88485897Y-102813399D01*
X88520983Y-102795384D01*
X88549757Y-102779558D01*
X88569568Y-102767458D01*
X88577766Y-102760622D01*
X88577808Y-102760079D01*
X88571118Y-102752622D01*
X88554511Y-102736349D01*
X88530207Y-102713380D01*
X88500432Y-102685833D01*
X88487343Y-102673875D01*
X88456191Y-102645027D01*
X88429900Y-102619747D01*
X88410624Y-102600179D01*
X88400514Y-102588463D01*
X88399517Y-102586430D01*
X88401012Y-102581769D01*
X88407293Y-102579679D01*
X88421055Y-102580322D01*
X88444991Y-102583861D01*
X88481797Y-102590461D01*
X88489385Y-102591872D01*
X88560002Y-102605020D01*
X88616580Y-102615492D01*
X88661135Y-102623651D01*
X88695685Y-102629858D01*
X88722244Y-102634474D01*
X88742829Y-102637863D01*
X88759456Y-102640384D01*
X88761032Y-102640610D01*
X88799839Y-102646147D01*
X88799714Y-102573733D01*
X88799014Y-102540261D01*
X88797253Y-102512755D01*
X88794754Y-102495514D01*
X88793586Y-102492403D01*
X88783371Y-102487269D01*
X88760851Y-102480788D01*
X88729887Y-102473980D01*
X88709971Y-102470348D01*
X88630521Y-102456811D01*
X88554752Y-102443737D01*
X88485048Y-102431546D01*
X88423795Y-102420660D01*
X88373376Y-102411498D01*
X88336177Y-102404483D01*
X88330074Y-102403283D01*
X88296569Y-102397085D01*
X88265229Y-102392053D01*
X88244290Y-102389432D01*
X88215696Y-102386942D01*
X88213342Y-102467929D01*
X88210987Y-102548917D01*
X88146196Y-102548917D01*
X88146318Y-102460470D01*
X88146356Y-102407313D01*
X88147039Y-102368356D01*
X88149474Y-102341466D01*
X88154766Y-102324511D01*
X88164022Y-102315359D01*
X88178348Y-102311875D01*
X88198850Y-102311928D01*
G37*
G36*
X88834561Y-101315368D02*
G01*
X88835587Y-101318350D01*
X88824348Y-101319489D01*
X88812750Y-101318205D01*
X88814136Y-101315368D01*
X88830862Y-101314289D01*
X88834561Y-101315368D01*
G37*
G36*
X88364625Y-101315843D02*
G01*
X88362189Y-101319556D01*
X88353902Y-101320134D01*
X88345185Y-101318139D01*
X88348966Y-101315198D01*
X88361735Y-101314224D01*
X88364625Y-101315843D01*
G37*
D13*
%TO.C,SW1*%
X51100000Y-102650000D02*
X51100000Y-108350000D01*
X52110000Y-108950000D02*
X52900000Y-108950000D01*
X52900000Y-102050000D02*
X52110000Y-102050000D01*
X53950000Y-103900000D02*
X53950000Y-105600000D01*
X53950000Y-106900000D02*
X53950000Y-107100000D01*
%TO.C,U2*%
X67600000Y-104265000D02*
X67600000Y-104040000D01*
X67600000Y-108100000D02*
X67600000Y-107575000D01*
X67600000Y-108100000D02*
X68125000Y-108100000D01*
X68125000Y-103800000D02*
X67900000Y-103800000D01*
X71900000Y-103800000D02*
X71375000Y-103800000D01*
X71900000Y-103800000D02*
X71900000Y-104325000D01*
X71900000Y-108100000D02*
X71375000Y-108100000D01*
X71900000Y-108100000D02*
X71900000Y-107575000D01*
X67600000Y-103800000D02*
X67360000Y-103470000D01*
X67840000Y-103470000D01*
X67600000Y-103800000D01*
G36*
X67600000Y-103800000D02*
G01*
X67360000Y-103470000D01*
X67840000Y-103470000D01*
X67600000Y-103800000D01*
G37*
%TO.C,Y1*%
X55440000Y-115040000D02*
X55440000Y-119160000D01*
X58860000Y-115040000D02*
X55440000Y-115040000D01*
%TO.C,R2*%
X84446359Y-118420000D02*
X84753641Y-118420000D01*
X84446359Y-119180000D02*
X84753641Y-119180000D01*
%TO.C,R1*%
X59580000Y-106756359D02*
X59580000Y-107063641D01*
X58820000Y-106756359D02*
X58820000Y-107063641D01*
%TO.C,C12*%
X71692164Y-109640000D02*
X71907836Y-109640000D01*
X71692164Y-110360000D02*
X71907836Y-110360000D01*
%TO.C,C2*%
X59987836Y-126040000D02*
X59772164Y-126040000D01*
X59987836Y-126760000D02*
X59772164Y-126760000D01*
%TO.C,U1*%
X62952500Y-113640000D02*
X63677500Y-113640000D01*
X62952500Y-114365000D02*
X62952500Y-113640000D01*
X62952500Y-120860000D02*
X62952500Y-120135000D01*
X63677500Y-120860000D02*
X62952500Y-120860000D01*
X69447500Y-113640000D02*
X70172500Y-113640000D01*
X70172500Y-113640000D02*
X70172500Y-114365000D01*
X70172500Y-120135000D02*
X70172500Y-120860000D01*
X70172500Y-120860000D02*
X69447500Y-120860000D01*
X62422500Y-114750000D02*
X62092500Y-114990000D01*
X62092500Y-114510000D01*
X62422500Y-114750000D01*
G36*
X62422500Y-114750000D02*
G01*
X62092500Y-114990000D01*
X62092500Y-114510000D01*
X62422500Y-114750000D01*
G37*
%TO.C,R3*%
X79180000Y-116443641D02*
X79180000Y-116136359D01*
X78420000Y-116443641D02*
X78420000Y-116136359D01*
%TO.C,C3*%
X72972164Y-113440000D02*
X73187836Y-113440000D01*
X72972164Y-114160000D02*
X73187836Y-114160000D01*
%TO.C,R5*%
X84753641Y-120220000D02*
X84446359Y-120220000D01*
X84753641Y-120980000D02*
X84446359Y-120980000D01*
%TO.C,R8*%
X77780000Y-107263641D02*
X77780000Y-106956359D01*
X77020000Y-107263641D02*
X77020000Y-106956359D01*
%TO.C,J5*%
X86360000Y-120075000D02*
X86360000Y-111125000D01*
X89440000Y-111005000D02*
X90340000Y-111005000D01*
X89440000Y-120195000D02*
X90340000Y-120195000D01*
%TO.C,J1*%
X73620000Y-95420000D02*
X73620000Y-98180000D01*
X81350000Y-95420000D02*
X73620000Y-95420000D01*
X81350000Y-95420000D02*
X81350000Y-98180000D01*
X81350000Y-98180000D02*
X73620000Y-98180000D01*
X82620000Y-95420000D02*
X84000000Y-95420000D01*
X84000000Y-95420000D02*
X84000000Y-96800000D01*
%TO.C,C10*%
X59440000Y-115387836D02*
X59440000Y-115172164D01*
X60160000Y-115387836D02*
X60160000Y-115172164D01*
%TO.C,C19*%
X83440000Y-126627836D02*
X83440000Y-126412164D01*
X84160000Y-126627836D02*
X84160000Y-126412164D01*
%TO.C,R7*%
X65753641Y-108620000D02*
X65446359Y-108620000D01*
X65753641Y-109380000D02*
X65446359Y-109380000D01*
%TO.C,C14*%
X72840000Y-105612164D02*
X72840000Y-105827836D01*
X73560000Y-105612164D02*
X73560000Y-105827836D01*
%TO.C,C7*%
X59827836Y-123040000D02*
X59612164Y-123040000D01*
X59827836Y-123760000D02*
X59612164Y-123760000D01*
%TO.C,D2*%
X72337500Y-119210000D02*
X75022500Y-119210000D01*
X75022500Y-117290000D02*
X72337500Y-117290000D01*
X75022500Y-119210000D02*
X75022500Y-117290000D01*
%TO.C,C8*%
X72840000Y-107612164D02*
X72840000Y-107827836D01*
X73560000Y-107612164D02*
X73560000Y-107827836D01*
%TO.C,C6*%
X61040000Y-120827836D02*
X61040000Y-120612164D01*
X61760000Y-120827836D02*
X61760000Y-120612164D01*
%TO.C,C18*%
X76872164Y-117890000D02*
X77087836Y-117890000D01*
X76872164Y-118610000D02*
X77087836Y-118610000D01*
%TO.C,R4*%
X73463641Y-122180000D02*
X73156359Y-122180000D01*
X73463641Y-121420000D02*
X73156359Y-121420000D01*
%TO.C,U3*%
X75590000Y-121750000D02*
X75590000Y-125510000D01*
X75590000Y-125510000D02*
X76850000Y-125510000D01*
X82410000Y-121750000D02*
X82410000Y-125510000D01*
X82410000Y-125510000D02*
X81150000Y-125510000D01*
X82640000Y-120710000D02*
X82310000Y-120470000D01*
X82640000Y-120230000D01*
X82640000Y-120710000D01*
G36*
X82640000Y-120710000D02*
G01*
X82310000Y-120470000D01*
X82640000Y-120230000D01*
X82640000Y-120710000D01*
G37*
%TO.C,J6*%
X51620000Y-119230000D02*
X51620000Y-111500000D01*
X54380000Y-111500000D02*
X51620000Y-111500000D01*
X54380000Y-119230000D02*
X51620000Y-119230000D01*
X54380000Y-119230000D02*
X54380000Y-111500000D01*
X54380000Y-120500000D02*
X54380000Y-121880000D01*
X54380000Y-121880000D02*
X53000000Y-121880000D01*
%TO.C,J4*%
X60120000Y-95120000D02*
X60120000Y-97880000D01*
X67850000Y-95120000D02*
X60120000Y-95120000D01*
X67850000Y-95120000D02*
X67850000Y-97880000D01*
X67850000Y-97880000D02*
X60120000Y-97880000D01*
X69120000Y-95120000D02*
X70500000Y-95120000D01*
X70500000Y-95120000D02*
X70500000Y-96500000D01*
%TO.C,C9*%
X59240000Y-120012164D02*
X59240000Y-120227836D01*
X59960000Y-120012164D02*
X59960000Y-120227836D01*
%TO.C,J3*%
X62080000Y-129380000D02*
X62080000Y-128000000D01*
X63460000Y-129380000D02*
X62080000Y-129380000D01*
X64730000Y-126620000D02*
X72460000Y-126620000D01*
X64730000Y-129380000D02*
X64730000Y-126620000D01*
X64730000Y-129380000D02*
X72460000Y-129380000D01*
X72460000Y-129380000D02*
X72460000Y-126620000D01*
%TO.C,R6*%
X84980000Y-112846359D02*
X84980000Y-113153641D01*
X84220000Y-112846359D02*
X84220000Y-113153641D01*
%TO.C,C4*%
X56440000Y-110612164D02*
X56440000Y-110827836D01*
X57160000Y-110612164D02*
X57160000Y-110827836D01*
%TO.C,C13*%
X70612164Y-102240000D02*
X70827836Y-102240000D01*
X70612164Y-102960000D02*
X70827836Y-102960000D01*
%TO.C,C5*%
X63172164Y-109040000D02*
X63387836Y-109040000D01*
X63172164Y-109760000D02*
X63387836Y-109760000D01*
%TO.C,C11*%
X57187836Y-119910000D02*
X56972164Y-119910000D01*
X57187836Y-120630000D02*
X56972164Y-120630000D01*
%TO.C,D3*%
X85665000Y-124727500D02*
X85665000Y-127012500D01*
X87135000Y-124727500D02*
X85665000Y-124727500D01*
X87135000Y-127012500D02*
X87135000Y-124727500D01*
%TO.C,C1*%
X63092164Y-111040000D02*
X63307836Y-111040000D01*
X63092164Y-111760000D02*
X63307836Y-111760000D01*
%TD*%
M02*
